<svg id="격리_모드" data-name="격리 모드" xmlns="http://www.w3.org/2000/svg" viewBox="0 0 42.7 56.08"><defs><style>.cls-1{fill:#494949;}</style></defs><title>content-share-icon-share</title><path class="cls-1" d="M33.25,37.5a9.23,9.23,0,0,0-5.92,2.15L14.2,30a7,7,0,0,0,0-4l13.13-9.62a9.34,9.34,0,1,0-2.44-3.17L12.06,22.65A7.18,7.18,0,0,0,7.25,20.8a7.25,7.25,0,1,0,4.81,12.66l12.82,9.36A9.07,9.07,0,0,0,24,46.75a9.25,9.25,0,1,0,9.25-9.25Zm0-33.5A5.25,5.25,0,1,1,28,9.25,5.25,5.25,0,0,1,33.25,4Zm-26,27.25A3.25,3.25,0,1,1,10.5,28h0a3.24,3.24,0,0,1-3.23,3.25ZM33.25,52a5.25,5.25,0,1,1,5.25-5.25A5.25,5.25,0,0,1,33.25,52Z" transform="translate(0.02 0.08)"/></svg>