<svg id="Layer_8" data-name="Layer 8" xmlns="http://www.w3.org/2000/svg" viewBox="0 0 52 55.25"><defs><style>.cls-1{fill:#333;}</style></defs><title>content-share-icon-print</title><path class="cls-1" d="M633.06,801.73h-1.75v-16a2,2,0,0,0-2-2h-33.5a2,2,0,0,0-2,2v16h-1.75a5.5,5.5,0,0,0-5.5,5.5V825a5.51,5.51,0,0,0,5.3,5.49l-1,6.18a2,2,0,0,0,.45,1.62,2,2,0,0,0,1.53.71h39.5a2,2,0,0,0,2-2.33l-1-6.18a5.52,5.52,0,0,0,5.31-5.49V807.23A5.5,5.5,0,0,0,633.06,801.73Zm-35.25-14h29.5v14h-29.5ZM595.17,835l2.33-14h30.11l2.33,14Zm39.39-10a1.51,1.51,0,0,1-1.5,1.5h-.48l-1.3-7.83a2,2,0,0,0-2-1.67h-33.5a2,2,0,0,0-2,1.67l-1.3,7.83h-.47a1.5,1.5,0,0,1-1.5-1.5V807.23a1.5,1.5,0,0,1,1.5-1.5h41a1.5,1.5,0,0,1,1.5,1.5Z" transform="translate(-586.56 -783.73)"/></svg>