<svg xmlns="http://www.w3.org/2000/svg" width="24.53" height="17.125" viewBox="0 0 24.53 17.125">
  <metadata><?xpacket begin="﻿" id="W5M0MpCehiHzreSzNTczkc9d"?>
<x:xmpmeta xmlns:x="adobe:ns:meta/" x:xmptk="Adobe XMP Core 5.6-c142 79.160924, 2017/07/13-01:06:39        ">
   <rdf:RDF xmlns:rdf="http://www.w3.org/1999/02/22-rdf-syntax-ns#">
      <rdf:Description rdf:about=""/>
   </rdf:RDF>
</x:xmpmeta>
                                                                                                    
                                                                                                    
                                                                                                    
                                                                                                    
                                                                                                    
                                                                                                    
                                                                                                    
                                                                                                    
                                                                                                    
                                                                                                    
                                                                                                    
                                                                                                    
                                                                                                    
                                                                                                    
                                                                                                    
                                                                                                    
                                                                                                    
                                                                                                    
                                                                                                    
                                                                                                    
                           
<?xpacket end="w"?></metadata>
<defs>
    <style>
      .cls-1 {
        fill: #fff;
        fill-rule: evenodd;
      }
    </style>
  </defs>
  <path class="cls-1" d="M1191.87,356.275a0.189,0.189,0,0,1-.04-0.04,4.459,4.459,0,0,0-3.24-1.161l-0.04-.084a0.043,0.043,0,0,1,.03-0.008,3.832,3.832,0,0,0,1.98-.772,0.256,0.256,0,0,0-.26-0.375,6.792,6.792,0,0,0-1.55.359c0.59-.359.82-0.611,0.69-0.742a3.112,3.112,0,0,0-1.87.858,0.948,0.948,0,0,0,.28-0.651,5.687,5.687,0,0,0-.83.665,13.838,13.838,0,0,0-1.2,1.462l-0.01.038a12.7,12.7,0,0,0-1.67,3.686l-0.12.092-0.02.022a6.254,6.254,0,0,0-1.72-1.423,20.934,20.934,0,0,0-2.84-1.429,24.121,24.121,0,0,0-3.6-1.438,3.429,3.429,0,0,0,1.98,3.074v0.023a4.44,4.44,0,0,0-1.35.192c0.08,1.2.98,2.026,2.68,2.485l-0.01.023a2,2,0,0,0-1.65.643,2.983,2.983,0,0,0,2.98,1.5,2.109,2.109,0,0,0-.65.459,0.929,0.929,0,0,0-.26.918,1.668,1.668,0,0,0,1.67.735h0l0.04,0.053a0.041,0.041,0,0,1-.02.023,6.332,6.332,0,0,1-5.07,1.866l-0.03.016a6.542,6.542,0,0,1-3.9-1.66,12,12,0,0,0,5.58,4.191,13.861,13.861,0,0,0,7.93.183h0.05a12.616,12.616,0,0,0,6.52-4.336,8.4,8.4,0,0,0,1.55-3.289,3.259,3.259,0,0,0,2.9-1.1l-0.01-.024a6.07,6.07,0,0,1-2.61-.145v-0.138c0-.007,0-0.007.01,0,1.41-.153,2.25-0.588,2.51-1.308a4.137,4.137,0,0,1-2.92.031A5.855,5.855,0,0,0,1191.87,356.275Z" transform="translate(-1172.25 -353.438)"/>
</svg>
