<svg width="76" height="61" viewBox="0 0 76 61" fill="none" xmlns="http://www.w3.org/2000/svg">
<path d="M50.4444 1H25.5556C23.5919 1 22 2.59188 22 4.55556V29.4444C22 31.4081 23.5919 33 25.5556 33H50.4444C52.4081 33 54 31.4081 54 29.4444V4.55556C54 2.59188 52.4081 1 50.4444 1Z" fill="#7C8B9E" stroke="white" stroke-width="2" stroke-linecap="round" stroke-linejoin="round"/>
<path d="M31.778 14.4447C33.803 14.4447 35.4447 12.803 35.4447 10.778C35.4447 8.75295 33.803 7.11133 31.778 7.11133C29.753 7.11133 28.1113 8.75295 28.1113 10.778C28.1113 12.803 29.753 14.4447 31.778 14.4447Z" stroke="white" stroke-width="2" stroke-linecap="round" stroke-linejoin="round"/>
<path d="M53.9991 22.3322L45.1102 13.4434L25.5547 32.9989" stroke="white" stroke-width="2" stroke-linecap="round" stroke-linejoin="round"/>
<path d="M1.73194 57H3.97194V52.248C3.97194 50.888 3.79594 49.4 3.68394 48.12H3.76394L4.96394 50.664L8.38794 57H10.7879V45.16H8.54794V49.88C8.54794 51.224 8.72394 52.792 8.85194 54.024H8.77194L7.58794 51.464L4.14794 45.16H1.73194V57ZM17.4283 57.224C19.6683 57.224 21.7323 55.496 21.7323 52.536C21.7323 49.544 19.6683 47.816 17.4283 47.816C15.1883 47.816 13.1243 49.544 13.1243 52.536C13.1243 55.496 15.1883 57.224 17.4283 57.224ZM17.4283 55.304C16.2123 55.304 15.5243 54.216 15.5243 52.536C15.5243 50.84 16.2123 49.736 17.4283 49.736C18.6443 49.736 19.3323 50.84 19.3323 52.536C19.3323 54.216 18.6443 55.304 17.4283 55.304ZM27.8369 57H30.2049V45.16H27.8369V57ZM33.0862 57H35.4222V50.84C36.0622 50.168 36.6382 49.832 37.1502 49.832C37.9982 49.832 38.3982 50.328 38.3982 51.704V57H40.7502V50.84C41.3902 50.168 41.9662 49.832 42.4782 49.832C43.3262 49.832 43.7262 50.328 43.7262 51.704V57H46.0782V51.416C46.0782 49.16 45.1982 47.816 43.2942 47.816C42.1262 47.816 41.2622 48.52 40.4462 49.384C40.0142 48.392 39.2622 47.816 37.9822 47.816C36.8142 47.816 35.9822 48.456 35.2302 49.24H35.1662L35.0062 48.04H33.0862V57ZM50.8761 57.224C51.9001 57.224 52.7961 56.712 53.5801 56.04H53.6281L53.8041 57H55.7241V51.768C55.7241 49.176 54.5561 47.816 52.2841 47.816C50.8761 47.816 49.5961 48.344 48.5401 49L49.3881 50.552C50.2201 50.072 51.0201 49.704 51.8521 49.704C52.9561 49.704 53.3401 50.376 53.3721 51.256C49.7721 51.64 48.2201 52.648 48.2201 54.568C48.2201 56.088 49.2761 57.224 50.8761 57.224ZM51.6441 55.384C50.9561 55.384 50.4601 55.08 50.4601 54.376C50.4601 53.576 51.1961 52.984 53.3721 52.696V54.504C52.8121 55.064 52.3161 55.384 51.6441 55.384ZM61.4332 60.888C64.4252 60.888 66.2972 59.512 66.2972 57.704C66.2972 56.136 65.1292 55.464 62.9692 55.464H61.4492C60.3932 55.464 60.0412 55.208 60.0412 54.728C60.0412 54.376 60.1692 54.168 60.4252 53.96C60.8092 54.088 61.2252 54.168 61.5772 54.168C63.4972 54.168 65.0332 53.144 65.0332 51.128C65.0332 50.568 64.8572 50.072 64.6172 49.768H66.1532V48.04H62.9212C62.5532 47.912 62.0732 47.816 61.5772 47.816C59.6732 47.816 57.9612 48.952 57.9612 51.064C57.9612 52.104 58.5372 52.952 59.1452 53.4V53.464C58.6172 53.848 58.1532 54.472 58.1532 55.144C58.1532 55.88 58.5052 56.344 58.9692 56.648V56.728C58.1532 57.192 57.6892 57.832 57.6892 58.584C57.6892 60.168 59.3212 60.888 61.4332 60.888ZM61.5772 52.712C60.7932 52.712 60.1692 52.12 60.1692 51.064C60.1692 50.008 60.7772 49.416 61.5772 49.416C62.3772 49.416 62.9692 50.008 62.9692 51.064C62.9692 52.12 62.3612 52.712 61.5772 52.712ZM61.7852 59.4C60.4732 59.4 59.6412 58.968 59.6412 58.216C59.6412 57.848 59.8332 57.496 60.2332 57.176C60.5532 57.256 60.9372 57.304 61.4812 57.304H62.5692C63.5292 57.304 64.0572 57.464 64.0572 58.104C64.0572 58.808 63.1292 59.4 61.7852 59.4ZM71.5792 57.224C72.6992 57.224 73.8352 56.84 74.7152 56.232L73.9152 54.792C73.2752 55.192 72.6352 55.416 71.8992 55.416C70.5712 55.416 69.6112 54.648 69.4192 53.176H74.9392C75.0032 52.968 75.0512 52.536 75.0512 52.104C75.0512 49.624 73.7712 47.816 71.3072 47.816C69.1632 47.816 67.1312 49.624 67.1312 52.536C67.1312 55.48 69.0832 57.224 71.5792 57.224ZM69.3872 51.624C69.5632 50.312 70.3952 49.64 71.3392 49.64C72.4912 49.64 73.0352 50.408 73.0352 51.624H69.3872Z" fill="white"/>
</svg>
