<svg width="181" height="181" viewBox="0 0 181 181" fill="none" xmlns="http://www.w3.org/2000/svg">
<mask id="path-1-inside-1_1420_15324" fill="white">
<path d="M175.121 46.318C175.121 41.5674 171.256 37.7031 166.506 37.7031H150.487V18.9272C150.487 15.2563 147.501 12.2698 143.83 12.2698H133.693C132.228 12.2698 131.041 13.4566 131.041 14.9212C131.041 16.3858 132.228 17.5726 133.693 17.5726H143.83C144.577 17.5726 145.185 18.1802 145.185 18.9272V86.9861C145.185 87.733 144.577 88.3407 143.83 88.3407H142.191L128.282 70.0095C125.284 66.0576 119.345 66.053 116.344 70.0095L102.436 88.3407H37.1696C36.4227 88.3407 35.815 87.733 35.815 86.9861V17.5726H123.092C124.556 17.5726 125.743 16.3858 125.743 14.9212C125.743 13.4566 124.556 12.2698 123.092 12.2698H102.126L98.7178 6.10415C96.6366 2.33886 92.6712 0 88.3689 0C76.0673 0 50.0429 0 37.7391 0C33.7193 0 30.5126 3.29971 30.5126 7.22657V37.7031H14.4941C9.74354 37.7031 5.87891 41.5678 5.87891 46.318V141.555C5.87891 146.307 9.74389 150.173 14.4941 150.173H73.5641C75.035 156.793 72.8666 162.55 67.2224 166.948H63.6232C60.0679 166.948 56.9559 168.931 55.8784 171.883L54.3894 175.964C53.9698 177.113 54.138 178.397 54.8387 179.399C55.5397 180.402 56.6886 181 57.9118 181H123.087C124.311 181 125.459 180.402 126.16 179.399C126.861 178.397 127.029 177.113 126.61 175.964L125.12 171.883C124.043 168.931 120.931 166.948 117.376 166.948H113.777C108.132 162.55 105.964 156.793 107.435 150.173H121.512C122.976 150.173 124.163 148.986 124.163 147.522C124.163 146.057 122.976 144.87 121.512 144.87C99.7737 144.87 36.2346 144.87 14.4934 144.87C12.6668 144.87 11.1809 143.383 11.1809 141.555V123.422H169.817V141.555C169.817 143.383 168.331 144.87 166.505 144.87H132.113C130.648 144.87 129.461 146.057 129.461 147.522C129.461 148.986 130.648 150.173 132.113 150.173H166.506C171.256 150.173 175.121 146.307 175.121 141.555V46.318ZM120.14 173.701L120.869 175.697H60.1312L60.8598 173.701C61.1168 172.999 62.1724 172.251 63.6232 172.251H117.376C118.828 172.251 119.883 172.998 120.14 173.701ZM102.024 150.173C100.924 156.421 102.374 162.161 106.224 166.948H74.7756C78.625 162.162 80.0751 156.421 78.9757 150.173H102.024ZM37.17 93.6435H98.4127L92.4644 101.483C88.7225 106.415 92.2435 113.505 98.4332 113.505H102.834C104.299 113.505 105.485 112.318 105.485 110.853C105.485 109.389 104.299 108.202 102.834 108.202H98.4332C96.6193 108.202 95.593 106.133 96.6886 104.688L120.569 73.2149C121.446 72.0592 123.181 72.0592 124.058 73.2149L147.938 104.688C149.034 106.133 148.007 108.202 146.193 108.202H113.435C111.97 108.202 110.784 109.389 110.784 110.853C110.784 112.318 111.97 113.505 113.435 113.505H146.193C152.385 113.505 155.904 106.414 152.162 101.483L145.948 93.2924C148.582 92.4051 150.487 89.916 150.487 86.9864V52.2415H160.582V118.12H20.4176V52.2408H30.5126V86.9857C30.5126 90.6566 33.4991 93.6435 37.17 93.6435ZM94.0775 8.66962L96.0675 12.2698H87.1408C83.6067 5.90866 83.7598 6.08436 83.2423 5.30273H88.3689C90.7417 5.30273 92.9293 6.59271 94.0775 8.66962ZM79.0916 8.66926L81.0816 12.2698H72.155C68.6209 5.90866 68.7739 6.08436 68.2567 5.30273H73.3834C75.7559 5.30273 77.9434 6.59271 79.0916 8.66926ZM58.3975 5.30273C60.7703 5.30273 62.9575 6.59271 64.1058 8.66962L66.0957 12.2698H35.8153V7.22657C35.8153 6.16567 36.6782 5.30273 37.7391 5.30273H58.3975ZM11.1816 46.318C11.1816 44.4917 12.6675 43.0059 14.4941 43.0059H30.5126V46.938H17.7662C16.3016 46.938 15.1149 48.1248 15.1149 49.5894V118.119H11.1816V46.318ZM165.885 118.119V49.5894C165.885 48.1248 164.698 46.938 163.233 46.938H150.487V43.0059H166.506C168.332 43.0059 169.818 44.4917 169.818 46.318V118.119H165.885V118.119Z"/>
</mask>
<path d="M175.121 46.318C175.121 41.5674 171.256 37.7031 166.506 37.7031H150.487V18.9272C150.487 15.2563 147.501 12.2698 143.83 12.2698H133.693C132.228 12.2698 131.041 13.4566 131.041 14.9212C131.041 16.3858 132.228 17.5726 133.693 17.5726H143.83C144.577 17.5726 145.185 18.1802 145.185 18.9272V86.9861C145.185 87.733 144.577 88.3407 143.83 88.3407H142.191L128.282 70.0095C125.284 66.0576 119.345 66.053 116.344 70.0095L102.436 88.3407H37.1696C36.4227 88.3407 35.815 87.733 35.815 86.9861V17.5726H123.092C124.556 17.5726 125.743 16.3858 125.743 14.9212C125.743 13.4566 124.556 12.2698 123.092 12.2698H102.126L98.7178 6.10415C96.6366 2.33886 92.6712 0 88.3689 0C76.0673 0 50.0429 0 37.7391 0C33.7193 0 30.5126 3.29971 30.5126 7.22657V37.7031H14.4941C9.74354 37.7031 5.87891 41.5678 5.87891 46.318V141.555C5.87891 146.307 9.74389 150.173 14.4941 150.173H73.5641C75.035 156.793 72.8666 162.55 67.2224 166.948H63.6232C60.0679 166.948 56.9559 168.931 55.8784 171.883L54.3894 175.964C53.9698 177.113 54.138 178.397 54.8387 179.399C55.5397 180.402 56.6886 181 57.9118 181H123.087C124.311 181 125.459 180.402 126.16 179.399C126.861 178.397 127.029 177.113 126.61 175.964L125.12 171.883C124.043 168.931 120.931 166.948 117.376 166.948H113.777C108.132 162.55 105.964 156.793 107.435 150.173H121.512C122.976 150.173 124.163 148.986 124.163 147.522C124.163 146.057 122.976 144.87 121.512 144.87C99.7737 144.87 36.2346 144.87 14.4934 144.87C12.6668 144.87 11.1809 143.383 11.1809 141.555V123.422H169.817V141.555C169.817 143.383 168.331 144.87 166.505 144.87H132.113C130.648 144.87 129.461 146.057 129.461 147.522C129.461 148.986 130.648 150.173 132.113 150.173H166.506C171.256 150.173 175.121 146.307 175.121 141.555V46.318ZM120.14 173.701L120.869 175.697H60.1312L60.8598 173.701C61.1168 172.999 62.1724 172.251 63.6232 172.251H117.376C118.828 172.251 119.883 172.998 120.14 173.701ZM102.024 150.173C100.924 156.421 102.374 162.161 106.224 166.948H74.7756C78.625 162.162 80.0751 156.421 78.9757 150.173H102.024ZM37.17 93.6435H98.4127L92.4644 101.483C88.7225 106.415 92.2435 113.505 98.4332 113.505H102.834C104.299 113.505 105.485 112.318 105.485 110.853C105.485 109.389 104.299 108.202 102.834 108.202H98.4332C96.6193 108.202 95.593 106.133 96.6886 104.688L120.569 73.2149C121.446 72.0592 123.181 72.0592 124.058 73.2149L147.938 104.688C149.034 106.133 148.007 108.202 146.193 108.202H113.435C111.97 108.202 110.784 109.389 110.784 110.853C110.784 112.318 111.97 113.505 113.435 113.505H146.193C152.385 113.505 155.904 106.414 152.162 101.483L145.948 93.2924C148.582 92.4051 150.487 89.916 150.487 86.9864V52.2415H160.582V118.12H20.4176V52.2408H30.5126V86.9857C30.5126 90.6566 33.4991 93.6435 37.17 93.6435ZM94.0775 8.66962L96.0675 12.2698H87.1408C83.6067 5.90866 83.7598 6.08436 83.2423 5.30273H88.3689C90.7417 5.30273 92.9293 6.59271 94.0775 8.66962ZM79.0916 8.66926L81.0816 12.2698H72.155C68.6209 5.90866 68.7739 6.08436 68.2567 5.30273H73.3834C75.7559 5.30273 77.9434 6.59271 79.0916 8.66926ZM58.3975 5.30273C60.7703 5.30273 62.9575 6.59271 64.1058 8.66962L66.0957 12.2698H35.8153V7.22657C35.8153 6.16567 36.6782 5.30273 37.7391 5.30273H58.3975ZM11.1816 46.318C11.1816 44.4917 12.6675 43.0059 14.4941 43.0059H30.5126V46.938H17.7662C16.3016 46.938 15.1149 48.1248 15.1149 49.5894V118.119H11.1816V46.318ZM165.885 118.119V49.5894C165.885 48.1248 164.698 46.938 163.233 46.938H150.487V43.0059H166.506C168.332 43.0059 169.818 44.4917 169.818 46.318V118.119H165.885V118.119Z" fill="#B6D1CE" stroke="white" stroke-width="2" mask="url(#path-1-inside-1_1420_15324)"/>
<path d="M85.2642 134.146C85.2642 132.958 86.2271 131.995 87.4155 131.995H93.5819C94.7704 131.995 95.7333 132.958 95.7333 134.146C95.7333 135.335 94.7704 136.298 93.5819 136.298H87.4155C86.2271 136.298 85.2642 135.335 85.2642 134.146Z" fill="#B6D1CE" stroke="white"/>
<path d="M122.312 95.9395C123.777 95.9395 124.964 94.7527 124.964 93.2881V79.9641C124.964 78.4995 123.777 77.3127 122.312 77.3127C120.848 77.3127 119.661 78.4995 119.661 79.9641V93.2881C119.661 94.7524 120.848 95.9395 122.312 95.9395Z" fill="#50CEBD"/>
<path d="M122.312 104.405C123.777 104.405 124.964 103.219 124.964 101.754V100.666C124.964 99.2012 123.777 98.0144 122.312 98.0144C120.848 98.0144 119.661 99.2012 119.661 100.666V101.754C119.661 103.219 120.848 104.405 122.312 104.405Z" fill="#50CEBD"/>
</svg>
