<svg width="142" height="24" viewBox="0 0 142 24" fill="none" xmlns="http://www.w3.org/2000/svg">
<path d="M16.3021 7.9428C14.8598 11.8295 13.3381 16.0647 12.9941 17.0074C12.2795 18.9571 11.3797 21.6817 8.65388 22.9342C7.48944 23.399 6.13976 23.6185 4.47249 23.6185C3.70503 23.6185 2.96402 23.5927 2.28918 23.554V19.2541C2.76554 19.2799 3.25513 19.3187 3.77119 19.3187H4.12846C5.00178 19.3187 5.61047 19.1637 5.9942 19.0346C6.73521 18.8409 7.11894 18.1566 7.11894 16.9944L0 0.311523H5.88834L9.87125 10.6415L13.2852 0.311523H19.0809C18.0752 3.11353 17.149 5.65729 16.3021 7.9428Z" fill="#54B948"/>
<path d="M35.0002 7.08928V10.1624C35.0002 13.3906 33.8093 15.4953 31.4672 16.5025C30.3028 16.9673 28.9266 17.2256 27.2858 17.2256C23.7793 17.2256 21.4636 16.0893 20.4051 13.8683C19.9287 12.9515 19.6641 11.8282 19.6641 10.4465V6.77938C19.6641 3.51252 21.1064 1.40779 24.0042 0.503912C24.9967 0.219837 25.9626 0.0390625 27.0873 0.0390625H27.6034C31.3084 0.0390625 33.5579 1.4207 34.5768 4.05484C34.8679 4.89416 35.0002 5.90133 35.0002 7.08928ZM28.5694 4.58426C28.2782 4.42931 27.921 4.39057 27.5372 4.39057H27.127C26.2008 4.39057 25.5127 4.76503 25.129 5.51395C25.0363 5.79803 24.9702 6.10793 24.9702 6.58569V10.7952C24.9702 12.2414 25.7377 12.9645 27.2858 12.9645H27.4182C28.6355 12.9645 29.4162 12.435 29.7073 11.402C29.7073 11.118 29.7338 10.8081 29.7338 10.3303V6.9085C29.7206 5.59143 29.3368 4.80377 28.5694 4.58426Z" fill="#54B948"/>
<path d="M50.9299 7.08928V10.1624C50.9299 13.3906 49.739 15.4953 47.3969 16.5025C46.2325 16.9673 44.8563 17.2256 43.2155 17.2256C39.709 17.2256 37.3933 16.0893 36.3348 13.8683C35.8584 12.9515 35.5938 11.8282 35.5938 10.4465V6.77938C35.5938 3.51252 37.0361 1.40779 39.9339 0.503912C40.9263 0.219837 41.8923 0.0390625 43.017 0.0390625H43.5331C47.2381 0.0390625 49.4876 1.4207 50.5065 4.05484C50.7976 4.89416 50.9299 5.90133 50.9299 7.08928ZM44.4858 4.58426C44.1947 4.42931 43.8374 4.39057 43.4537 4.39057H43.0303C42.104 4.39057 41.4159 4.76503 41.0322 5.51395C40.9528 5.81094 40.8866 6.12084 40.8866 6.58569V10.7952C40.8866 12.2414 41.6541 12.9645 43.2023 12.9645H43.3346C44.552 12.9645 45.3327 12.435 45.6238 11.402C45.6238 11.118 45.6503 10.8081 45.6503 10.3303V6.9085C45.6503 5.59143 45.2665 4.80377 44.4858 4.58426Z" fill="#54B948"/>
<path d="M67.5243 7.21912V17.0068H62.2182V6.27651C62.2182 5.24351 61.7021 4.6108 60.7097 4.39129C60.3921 4.36546 60.0348 4.32673 59.6776 4.36546C59.0689 4.45585 58.2882 4.58498 57.4281 5.08856V17.0197H52.1484V0.246383H56.5283L56.6871 0.556282C56.7797 0.775794 56.912 0.995306 57.0047 1.34394C57.3619 1.18899 59.0689 0.155995 61.6624 0.0526954C63.7266 -0.037692 65.5527 0.207645 66.8759 2.3382C67.3655 3.22917 67.5243 4.6108 67.5243 7.21912Z" fill="#54B948"/>
<path d="M82.609 0.749791V4.92052C80.7168 4.5848 78.851 4.36528 77.7925 4.36528C76.5354 4.36528 75.7018 4.5848 75.2783 4.998C74.9211 5.21751 74.7358 6.09555 74.7358 7.63214V9.7627C74.7358 11.1702 74.8946 11.9836 75.2122 12.2419C75.5959 12.7067 76.4295 12.965 77.6866 12.965H78.0703C78.9966 12.965 80.4786 12.7455 82.5693 12.371H82.5958V16.5159C82.5958 16.6063 81.6695 16.8 79.7641 17.0841C79.0231 17.1745 78.1497 17.239 77.1573 17.239C73.5184 17.239 71.1366 15.9478 70.0119 13.3782C69.6282 12.5647 69.4297 11.1831 69.4297 9.20746V8.07116C69.4297 5.68236 69.7473 4.05538 70.3956 3.17734C71.6527 1.11134 73.9022 0.0654297 77.1441 0.0654297C78.9172 0.0654297 80.7168 0.284942 82.609 0.749791Z" fill="#54B948"/>
<path d="M99.1877 7.08928V10.1624C99.1877 13.3906 97.9968 15.4953 95.6547 16.5025C94.4903 16.9673 93.1141 17.2256 91.4733 17.2256C87.9668 17.2256 85.6512 16.0893 84.5926 13.8683C84.103 12.9515 83.8516 11.8282 83.8516 10.4465V6.77938C83.8516 3.51252 85.2939 1.40779 88.1917 0.503912C89.1842 0.219837 90.1501 0.0390625 91.2749 0.0390625H91.7909C95.4959 0.0390625 97.7454 1.4207 98.7643 4.05484C99.0554 4.89416 99.1877 5.90133 99.1877 7.08928ZM92.7436 4.58426C92.4525 4.42931 92.0953 4.39057 91.7115 4.39057H91.3013C90.3618 4.39057 89.687 4.76503 89.3032 5.51395C89.2106 5.79803 89.1445 6.10793 89.1445 6.58569V10.7952C89.1445 12.2414 89.9119 12.9645 91.4601 12.9645H91.5924C92.8098 12.9645 93.5905 12.435 93.8816 11.402C93.8816 11.118 93.9081 10.8081 93.9081 10.3303V6.9085C93.9081 5.59143 93.5243 4.80377 92.7436 4.58426Z" fill="#54B948"/>
<path d="M126.012 7.21807V17.0057H120.68V6.27546C120.68 5.24246 120.19 4.60975 119.198 4.39024C118.007 4.17073 116.75 4.60975 115.89 5.0746V17.0057H110.544V6.27546C110.544 5.24246 110.054 4.60975 109.062 4.39024C108.744 4.36442 108.387 4.32568 108.03 4.36442C107.421 4.4548 106.654 4.58393 105.78 5.08752H105.741V17.0186H100.461V0.232425H103.875H104.814C104.881 0.322812 104.947 0.451937 105.013 0.542324C105.105 0.761836 105.238 0.981348 105.33 1.32998C105.648 1.17504 107.421 0.142037 110.001 0.0387374H110.292C111.708 0.0129125 113.058 0.193687 114.183 1.11047C114.209 1.11047 114.249 1.11047 114.275 1.1363C115.784 0.593974 117.65 0 119.714 0C122.77 0 124.663 0.787661 125.338 2.35007C125.787 3.00861 126.012 4.64849 126.012 7.21807Z" fill="#54B948"/>
<path d="M134.769 17.226C132.229 17.226 129.529 16.9161 128.206 16.6578L127.716 12.1643C128.907 12.4096 135.722 13.7267 136.397 12.1643C137.045 10.4986 131.342 10.8472 128.802 8.49715C127.518 7.39959 127.478 5.95339 127.584 4.85583C128.1 0.491411 132.348 0.142774 134.822 0.0523871C137.138 -0.0380002 139.414 0.246074 140.737 0.465586L141.213 4.89457C139.573 4.54593 133.817 3.66788 133.208 5.08825C132.467 6.77979 138.514 6.66358 140.803 8.7554C142.021 9.94335 142.06 11.2992 141.968 12.4613C141.465 16.7611 137.283 17.1356 134.769 17.226Z" fill="#54B948"/>
</svg>
