<svg width="127" height="32" viewBox="0 0 127 32" fill="none" xmlns="http://www.w3.org/2000/svg">
<path d="M107.523 19.0587V18.2587H106.96V18.5411H105.552V16.9882H105.927V17.4587H106.631V16.9882H106.96V17.3176H107.523V16.894H107.898V19.0587H107.523ZM105.88 19.8117V18.8235H106.256V19.4823H107.992V19.8117H105.88ZM106.631 17.7411H105.927V18.2117H106.631V17.7411ZM107.523 17.5999H106.96V17.9293H107.523V17.5999Z" fill="black"/>
<path d="M109.963 16.9882C109.963 17.1764 109.916 17.3646 109.87 17.5529C109.823 17.7411 109.729 17.8823 109.588 18.0235C109.447 18.1646 109.306 18.3058 109.166 18.3999C108.978 18.494 108.837 18.5882 108.649 18.6352C108.649 18.5882 108.602 18.5882 108.555 18.5411C108.508 18.494 108.462 18.447 108.415 18.3999C108.555 18.3529 108.696 18.3058 108.837 18.2587C108.978 18.2117 109.119 18.1176 109.212 18.0235C109.306 17.9293 109.4 17.8352 109.447 17.7411C109.494 17.647 109.541 17.5058 109.588 17.4117H108.602V17.0823H109.963V16.9882ZM109.119 19.7646C108.931 19.6705 108.837 19.4823 108.837 19.294C108.837 19.1058 108.931 18.9646 109.166 18.8235C109.353 18.7293 109.635 18.6823 109.916 18.6823C110.245 18.6823 110.48 18.7293 110.667 18.8235C110.855 18.9176 110.996 19.1058 110.996 19.294C110.996 19.4823 110.902 19.6705 110.667 19.7646C110.48 19.8587 110.198 19.9058 109.916 19.9058C109.541 19.9058 109.306 19.8587 109.119 19.7646ZM109.4 19.5293C109.541 19.5764 109.682 19.6235 109.87 19.6235C110.057 19.6235 110.245 19.5764 110.386 19.5293C110.527 19.4823 110.574 19.3882 110.574 19.294C110.574 19.1999 110.527 19.1058 110.386 19.0587C110.245 19.0117 110.104 18.9646 109.87 18.9646C109.682 18.9646 109.494 19.0117 109.4 19.0587C109.259 19.1058 109.212 19.1999 109.212 19.294C109.212 19.3882 109.259 19.4823 109.4 19.5293ZM110.527 18.6352V18.2117H109.963V17.9293H110.527V17.5529H110.057V17.2705H110.527V16.894H110.902V18.6823H110.527V18.6352Z" fill="black"/>
<path d="M111.324 18.3529V18.0235H113.296C113.343 17.9294 113.343 17.8353 113.39 17.647C113.436 17.5059 113.436 17.3647 113.436 17.2235H111.653V16.9412H113.812C113.812 17.1294 113.812 17.3176 113.765 17.5059C113.718 17.6941 113.718 17.8823 113.671 18.0235H114.094V18.3529H111.324ZM111.653 18.6823H113.718V19.8117H111.653V18.6823ZM113.39 18.9647H112.028V19.4823H113.39V18.9647Z" fill="black"/>
<path d="M115.548 18.0235C115.595 18.1646 115.642 18.2587 115.689 18.3999C115.736 18.5411 115.83 18.6352 115.924 18.7293C116.018 18.8235 116.159 18.9176 116.299 19.0117C116.252 19.0587 116.205 19.1058 116.159 19.1529C116.112 19.1999 116.065 19.247 116.018 19.294C115.971 19.247 115.877 19.1999 115.83 19.1529C115.783 19.1058 115.689 19.0587 115.642 18.9646C115.595 18.8705 115.501 18.8235 115.455 18.7293C115.408 18.6352 115.361 18.5882 115.314 18.494C115.267 18.5882 115.267 18.6352 115.173 18.7293C115.126 18.8235 115.079 18.8705 114.985 18.9646C114.938 19.0587 114.844 19.1058 114.751 19.1999C114.657 19.247 114.61 19.3411 114.516 19.3882C114.469 19.3411 114.422 19.294 114.375 19.294C114.328 19.247 114.281 19.1999 114.187 19.1529C114.328 19.0587 114.422 18.9646 114.563 18.8705C114.657 18.7764 114.751 18.6352 114.844 18.5411C114.891 18.447 114.938 18.3058 114.985 18.1646C115.032 18.0235 115.032 17.8823 115.032 17.694V17.4587H114.516V17.1293H116.112V17.4587H115.501V17.7411C115.501 17.7882 115.501 17.9293 115.548 18.0235ZM116.534 16.894H116.909V19.8587H116.534V16.894Z" fill="black"/>
<path d="M118.693 4.09424H103.956C103.158 4.09424 102.548 4.706 102.548 5.506V19.906C102.548 20.706 103.158 21.3178 103.956 21.3178H118.693C119.491 21.3178 120.101 20.706 120.101 19.906V5.506C120.101 4.75306 119.491 4.09424 118.693 4.09424ZM118.693 20.7531H103.956C103.487 20.7531 103.111 20.3766 103.111 19.906V16.0942H119.491V19.906C119.538 20.3766 119.162 20.7531 118.693 20.7531Z" fill="black"/>
<path d="M119.35 15.153L115.032 12.3294C115.079 12.2353 115.126 12.1412 115.173 12C115.408 11.4824 115.548 10.8706 115.548 10.2588C115.548 9.78825 115.501 9.36472 115.361 8.98825L116.159 8.56472C116.205 8.51766 116.252 8.4706 116.252 8.37648C116.252 8.28237 116.205 8.23531 116.112 8.23531L114.093 7.6706C114 7.62354 113.906 7.71766 113.859 7.81178L113.296 9.83531C113.296 9.92943 113.296 9.97648 113.343 10.0235C113.389 10.0706 113.483 10.0706 113.577 10.0235L114.281 9.64707C114.328 9.88237 114.375 10.0706 114.375 10.3059C114.375 10.7765 114.281 11.2 114.14 11.5765C114.14 11.6235 114.093 11.6706 114.093 11.6706L108.696 8.09413C108.743 8.04707 108.79 8.00001 108.837 7.95296C109.119 7.6706 109.494 7.43531 109.87 7.24707C110.245 7.05884 110.667 7.01178 111.137 7.01178C111.184 7.01178 111.231 7.01178 111.278 6.96472C111.324 6.91766 111.324 6.8706 111.324 6.82354V5.97648C111.324 5.92943 111.324 5.88237 111.278 5.83531C111.231 5.78825 111.184 5.78825 111.137 5.78825C110.527 5.78825 109.916 5.92943 109.4 6.16472C108.884 6.40001 108.368 6.72943 107.992 7.1059C107.898 7.20001 107.804 7.29413 107.711 7.43531L103.862 4.89413C103.721 4.80001 103.627 4.80001 103.581 4.84707L103.393 5.08237C103.346 5.12943 103.44 5.22354 103.534 5.31766L107.382 7.85884C107.241 8.09413 107.101 8.32943 107.007 8.56472C106.772 9.08237 106.631 9.69413 106.631 10.3059C106.631 10.9177 106.772 11.5294 107.007 12.0471C107.241 12.5647 107.57 13.0824 107.992 13.4588C108.415 13.8824 108.884 14.2118 109.4 14.4C109.916 14.6353 110.527 14.7294 111.137 14.7294C111.747 14.7294 112.357 14.5882 112.873 14.353C113.389 14.1177 113.906 13.7882 114.281 13.4118C114.469 13.2235 114.657 12.9882 114.844 12.753L119.115 15.5765C119.256 15.6706 119.35 15.6706 119.397 15.6235L119.585 15.3882C119.538 15.3412 119.491 15.2471 119.35 15.153ZM113.389 12.6118C113.108 12.8941 112.732 13.1294 112.357 13.3177C111.982 13.4588 111.559 13.553 111.09 13.553C110.62 13.553 110.198 13.4588 109.823 13.3177C109.447 13.1765 109.072 12.8941 108.79 12.6118C108.508 12.3294 108.274 11.953 108.086 11.5765C107.898 11.2 107.851 10.7765 107.851 10.3059C107.851 9.83531 107.945 9.41178 108.086 9.03531C108.18 8.84707 108.227 8.7059 108.368 8.51766L113.812 12.0941C113.671 12.2824 113.53 12.4235 113.389 12.6118Z" fill="white"/>
<path d="M124.137 0H2.8629C1.26718 0 0 1.27059 0 2.87059V32H127V24.7529V24.7059V2.87059C127 1.27059 125.686 0 124.137 0ZM1.22025 2.87059C1.22025 1.92941 1.97118 1.17647 2.90983 1.17647H53.6911V24.0941H1.22025V2.87059ZM125.78 24.1412H54.8174V1.22353H124.137C125.076 1.22353 125.78 1.97647 125.78 2.91765V24.1412Z" fill="black"/>
<path d="M64.861 18.4472V18.6825H65.7058V19.3883H64.0162V19.5766H65.7528V19.8589H63.5938V19.1531H65.2834V18.9648H63.5938V18.7295H64.4386V18.4942H63.2653V18.2119H66.0343V18.4942H64.861V18.4472ZM65.0957 17.6001C65.1426 17.6472 65.2365 17.6472 65.3304 17.6942C65.4242 17.7413 65.5181 17.7413 65.612 17.7413C65.7058 17.7413 65.7997 17.7883 65.8935 17.7883C65.8466 17.8354 65.8466 17.8825 65.7997 17.9295C65.7528 17.9766 65.7058 18.0236 65.7058 18.0707C65.612 18.0707 65.5181 18.0236 65.4242 18.0236C65.3304 18.0236 65.2365 17.9766 65.1426 17.9295C65.0488 17.8825 64.9549 17.8354 64.861 17.7883C64.7672 17.7413 64.7202 17.6942 64.6733 17.6472C64.6264 17.6942 64.5794 17.7413 64.4856 17.7883C64.3917 17.8354 64.3448 17.8825 64.2509 17.8825C64.157 17.9295 64.0632 17.9295 63.9693 17.9766C63.8754 18.0236 63.7816 18.0236 63.6408 18.0236C63.5939 17.9766 63.5938 17.9295 63.5469 17.8825C63.5 17.8354 63.453 17.7883 63.453 17.7413C63.5469 17.7413 63.6408 17.7413 63.7816 17.6942C63.8754 17.6942 63.9693 17.6472 64.0632 17.6472C64.157 17.6001 64.204 17.6001 64.2978 17.5531C64.3448 17.506 64.3917 17.4589 64.4386 17.4589H63.6408V17.2236H65.7997V17.4589H65.0018C64.9549 17.553 65.0018 17.6001 65.0957 17.6001ZM64.0632 16.8472H65.2365V17.0825H64.0632V16.8472Z" fill="black"/>
<path d="M67.5362 18.2587C67.5832 18.3529 67.6301 18.447 67.677 18.5411C67.724 18.6352 67.8178 18.7293 67.9117 18.8235C68.0056 18.9176 68.0994 18.9646 68.1933 19.0117C68.1464 19.0587 68.0994 19.1058 68.0525 19.1529C68.0056 19.1999 67.9586 19.247 67.9586 19.294C67.9117 19.247 67.8178 19.1999 67.7709 19.1529C67.724 19.1058 67.6301 19.0587 67.5832 18.9646C67.5362 18.9176 67.4893 18.8235 67.4424 18.7764C67.3954 18.7293 67.3485 18.6352 67.3016 18.5411C67.2546 18.6352 67.2077 18.6823 67.1608 18.7764C67.1138 18.8705 67.0669 18.9176 66.973 19.0117C66.9261 19.0587 66.8792 19.1529 66.7853 19.1999C66.7384 19.247 66.6445 19.294 66.5506 19.3411C66.5037 19.294 66.4568 19.247 66.4098 19.247C66.3629 19.1999 66.316 19.1529 66.269 19.1058C66.3629 19.0587 66.5037 18.9646 66.5976 18.9176C66.6914 18.8235 66.7853 18.7293 66.8322 18.6352C66.9261 18.5411 66.973 18.447 67.02 18.3058C67.0669 18.2117 67.0669 18.0705 67.0669 17.9293V17.7882H66.4568V17.4587H68.0994V17.7882H67.4893V17.9293C67.4893 18.0235 67.4893 18.1646 67.5362 18.2587ZM66.8322 16.9411H67.7709V17.2235H66.8322V16.9411ZM68.5218 19.8587V18.3999H67.9586V18.0705H68.5218V16.894H68.8973V19.8587H68.5218Z" fill="black"/>
<path d="M69.2258 19.5295V19.2H69.8828V18.5883H70.2583V19.2H71.0092V18.5883H71.3378V19.2H71.9948V19.5295H69.2258ZM69.4604 18.4942V18.1648H69.8828V17.3177H69.5543V16.9883H71.7132V17.3177H71.3847V18.1648H71.8071V18.4942H69.4604ZM70.2114 18.1648H71.0092V17.3177H70.2114V18.1648Z" fill="black"/>
<path d="M73.4028 18.0705C73.4497 18.2117 73.4967 18.3058 73.5436 18.3999C73.6375 18.5411 73.6844 18.6352 73.8252 18.7293C73.9191 18.8235 74.0599 18.9176 74.1537 19.0117C74.1068 19.0587 74.0599 19.1058 74.0129 19.1529C73.966 19.1999 73.9191 19.247 73.8721 19.247C73.8252 19.1999 73.7314 19.1529 73.6844 19.1058C73.6375 19.0587 73.5436 18.9646 73.4967 18.9176C73.4498 18.8235 73.3559 18.7764 73.309 18.6823C73.262 18.5882 73.2151 18.5411 73.1682 18.447C73.1682 18.5411 73.1212 18.5882 73.0743 18.6823C73.0274 18.7764 72.9804 18.8235 72.8866 18.9176C72.8396 19.0117 72.7458 19.0587 72.6988 19.1529C72.605 19.1999 72.558 19.294 72.5111 19.3411C72.4642 19.294 72.4172 19.247 72.3703 19.247C72.3234 19.1999 72.2764 19.1529 72.2295 19.1058C72.3703 19.0117 72.4642 18.9176 72.605 18.8235C72.6988 18.7293 72.7927 18.5882 72.8866 18.494C72.9335 18.3999 72.9804 18.2587 73.0274 18.1176C73.0743 17.9764 73.0743 17.8352 73.0743 17.694V17.0352H73.4498V17.694C73.3559 17.7882 73.3559 17.9293 73.4028 18.0705ZM74.4353 16.894H74.8108V19.8587H74.4353V16.894Z" fill="black"/>
<path d="M76.5942 4.09424H61.8574C61.0595 4.09424 60.4494 4.706 60.4494 5.506V19.906C60.4494 20.706 61.1064 21.3178 61.8574 21.3178H76.5942C77.3921 21.3178 78.0022 20.706 78.0022 19.906V5.506C78.0492 4.75306 77.3921 4.09424 76.5942 4.09424ZM76.5942 20.7531H61.8574C61.388 20.7531 61.0126 20.3766 61.0126 19.906V16.0942H77.439V19.906C77.439 20.3766 77.0636 20.7531 76.5942 20.7531Z" fill="black"/>
<path d="M83.9627 17.5999C84.0096 17.694 84.0566 17.7882 84.1504 17.8823C84.1974 17.9764 84.2912 18.0235 84.3851 18.0705C84.479 18.1176 84.5728 18.1646 84.6667 18.2117C84.6197 18.2587 84.5728 18.3058 84.5259 18.3529C84.479 18.3999 84.432 18.447 84.432 18.494C84.3851 18.447 84.3382 18.447 84.2443 18.3999C84.1974 18.3529 84.1035 18.3058 84.0566 18.2587C84.0096 18.2117 83.9158 18.1646 83.8688 18.0705C83.8219 18.0235 83.775 17.9293 83.728 17.8823C83.728 17.9293 83.6811 18.0235 83.6342 18.0705C83.5872 18.1176 83.5403 18.2117 83.4464 18.2587C83.3995 18.3058 83.3056 18.3529 83.2587 18.447C83.1648 18.494 83.1179 18.5411 83.071 18.5882C83.024 18.5411 82.9771 18.494 82.9302 18.447C82.8832 18.3999 82.8363 18.3529 82.7894 18.3058C82.8832 18.2587 83.024 18.1646 83.1179 18.1176C83.2118 18.0235 83.3056 17.9764 83.3995 17.8352C83.4464 17.7411 83.4934 17.694 83.5403 17.5999C83.5872 17.5058 83.5872 17.4117 83.5872 17.3176V16.9411H83.9627V17.2705C83.8688 17.3646 83.9158 17.5058 83.9627 17.5999ZM85.0421 18.8705C85.2299 18.9646 85.3237 19.1529 85.3237 19.294C85.3237 19.4823 85.2299 19.6235 85.0891 19.7176C84.9013 19.8117 84.6667 19.9058 84.2912 19.9058C83.9627 19.9058 83.6811 19.8587 83.4934 19.7176C83.3056 19.6235 83.2118 19.4352 83.2118 19.294C83.2118 19.1058 83.3056 18.9646 83.4934 18.8705C83.6811 18.7764 83.9158 18.6823 84.2912 18.6823C84.6197 18.6823 84.9013 18.7293 85.0421 18.8705ZM83.775 19.5293C83.9158 19.5764 84.0566 19.6235 84.2912 19.6235C84.479 19.6235 84.6667 19.5764 84.7605 19.5293C84.8544 19.4823 84.9483 19.3882 84.9483 19.294C84.9483 19.1999 84.9013 19.1058 84.7605 19.0587C84.6197 19.0117 84.479 18.9646 84.2912 18.9646C84.1035 18.9646 83.9158 19.0117 83.8219 19.0587C83.6811 19.1058 83.6342 19.1999 83.6342 19.294C83.5872 19.3882 83.6811 19.4823 83.775 19.5293ZM85.2299 16.894V17.5529H85.6053V17.8823H85.2299V18.6823H84.8544V16.894H85.2299Z" fill="black"/>
<path d="M87.9519 18.4472V17.7883H87.4357C87.3888 17.9766 87.2949 18.1178 87.1541 18.2119C87.0133 18.306 86.8725 18.3531 86.6378 18.3531C86.4032 18.3531 86.2154 18.2589 86.0746 18.1178C85.9338 17.9766 85.84 17.7883 85.84 17.6001C85.84 17.4119 85.9338 17.2236 86.0746 17.0825C86.2154 16.9413 86.4032 16.8472 86.6378 16.8472C86.8256 16.8472 87.0133 16.8942 87.1541 17.0354C87.2949 17.1295 87.3888 17.2707 87.4357 17.4589H87.9519V16.8472H88.3274V18.4472H87.9519ZM86.3562 17.9766C86.4501 18.0707 86.544 18.1178 86.6848 18.1178C86.8256 18.1178 86.9194 18.0707 87.0133 17.9766C87.1072 17.8825 87.1072 17.7883 87.1072 17.6942C87.1072 17.553 87.0602 17.4589 87.0133 17.4119C86.9194 17.3178 86.8256 17.2707 86.6848 17.2707C86.544 17.2707 86.4501 17.3178 86.3562 17.4119C86.2624 17.506 86.2624 17.6001 86.2624 17.6942C86.2624 17.7883 86.3093 17.8825 86.3562 17.9766ZM86.3093 19.8119V18.5883H86.6378V18.9178H87.9519V18.5883H88.3274V19.8119H86.3093ZM87.9519 19.2001H86.6378V19.5295H87.9519V19.2001Z" fill="black"/>
<path d="M88.7968 18.5882V18.2587H89.5007V17.8823C89.3599 17.8352 89.2661 17.7882 89.1722 17.694C89.0784 17.5999 89.0784 17.5058 89.0784 17.4117C89.0784 17.2705 89.1722 17.1293 89.3599 17.0352C89.5477 16.9411 89.8293 16.894 90.1578 16.894C90.4863 16.894 90.7679 16.9411 90.9557 17.0352C91.1434 17.1293 91.2373 17.2705 91.2373 17.4587C91.2373 17.5529 91.1903 17.647 91.1434 17.7411C91.0495 17.8352 90.9557 17.8823 90.8149 17.9293V18.3058H91.5189V18.6352H88.7968V18.5882ZM89.3599 18.9646C89.5477 18.8705 89.8293 18.8235 90.2047 18.8235C90.5802 18.8235 90.8618 18.8705 91.0495 18.9646C91.2373 19.0587 91.3311 19.1999 91.3311 19.3882C91.3311 19.5293 91.2373 19.6705 91.0495 19.7646C90.8618 19.8587 90.5802 19.9058 90.2047 19.9058C89.8293 19.9058 89.5946 19.8587 89.3599 19.7646C89.1722 19.6705 89.0784 19.5293 89.0784 19.3882C89.0784 19.1999 89.1722 19.0587 89.3599 18.9646ZM89.6415 19.5764C89.7823 19.6235 89.9231 19.6705 90.1578 19.6705C90.3455 19.6705 90.5333 19.6235 90.6741 19.5764C90.8149 19.5293 90.8618 19.4352 90.8618 19.3882C90.8618 19.294 90.8149 19.247 90.6741 19.1529C90.5333 19.1058 90.3925 19.0587 90.1578 19.0587C89.9231 19.0587 89.7823 19.1058 89.6415 19.1529C89.5007 19.1999 89.4538 19.294 89.4538 19.3411C89.4538 19.4352 89.5477 19.5293 89.6415 19.5764ZM89.6885 17.647C89.8293 17.694 89.9701 17.7411 90.2047 17.7411C90.3925 17.7411 90.5802 17.694 90.721 17.647C90.8618 17.5999 90.9087 17.5529 90.9087 17.4587C90.9087 17.3646 90.8618 17.3176 90.721 17.2705C90.5802 17.2235 90.4394 17.1764 90.2517 17.1764C90.0639 17.1764 89.8762 17.2235 89.7823 17.2705C89.6415 17.3176 89.5946 17.4117 89.5946 17.4587C89.5946 17.5058 89.5477 17.5529 89.6885 17.647ZM90.4863 17.9764C90.4394 17.9764 90.3925 17.9764 90.3455 17.9764C90.2986 17.9764 90.2517 17.9764 90.2047 17.9764C90.1578 17.9764 90.1109 17.9764 90.0639 17.9764C90.017 17.9764 89.9701 17.9764 89.9231 17.9764V18.3058H90.5333V17.9764H90.4863Z" fill="black"/>
<path d="M91.7535 18.3529V18.0235H93.7247C93.7716 17.9294 93.7716 17.8353 93.8185 17.647C93.8655 17.5059 93.8655 17.3647 93.8655 17.2235H92.082V16.9412H94.2409C94.2409 17.1294 94.2409 17.3176 94.194 17.5059C94.1471 17.6941 94.1471 17.8823 94.1001 18.0235H94.5225V18.3529H91.7535ZM92.129 18.6823H94.194V19.8117H92.129V18.6823ZM93.8185 18.9647H92.4575V19.4823H93.8185V18.9647Z" fill="black"/>
<path d="M95.9775 18.0235C96.0244 18.1646 96.0713 18.2587 96.1183 18.3999C96.1652 18.5411 96.259 18.6352 96.3529 18.7293C96.4468 18.8235 96.5876 18.9176 96.7284 19.0117C96.6814 19.0587 96.6345 19.1058 96.5876 19.1529C96.5406 19.1999 96.4937 19.247 96.4468 19.294C96.3998 19.247 96.306 19.1999 96.2591 19.1529C96.2121 19.1058 96.1182 19.0587 96.0713 18.9646C96.0244 18.8705 95.9305 18.8235 95.8836 18.7293C95.8367 18.6352 95.7897 18.5882 95.7428 18.494C95.6959 18.5882 95.6959 18.6823 95.6489 18.7293C95.602 18.8235 95.5551 18.8705 95.4612 18.9646C95.4143 19.0587 95.3204 19.1058 95.2265 19.1999C95.1327 19.247 95.0857 19.3411 94.9919 19.3882C94.9449 19.3411 94.898 19.294 94.8511 19.294C94.8041 19.247 94.7572 19.1999 94.6633 19.1529C94.8041 19.0587 94.898 18.9646 95.0388 18.8705C95.1327 18.7764 95.2265 18.6352 95.3204 18.5411C95.3673 18.3999 95.4143 18.3058 95.4612 18.1646C95.5081 18.0235 95.5081 17.8823 95.5081 17.694V17.4587H94.898V17.1293H96.4937V17.4587H95.8836V17.7411C95.9775 17.7882 95.9775 17.9293 95.9775 18.0235ZM97.01 16.894H97.3854V19.8587H97.01V16.894Z" fill="black"/>
<path d="M97.667 4.09424H82.9301C82.1323 4.09424 81.5222 4.706 81.5222 5.506V19.906C81.5222 20.706 82.1323 21.3178 82.9301 21.3178H97.667C98.4649 21.3178 99.075 20.706 99.075 19.906V5.506C99.075 4.75306 98.4179 4.09424 97.667 4.09424ZM97.667 20.7531H82.9301C82.4608 20.7531 82.0853 20.3766 82.0853 19.906V16.0942H98.4649V19.906C98.4649 20.3766 98.1363 20.7531 97.667 20.7531Z" fill="black"/>
<path d="M98.3241 15.1529L93.9594 12.2823C94.0532 11.9058 94.1471 11.5294 94.1471 11.1529C94.1471 9.41172 92.9738 7.90584 91.3781 7.43525L92.1759 6.07054C92.2229 5.97642 92.2229 5.88231 92.1759 5.78819C92.129 5.69407 92.0351 5.64701 91.9413 5.64701H88.656C88.5621 5.64701 88.4682 5.69407 88.4213 5.78819C88.3744 5.88231 88.3744 5.97642 88.4213 6.07054L89.2192 7.43525C88.7029 7.57642 88.2336 7.85878 87.8112 8.18819L82.7894 4.84701C82.6486 4.7529 82.5547 4.75289 82.5078 4.79995L82.32 5.03525C82.2731 5.08231 82.367 5.17642 82.4608 5.27054L87.3888 8.5176C86.7787 9.22348 86.4032 10.1176 86.4032 11.1058C86.4032 13.2235 88.1397 14.9647 90.2986 14.9647C91.8474 14.9647 93.2084 14.0235 93.8186 12.7058L98.0894 15.5294C98.2302 15.6235 98.3241 15.6235 98.371 15.5764L98.5588 15.3411C98.5118 15.3411 98.418 15.247 98.3241 15.1529Z" fill="white"/>
<path d="M91.9882 10.9648L92.3636 9.6001H91.8004L91.425 10.9648H90.9087L90.7679 10.4472L90.5802 9.6001H90.017L89.6415 10.9648H89.1253L88.7498 9.6001H88.1866L88.5151 10.9648H87.7173V11.4825H88.6559L89.0314 12.9883H89.5946L89.6885 12.6119L90.017 11.4825H90.4863L90.721 12.4236L90.8618 12.9883H91.425L91.8474 11.4825H92.833V10.9648H91.9882ZM89.5007 11.4825C89.4538 11.7177 89.4069 11.906 89.3599 12.0942C89.313 11.906 89.2661 11.6707 89.2191 11.4825H89.5007ZM90.1578 10.9648C90.2047 10.8236 90.2517 10.6354 90.2517 10.4942C90.2986 10.6354 90.2986 10.7766 90.3455 10.9648H90.1578ZM91.2842 11.4825C91.2373 11.6707 91.1903 11.906 91.1434 12.0942C91.0965 11.906 91.0495 11.6707 91.0026 11.4825H91.2842Z" fill="black"/>
<path d="M72.6519 12.8472C72.3703 10.8236 71.4786 9.74127 70.6807 9.22363C71.0562 8.84716 71.3378 8.32951 71.3378 7.71774C71.3378 6.54127 70.3991 5.6001 69.2258 5.6001C68.0525 5.6001 67.1138 6.54127 67.1138 7.71774C67.1138 8.32951 67.3485 8.84716 67.7709 9.22363C66.973 9.74127 66.0813 10.7766 65.7997 12.8472C65.7528 13.1295 65.7528 13.4119 65.7528 13.6472C65.7528 13.8825 65.7528 14.1177 65.7997 14.353C65.8466 14.6354 66.0813 14.8236 66.3629 14.8236H72.0887C72.3703 14.8236 72.605 14.6354 72.6519 14.353C72.6988 14.1648 72.6988 13.9295 72.6988 13.6472C72.6988 13.4119 72.6519 13.1295 72.6519 12.8472Z" fill="white"/>
<path d="M27.9719 8.42343C27.6903 7.95284 27.3618 7.57637 26.8925 7.29402C26.4701 7.01166 25.9538 6.82343 25.3906 6.72931C24.8274 6.63519 24.2642 6.58813 23.6541 6.58813H19.2893C19.2424 6.58813 19.1486 6.63519 19.1016 6.68225C19.0547 6.72931 19.0078 6.82343 19.0078 6.87049V18.5411C19.0078 18.5881 19.0547 18.6823 19.1016 18.7293C19.1486 18.7764 19.2424 18.8234 19.2893 18.8234H20.8381C20.932 18.8234 20.9789 18.7764 21.0259 18.7293C21.0728 18.6823 21.1197 18.5881 21.1197 18.5411V14.1175H23.7949C25.2498 14.1175 26.4231 13.7881 27.221 13.1293C28.0188 12.4705 28.4412 11.4823 28.4412 10.2117C28.3943 9.55284 28.2535 8.94108 27.9719 8.42343ZM23.7949 12.1881H21.0728V8.47049H23.701C24.0765 8.47049 24.405 8.51755 24.7335 8.56461C25.0621 8.61166 25.2967 8.70578 25.5314 8.84696C25.7661 8.98813 25.9069 9.12931 26.0477 9.36461C26.1885 9.5999 26.2354 9.88225 26.2354 10.3058C26.2354 10.6352 26.1885 10.9175 26.0946 11.1528C26.0007 11.3881 25.8599 11.5764 25.6722 11.7175C25.4845 11.8587 25.2498 11.9999 24.9213 12.094C24.6397 12.1411 24.2642 12.1881 23.7949 12.1881Z" fill="black"/>
<path d="M38.5787 16.9413C38.5318 16.8942 38.4379 16.8471 38.391 16.8471H31.5388V13.4118H37.7339C37.8278 13.4118 37.8747 13.3648 37.9216 13.3177C37.9686 13.2707 38.0155 13.2236 38.0155 13.1295V11.7177C38.0155 11.6707 37.9686 11.5766 37.9216 11.5295C37.8747 11.4824 37.8278 11.4354 37.7339 11.4354H31.4919V8.42361H38.1094C38.2032 8.42361 38.2502 8.37655 38.2971 8.3295C38.344 8.28244 38.391 8.23538 38.391 8.14126V6.7295C38.391 6.68244 38.344 6.58832 38.2971 6.54126C38.2971 6.58832 38.2032 6.58832 38.1563 6.58832H29.7084C29.6145 6.58832 29.5676 6.63538 29.5207 6.68244C29.4738 6.7295 29.4268 6.82361 29.4268 6.87067V18.5413C29.4268 18.5883 29.4738 18.6824 29.5207 18.7295C29.5676 18.7766 29.6145 18.8236 29.7084 18.8236H38.391C38.4848 18.8236 38.5318 18.7766 38.5787 18.7295C38.6256 18.6824 38.6726 18.5883 38.6726 18.5413V17.1295C38.6726 17.0354 38.6256 16.9883 38.5787 16.9413Z" fill="black"/>
<path d="M49.514 6.63538C49.4671 6.58832 49.3732 6.54126 49.3263 6.54126H47.8245C47.7306 6.54126 47.6837 6.58832 47.6367 6.63538C47.5898 6.68244 47.5429 6.77655 47.5429 6.82361V15.153L41.9579 6.68244C41.9109 6.58832 41.8171 6.54126 41.7232 6.54126H40.1275C40.0806 6.54126 39.9867 6.58832 39.9398 6.63538C39.8928 6.68244 39.8928 6.77655 39.8928 6.82361V18.4942C39.8928 18.5413 39.9398 18.6354 39.9867 18.6824C40.0336 18.7295 40.0806 18.7766 40.1744 18.7766H41.6293C41.7232 18.7766 41.7701 18.7295 41.8171 18.6824C41.864 18.6354 41.9109 18.5413 41.9109 18.4942V10.2118L47.5429 18.6824C47.5898 18.7766 47.6837 18.8236 47.7775 18.8236H49.3732C49.4671 18.8236 49.514 18.7766 49.561 18.7295C49.6079 18.6824 49.6548 18.5883 49.6548 18.5413V6.82361C49.561 6.77655 49.561 6.68244 49.514 6.63538Z" fill="black"/>
<path d="M10.9353 7.62344C13.3289 7.62344 15.3001 9.41168 15.6755 11.7176C16.4734 11.8587 17.1774 12.047 17.6936 12.2823C17.6936 12.1411 17.6936 12.047 17.6936 12.047C17.5059 8.4705 14.5491 5.64697 10.9353 5.64697C7.36843 5.64697 4.4586 8.42344 4.22394 11.9529C4.22394 12.1881 4.36474 12.6117 5.02179 12.9411H4.97486C5.63192 13.3176 6.66444 13.7411 7.88469 13.7411C8.77641 13.7411 9.99667 13.5058 11.0292 12.7999C11.7332 12.3293 12.531 11.8587 13.4228 11.8587C13.7044 11.8587 13.939 11.9058 14.2206 11.9529C14.3145 11.9529 14.3614 11.9999 14.4553 11.9999C14.4553 11.9999 14.6899 12.1411 14.7369 11.9529C14.7838 11.8587 14.7369 11.7646 14.6899 11.7176C14.5961 11.5764 14.4083 11.4352 14.2675 11.3411C14.0798 11.1999 13.8451 11.1058 13.6574 11.0587C13.1412 10.9176 12.6249 10.9646 12.1086 11.0587C11.5924 11.1529 11.0761 11.3411 10.6068 11.5764C9.80893 11.9529 8.91721 12.094 8.40095 12.094C7.55616 12.094 7.0399 11.7176 6.71137 11.3411C6.61751 11.1999 6.52364 11.0587 6.42978 10.9646C6.99297 9.08227 8.77641 7.62344 10.9353 7.62344Z" fill="#00B193"/>
<path d="M15.7694 12.5176C15.7694 12.6588 15.7694 12.7529 15.7694 12.847C15.5817 15.3411 13.5166 17.3176 10.9823 17.3176C8.91721 17.3176 7.22764 16.1882 6.57058 14.3529C6.10125 14.2588 4.97487 13.9293 4.27087 13.3646C4.5994 16.7999 7.50923 19.247 10.9823 19.247C14.5022 19.247 17.3651 16.5646 17.6936 13.1293C17.0835 12.7999 16.3795 12.6117 15.7694 12.5176Z" fill="black"/>
<path d="M23.8888 27.6234H21.8706V26.7764H21.3075V27.6234H19.8056V28.094H23.9357L23.8888 27.6234C23.9357 27.6705 23.9357 27.6705 23.8888 27.6234C23.9357 27.6234 23.8888 27.6234 23.8888 27.6234ZM23.0909 28.7529C22.8093 28.5646 22.3869 28.4705 21.8237 28.4705C21.3075 28.4705 20.8851 28.5646 20.6035 28.7529C20.3219 28.9411 20.1811 29.1764 20.1811 29.4587C20.1811 29.7411 20.3219 29.9764 20.6035 30.1646C20.8851 30.3529 21.3075 30.447 21.8237 30.447C22.3869 30.447 22.7624 30.3529 23.0909 30.1646C23.3725 29.9764 23.5133 29.7411 23.5133 29.4587C23.5133 29.1764 23.3725 28.9411 23.0909 28.7529ZM22.5746 29.8352C22.3869 29.9293 22.1522 29.9764 21.8237 29.9764C21.4952 29.9764 21.2605 29.9293 21.0728 29.8352C20.8851 29.7411 20.7912 29.647 20.7912 29.4587C20.7912 29.3176 20.8851 29.1764 21.0728 29.1293C21.2605 29.0352 21.4952 28.9881 21.8237 28.9881C22.1522 28.9881 22.3869 29.0352 22.5746 29.1293C22.7624 29.2234 22.8562 29.3176 22.8562 29.4587C22.8562 29.647 22.7624 29.7411 22.5746 29.8352ZM20.228 26.3058H22.9032C22.9032 26.494 22.9032 26.6352 22.8562 26.8234C22.8093 27.0117 22.8093 27.1999 22.7624 27.3411C22.7624 27.3411 22.7624 27.3411 22.7624 27.3881C22.7624 27.3881 22.7624 27.3881 22.8093 27.3881H23.3256C23.3256 27.3881 23.3725 27.3881 23.3725 27.3411C23.4194 27.1058 23.4664 26.8705 23.4664 26.5881C23.5133 26.3529 23.5133 26.0234 23.5133 25.7411H20.2749C20.2749 25.7411 20.2749 25.7411 20.228 25.7411V26.3058C20.1811 26.3058 20.1811 26.3058 20.228 26.3058ZM24.6866 26.3058H27.3618C27.3618 26.494 27.3618 26.6352 27.3148 26.8234C27.2679 27.0117 27.2679 27.1999 27.221 27.3411C27.221 27.3411 27.221 27.3411 27.221 27.3881C27.221 27.3881 27.221 27.3881 27.2679 27.3881H27.7842C27.7842 27.3881 27.8311 27.3881 27.8311 27.3411C27.878 27.1058 27.925 26.8705 27.925 26.5881C27.9719 26.3529 27.9719 26.0234 27.9719 25.7411H24.7335L24.6866 26.3058C24.6397 26.3058 24.6397 26.3058 24.6866 26.3058C24.6397 26.3058 24.6397 26.3058 24.6866 26.3058ZM27.5026 28.7529C27.221 28.5646 26.7986 28.4705 26.2354 28.4705C25.7191 28.4705 25.2967 28.5646 25.0151 28.7529C24.7335 28.9411 24.5927 29.1764 24.5927 29.4587C24.5927 29.7411 24.7335 29.9764 25.0151 30.1646C25.2967 30.3529 25.7191 30.447 26.2354 30.447C26.7516 30.447 27.174 30.3529 27.4556 30.1646C27.7372 29.9764 27.878 29.7411 27.878 29.4587C27.9719 29.1764 27.7842 28.9411 27.5026 28.7529ZM27.0332 29.8352C26.8455 29.9293 26.6109 29.9764 26.2823 29.9764C25.9538 29.9764 25.7191 29.9293 25.5314 29.8352C25.3437 29.7411 25.2498 29.647 25.2498 29.4587C25.2498 29.3176 25.3437 29.1764 25.5314 29.1293C25.7191 29.0352 25.9538 28.9881 26.2823 28.9881C26.6109 28.9881 26.8455 29.0352 27.0332 29.1293C27.221 29.2234 27.3148 29.3176 27.3148 29.4587C27.3148 29.647 27.221 29.7411 27.0332 29.8352ZM28.3474 27.6234H26.3293V26.7764H25.7661V27.6234H24.2642V28.094H28.3943L28.3474 27.6234C28.3943 27.6705 28.3474 27.6705 28.3474 27.6234ZM29.1452 27.6705H32.3836V27.1999H29.7553V25.8823H29.2391L29.1452 27.6705ZM32.759 28.1882H28.629V28.6587H30.3655V30.2117H30.9756V28.6587H32.7121L32.759 28.1882C32.806 28.2352 32.806 28.2352 32.759 28.1882C32.806 28.2352 32.806 28.1882 32.759 28.1882ZM36.0913 28.5646C35.9505 28.6117 35.7158 28.6117 35.4342 28.6587C35.1526 28.7058 34.871 28.7058 34.6833 28.7058H34.0262V27.8117H35.5281V25.9293H33.463V26.3999H34.9649V27.294H33.463V29.2234C33.463 29.2234 33.6038 29.2234 33.9324 29.2234C34.2609 29.2234 34.4486 29.2234 34.4956 29.2234C34.7771 29.2234 35.1057 29.1764 35.3873 29.1764C35.7158 29.1293 35.9035 29.1293 36.0913 29.0823C36.0913 29.0823 36.1382 29.0823 36.1382 29.0352L36.0913 28.5646C36.1382 28.6117 36.1382 28.6117 36.0913 28.5646C36.1382 28.5646 36.0913 28.5646 36.0913 28.5646ZM36.8891 25.647C36.8891 25.647 36.8422 25.647 36.8891 25.647H36.3259V30.3058H36.8422L36.8891 25.647Z" fill="white"/>
<path d="M61.5757 28.0941V27.7647H63.0307V26.9177H63.4061V27.7647H65.3304V28.0941H61.5757ZM62.3267 29.8353C62.092 29.6941 61.9512 29.5059 61.9512 29.2706C61.9512 29.0353 62.092 28.8471 62.3267 28.7059C62.5613 28.5647 62.9368 28.4706 63.4061 28.4706C63.8755 28.4706 64.2509 28.5647 64.4856 28.7059C64.7202 28.8471 64.861 29.0353 64.861 29.2706C64.861 29.5059 64.7202 29.6941 64.4856 29.8353C64.2509 29.9765 63.8755 30.0706 63.4061 30.0706C62.9368 30.0706 62.6083 29.9765 62.3267 29.8353ZM64.861 26.1177C64.861 26.353 64.861 26.6353 64.8141 26.8706C64.7672 27.1059 64.7202 27.3412 64.7202 27.5294H64.3448C64.3917 27.3883 64.3917 27.2 64.4386 27.0118C64.4856 26.8236 64.4856 26.6353 64.4856 26.4471H61.9981V26.1177H64.861ZM62.6552 29.6471C62.8429 29.7412 63.1245 29.7883 63.4061 29.7883C63.7347 29.7883 63.9693 29.7412 64.157 29.6471C64.3448 29.553 64.4386 29.4118 64.4386 29.2706C64.4386 29.1294 64.3448 28.9883 64.157 28.8941C63.9693 28.8 63.6877 28.753 63.4061 28.753C63.0776 28.753 62.8429 28.8 62.6552 28.8941C62.4675 28.9883 62.3736 29.0824 62.3736 29.2706C62.3736 29.4118 62.4675 29.553 62.6552 29.6471Z" fill="white"/>
<path d="M66.6914 28.0941V27.7647H68.1463V26.9177H68.5218V27.7647H70.4461V28.0941H66.6914ZM67.4893 29.8353C67.2546 29.6941 67.1138 29.5059 67.1138 29.2706C67.1138 29.0353 67.2546 28.8471 67.4893 28.7059C67.724 28.5647 68.0994 28.4706 68.5687 28.4706C69.0381 28.4706 69.4135 28.5647 69.6482 28.7059C69.8829 28.8471 70.0237 29.0353 70.0237 29.2706C70.0237 29.5059 69.8829 29.6941 69.6482 29.8353C69.4135 29.9765 69.0381 30.0706 68.5687 30.0706C68.0994 30.0706 67.724 29.9765 67.4893 29.8353ZM70.0237 26.1177C70.0237 26.353 70.0237 26.6353 69.9767 26.8706C69.9298 27.1059 69.8829 27.3412 69.8829 27.5294H69.4605C69.5074 27.3883 69.5074 27.2 69.5543 27.0118C69.6013 26.8236 69.6013 26.6353 69.6013 26.4471H67.1138V26.1177H70.0237ZM67.7709 29.6471C67.9586 29.7412 68.2402 29.7883 68.5218 29.7883C68.8503 29.7883 69.085 29.7412 69.2727 29.6471C69.4605 29.553 69.5543 29.4118 69.5543 29.2706C69.5543 29.1294 69.4605 28.9883 69.2727 28.8941C69.085 28.8 68.8034 28.753 68.5218 28.753C68.1933 28.753 67.9586 28.8 67.7709 28.8941C67.5832 28.9883 67.4893 29.0824 67.4893 29.2706C67.4893 29.4118 67.5832 29.553 67.7709 29.6471Z" fill="white"/>
<path d="M73.4498 27.5295C73.4967 27.7177 73.5436 27.8589 73.6375 28.0471C73.7313 28.1883 73.8252 28.3766 74.0129 28.5177C74.1537 28.6589 74.3415 28.8001 74.5292 28.8942C74.4823 28.9413 74.4353 28.9883 74.3884 29.0354C74.3415 29.0824 74.2945 29.1295 74.2476 29.1766C74.1537 29.1295 74.0599 29.0354 73.966 28.9413C73.8721 28.8472 73.7783 28.753 73.6844 28.6589C73.5905 28.5648 73.4967 28.4236 73.4028 28.2824C73.3089 28.1413 73.262 28.0472 73.2151 27.906C73.1682 28.0472 73.1212 28.1413 73.0743 28.2824C73.0274 28.4236 72.9335 28.5177 72.8396 28.6589C72.7458 28.8001 72.6519 28.8942 72.558 28.9883C72.4642 29.0824 72.3234 29.1766 72.2295 29.2707C72.1826 29.2236 72.1356 29.1766 72.0887 29.1295C72.0418 29.0824 71.9479 29.0354 71.901 28.9883C72.0887 28.8942 72.2764 28.753 72.4172 28.6119C72.558 28.4707 72.6988 28.3295 72.7927 28.1413C72.8866 27.953 72.9804 27.7648 73.0274 27.5766C73.0743 27.3883 73.1212 27.153 73.1212 26.9177V26.5883H72.2295V26.2589H74.3884V26.5883H73.4967V26.9648C73.4028 27.153 73.4028 27.3413 73.4498 27.5295ZM74.9516 29.9766V27.5766H74.1068V27.2472H74.9516V25.9766H75.3271V29.9766H74.9516Z" fill="white"/>
<path d="M78.5185 27.0589C78.5654 27.2001 78.6593 27.2942 78.7531 27.3883C78.847 27.4824 78.9409 27.5766 79.0817 27.6707C79.2225 27.7648 79.3633 27.8119 79.5041 27.8589C79.4571 27.906 79.4102 27.953 79.3633 28.0001C79.3163 28.0472 79.2694 28.0942 79.2694 28.1413C79.1755 28.0942 79.0817 28.0472 78.9878 28.0001C78.8939 27.953 78.8001 27.8589 78.7062 27.8119C78.6123 27.7648 78.5654 27.6707 78.4715 27.5766C78.3777 27.4824 78.3307 27.3883 78.2838 27.2942C78.2369 27.3883 78.1899 27.4824 78.143 27.5766C78.0961 27.6707 78.0022 27.7648 77.9553 27.8119C77.8614 27.906 77.7676 28.0001 77.6268 28.0471C77.5329 28.1413 77.3921 28.1883 77.2982 28.2354C77.2513 28.1883 77.2044 28.1413 77.1574 28.0942C77.1105 28.0472 77.0636 28.0001 77.0166 27.953C77.2044 27.8589 77.3452 27.8119 77.486 27.6707C77.6268 27.5766 77.7676 27.4354 77.8614 27.2942C77.9553 27.2001 78.0022 27.0589 78.0492 26.9177C78.0961 26.7766 78.0961 26.6354 78.0961 26.4942V26.4001H77.2982V26.0707H79.3163V26.4001H78.5185V26.4942C78.4715 26.7766 78.4715 26.9177 78.5185 27.0589ZM79.8795 30.0236V28.8942H77.5798V28.5648H80.255V29.9766H79.8795V30.0236ZM80.255 27.2472V28.3766H79.8795V25.9766H80.255V26.9177H80.8182V27.2472H80.255Z" fill="white"/>
<path d="M84.1504 27.953V28.3765H85.3237V29.3177H82.9771V29.6471H85.4176V29.9294H82.6016V28.9883H84.9483V28.6118H82.6016V28.3294H83.7749V27.9059H82.0854V27.6236H85.84V27.9059H84.1504V27.953ZM82.6016 26.1177H85.3706V27.2941H82.6016V26.1177ZM84.9483 26.4H82.9301V27.0118H84.9483V26.4Z" fill="white"/>
<path d="M91.1903 27.5295C91.2373 27.7177 91.2842 27.8589 91.378 28.0471C91.4719 28.1883 91.6127 28.3766 91.7535 28.5177C91.8943 28.6589 92.082 28.8001 92.2698 28.8942C92.2228 28.9413 92.1759 28.9883 92.129 29.0354C92.082 29.0824 92.0351 29.1295 91.9882 29.1766C91.8943 29.1295 91.8004 29.0354 91.7066 28.9413C91.6127 28.8472 91.5189 28.753 91.425 28.6589C91.3311 28.5648 91.2373 28.4236 91.1434 28.2824C91.0495 28.1413 91.0026 28.0472 90.9557 27.906C90.9087 28.0472 90.8618 28.1413 90.8149 28.2824C90.721 28.4236 90.6741 28.5177 90.5802 28.6589C90.4863 28.8001 90.3925 28.8942 90.2986 28.9883C90.2047 29.0824 90.0639 29.1766 89.9701 29.2707C89.9231 29.2236 89.8762 29.1766 89.8293 29.1295C89.7823 29.0824 89.6885 29.0354 89.6415 28.9883C89.8293 28.8942 90.017 28.753 90.1578 28.6119C90.2986 28.4707 90.4394 28.3295 90.5333 28.1413C90.6271 27.953 90.721 27.7648 90.7679 27.5766C90.8149 27.3883 90.8618 27.153 90.8618 26.9177V26.5883H90.017V26.2589H92.1759V26.5883H91.2842V26.9648C91.1434 27.153 91.1434 27.3413 91.1903 27.5295ZM92.8799 25.9766V27.5295H93.49V27.8589H92.8799V29.9766H92.5044V25.9766H92.8799Z" fill="white"/>
<path d="M97.4793 28.6117V30.0234H97.1038V28.6117H96.1183V29.9764H95.7428V28.6117H94.7572V28.2823H98.5118V28.6117H97.4793ZM95.5081 27.6234C95.2265 27.4352 95.1327 27.247 95.1327 26.9646C95.1327 26.6823 95.2735 26.494 95.5081 26.3058C95.7428 26.1176 96.1183 26.0234 96.5876 26.0234C97.0569 26.0234 97.3854 26.1176 97.667 26.3058C97.9017 26.494 98.0425 26.6823 98.0425 26.9646C98.0425 27.1999 97.9017 27.4352 97.667 27.6234C97.4324 27.8117 97.0569 27.9058 96.5876 27.9058C96.1183 27.8587 95.7897 27.7646 95.5081 27.6234ZM95.8367 27.3881C96.0244 27.4823 96.306 27.5293 96.5876 27.5293C96.8692 27.5293 97.1508 27.4823 97.3385 27.3881C97.5262 27.294 97.6201 27.1528 97.6201 26.9646C97.6201 26.7764 97.5262 26.6352 97.3385 26.5411C97.1508 26.447 96.8692 26.3999 96.5876 26.3999C96.306 26.3999 96.0244 26.447 95.8367 26.5411C95.6489 26.6352 95.5551 26.7764 95.5551 26.9646C95.5081 27.1528 95.602 27.294 95.8367 27.3881Z" fill="white"/>
<path d="M100.154 26.4942C100.342 26.2589 100.577 26.1177 100.858 26.1177C101.093 26.1177 101.328 26.2589 101.562 26.4942C101.75 26.7295 101.891 27.106 101.891 27.6707C101.891 28.1883 101.797 28.5648 101.609 28.8001C101.422 29.0354 101.187 29.1766 100.905 29.1766C100.671 29.1766 100.436 29.0354 100.201 28.8001C100.014 28.5648 99.8729 28.1883 99.8729 27.6707C99.8259 27.106 99.9667 26.7295 100.154 26.4942ZM100.389 28.4707C100.483 28.706 100.671 28.8472 100.858 28.8472C101.046 28.8472 101.234 28.706 101.328 28.4707C101.422 28.2354 101.469 27.953 101.469 27.6236C101.469 27.3413 101.422 27.0589 101.328 26.8236C101.234 26.5883 101.046 26.4472 100.858 26.4472C100.671 26.4472 100.483 26.5883 100.389 26.8236C100.295 27.0589 100.201 27.3413 100.201 27.6236C100.201 27.953 100.248 28.2354 100.389 28.4707ZM102.642 25.9766H103.017V29.9766H102.642V25.9766Z" fill="white"/>
<path d="M104.989 28.2824V27.953H106.021V27.3412C105.833 27.2941 105.693 27.2 105.599 27.0589C105.505 26.9647 105.458 26.8236 105.458 26.6824C105.458 26.4471 105.599 26.3059 105.833 26.1647C106.068 26.0236 106.443 25.9294 106.866 25.9294C107.335 25.9294 107.664 26.0236 107.945 26.1647C108.18 26.3059 108.321 26.4941 108.321 26.7294C108.321 26.8706 108.274 26.9647 108.18 27.1059C108.086 27.2 107.945 27.2942 107.758 27.3883V28H108.743V28.3294H104.989V28.2824ZM105.739 28.8C105.974 28.6589 106.35 28.6118 106.819 28.6118C107.288 28.6118 107.664 28.7059 107.898 28.8471C108.133 28.9883 108.274 29.1765 108.274 29.3647C108.274 29.553 108.133 29.7412 107.898 29.8824C107.664 30.0236 107.288 30.1177 106.819 30.1177C106.35 30.1177 105.974 30.0236 105.739 29.8824C105.505 29.7412 105.364 29.553 105.364 29.3647C105.364 29.1294 105.505 28.9412 105.739 28.8ZM106.068 29.6471C106.256 29.7412 106.49 29.7883 106.819 29.7883C107.147 29.7883 107.382 29.7412 107.57 29.6471C107.758 29.553 107.851 29.4589 107.851 29.3177C107.851 29.1765 107.758 29.0353 107.57 28.9883C107.382 28.8941 107.147 28.8471 106.819 28.8471C106.49 28.8471 106.256 28.8941 106.068 28.9883C105.88 29.0824 105.786 29.1765 105.786 29.3177C105.786 29.4589 105.88 29.6 106.068 29.6471ZM106.115 27.0589C106.303 27.153 106.537 27.2 106.866 27.2C107.194 27.2 107.429 27.153 107.617 27.0589C107.804 26.9647 107.898 26.8706 107.898 26.7294C107.898 26.5883 107.804 26.4941 107.617 26.4C107.429 26.3059 107.194 26.2589 106.866 26.2589C106.584 26.2589 106.303 26.3059 106.115 26.4C105.927 26.4941 105.833 26.5883 105.833 26.7294C105.833 26.8706 105.927 26.9647 106.115 27.0589ZM107.335 27.4353C107.241 27.4353 107.194 27.4824 107.1 27.4824C107.007 27.4824 106.913 27.4824 106.819 27.4824C106.725 27.4824 106.631 27.4824 106.584 27.4824C106.49 27.4824 106.443 27.4824 106.35 27.4353V27.953H107.335V27.4353Z" fill="white"/>
<path d="M110.104 26.7295H112.451V27.0589H110.104V26.7295ZM110.527 27.6236C110.714 27.4354 110.949 27.3413 111.278 27.3413C111.559 27.3413 111.794 27.4354 111.982 27.6236C112.169 27.8119 112.263 28.0471 112.263 28.2824C112.263 28.5177 112.169 28.753 111.982 28.9413C111.794 29.1295 111.559 29.2236 111.278 29.2236C110.996 29.2236 110.714 29.1295 110.527 28.9413C110.339 28.753 110.245 28.5177 110.245 28.2824C110.245 28.0471 110.339 27.8119 110.527 27.6236ZM110.808 28.753C110.902 28.8942 111.09 28.9413 111.278 28.9413C111.465 28.9413 111.606 28.8942 111.747 28.753C111.841 28.6119 111.935 28.4707 111.935 28.2824C111.935 28.0942 111.888 27.953 111.747 27.8119C111.653 27.6707 111.465 27.6236 111.278 27.6236C111.09 27.6236 110.902 27.6707 110.808 27.8119C110.714 27.953 110.62 28.0942 110.62 28.2824C110.667 28.5177 110.714 28.6589 110.808 28.753ZM110.667 26.0707H111.888V26.4001H110.667V26.0707ZM113.061 29.9766V28.0001H112.404V27.6707H113.061V25.9766H113.436V29.9766H113.061Z" fill="white"/>
<path d="M117.707 28.094C117.567 28.1411 117.332 28.1411 117.05 28.1881C116.769 28.2352 116.487 28.2352 116.252 28.2352C116.112 28.2352 115.877 28.2352 115.642 28.2352C115.408 28.2352 115.267 28.2352 115.267 28.2352V27.0117H116.769V26.447H115.267V26.1176H117.097V27.294H115.595V27.9058H116.299C116.487 27.9058 116.722 27.9058 117.003 27.8587C117.285 27.8117 117.52 27.8117 117.66 27.7646V28.094H117.707ZM117.848 30.0234V28.9881H115.548V28.6587H118.224V30.0234H117.848ZM118.271 27.294V28.5176H117.895V26.0234H118.271V26.9646H118.834V27.294H118.271Z" fill="white"/>
</svg>
