<svg width="86" height="32" viewBox="0 0 86 32" fill="none" xmlns="http://www.w3.org/2000/svg">
<g clip-path="url(#clip0_795_11681)">
<path d="M53.7791 0.941162V24.5647" stroke="black" stroke-width="2.559" stroke-linecap="round" stroke-linejoin="round"/>
<path d="M83.1597 0H2.84028C1.25717 0 0 1.27059 0 2.87059V24.4235V32H86V24.8C86 24.8 86 24.8 86 24.7529V2.87059C86 1.27059 84.6963 0 83.1597 0ZM1.21061 2.87059C1.21061 1.92941 1.9556 1.17647 2.88684 1.17647H83.1597C84.091 1.17647 84.7894 1.92941 84.8359 2.87059V24.1412H1.21061V2.87059Z" fill="black"/>
<path d="M65.0471 18.4472V18.6825H65.8852V19.3883H64.209V19.5766H65.9318V19.8589H63.7899V19.1531H65.4662V18.9648H63.7899V18.7295H64.628V18.4942H63.464V18.2119H66.2111V18.4942H65.0471V18.4472ZM65.2799 17.6472C65.3265 17.6942 65.4196 17.6942 65.5127 17.7413C65.6058 17.7883 65.699 17.7883 65.7921 17.7883C65.8852 17.7883 65.9783 17.8354 66.0715 17.8354C66.0249 17.8825 66.0249 17.9295 65.9783 17.9766C65.9318 18.0236 65.8852 18.0707 65.8852 18.1178C65.7921 18.1178 65.699 18.0707 65.6058 18.0707C65.5127 18.0707 65.4196 18.0236 65.3265 17.9766C65.2333 17.9295 65.1402 17.8825 65.0471 17.8354C64.954 17.7883 64.9074 17.7413 64.8608 17.6942C64.8143 17.7413 64.7677 17.7883 64.6746 17.8354C64.5815 17.8825 64.5349 17.9295 64.4418 17.9295C64.3487 17.9766 64.2555 17.9766 64.1624 18.0236C64.0693 18.0236 63.9762 18.0707 63.8365 18.0707C63.7899 18.0236 63.7899 17.9766 63.7434 17.9295C63.6968 17.8825 63.6502 17.8354 63.6502 17.7883C63.7434 17.7883 63.8365 17.7883 63.9762 17.7413C64.0693 17.7413 64.1624 17.6942 64.2555 17.6942C64.3487 17.6472 64.3952 17.6472 64.4884 17.6001C64.5349 17.5531 64.5815 17.506 64.628 17.506H63.7899V17.2707H65.9318V17.506H65.1402C65.1868 17.5531 65.2333 17.6001 65.2799 17.6472ZM64.2555 16.8472H65.4196V17.0825H64.2555V16.8472Z" fill="black"/>
<path d="M67.7011 18.2587C67.7477 18.3529 67.7943 18.447 67.8408 18.5411C67.8874 18.6352 67.9805 18.7293 68.0736 18.8235C68.1668 18.9176 68.2599 18.9646 68.353 19.0117C68.3065 19.0587 68.2599 19.1058 68.2133 19.1529C68.1668 19.1999 68.1202 19.247 68.1202 19.294C68.0736 19.247 67.9805 19.1999 67.934 19.1529C67.8874 19.1058 67.7943 19.0587 67.7477 18.9646C67.7011 18.9176 67.6546 18.8235 67.608 18.7764C67.5615 18.7293 67.5149 18.6352 67.4683 18.5411C67.4218 18.6352 67.3752 18.6823 67.3287 18.7764C67.2821 18.8705 67.2355 18.9176 67.1424 19.0117C67.0958 19.0587 67.0493 19.1529 66.9562 19.1999C66.9096 19.247 66.8165 19.294 66.7233 19.3882C66.6768 19.3411 66.6302 19.294 66.5837 19.294C66.5371 19.247 66.4905 19.1999 66.444 19.1529C66.5371 19.1058 66.6768 19.0117 66.7699 18.9646C66.863 18.8705 66.9562 18.7764 67.0027 18.6823C67.0958 18.5882 67.1424 18.494 67.189 18.3529C67.2355 18.2587 67.2355 18.1176 67.2355 17.9764V17.8352H66.6302V17.5058H68.2599V17.8352H67.6546V17.9764C67.6546 18.0705 67.6546 18.1646 67.7011 18.2587ZM67.0027 16.9411H67.934V17.2235H67.0027V16.9411ZM68.6789 19.8587V18.3999H68.1202V18.0705H68.6789V16.894H69.0514V19.8587H68.6789V19.8587Z" fill="black"/>
<path d="M69.424 19.5295V19.2H70.0758V18.5883H70.4483V19.2H71.1933V18.5883H71.5192V19.2H72.1711V19.5295H69.424ZM69.6568 18.4942V18.1648H70.0758V17.3177H69.7499V16.9883H71.8917V17.3177H71.5658V18.1648H71.9849V18.4942H69.6568ZM70.4018 18.1648H71.1933V17.3177H70.4018V18.1648Z" fill="black"/>
<path d="M73.5214 18.0705C73.568 18.2117 73.6145 18.3058 73.6611 18.3999C73.7076 18.5411 73.8008 18.6352 73.8939 18.7293C73.987 18.8235 74.1267 18.9176 74.2198 19.0117C74.1733 19.0587 74.1267 19.1058 74.0801 19.1529C74.0336 19.1999 73.987 19.247 73.9404 19.247C73.8939 19.1999 73.8008 19.1529 73.7542 19.1058C73.7076 19.0587 73.6145 18.9646 73.568 18.9176C73.5214 18.8235 73.4283 18.7764 73.3817 18.6823C73.3351 18.5882 73.2886 18.5411 73.242 18.447C73.242 18.5411 73.1955 18.5882 73.1489 18.6823C73.1023 18.7764 73.0558 18.8235 72.9626 18.9176C72.9161 19.0117 72.823 19.0587 72.7764 19.1529C72.6833 19.1999 72.6367 19.294 72.5902 19.3411C72.5436 19.294 72.497 19.247 72.4505 19.247C72.4039 19.1999 72.3573 19.1529 72.2642 19.1058C72.4039 19.0117 72.497 18.9176 72.6367 18.8235C72.7298 18.7293 72.823 18.5882 72.9161 18.494C72.9627 18.3999 73.0092 18.2587 73.0558 18.1176C73.1023 17.9764 73.1023 17.8352 73.1023 17.694V17.0352H73.4748V17.694C73.4748 17.8352 73.4748 17.9764 73.5214 18.0705ZM74.5458 16.894H74.9182V19.8587H74.5458V16.894Z" fill="black"/>
<path d="M76.7342 4.09424H62.1137C61.3221 4.09424 60.7168 4.706 60.7168 5.506V19.906C60.7168 20.706 61.3221 21.3178 62.1137 21.3178H76.7342C77.5257 21.3178 78.131 20.706 78.131 19.906V5.506C78.131 4.75306 77.4792 4.09424 76.7342 4.09424ZM76.7342 20.7531H62.1137C61.6481 20.7531 61.2756 20.3766 61.2756 19.906V16.0942H77.5257V19.906C77.5723 20.3766 77.1998 20.7531 76.7342 20.7531Z" fill="black"/>
<path d="M72.7764 12.8472C72.497 10.8236 71.6124 9.74127 70.8208 9.22363C71.1933 8.84716 71.4727 8.32951 71.4727 7.71774C71.4727 6.54127 70.5414 5.6001 69.3774 5.6001C68.2133 5.6001 67.2821 6.54127 67.2821 7.71774C67.2821 8.32951 67.5149 8.84716 67.934 9.22363C67.1424 9.74127 66.2577 10.7766 65.9784 12.8472C65.9318 13.1295 65.9318 13.4119 65.9318 13.6472C65.9318 13.8824 65.9318 14.1177 65.9784 14.353C66.0249 14.6354 66.2577 14.8236 66.5371 14.8236H72.2177C72.497 14.8236 72.7298 14.6354 72.7764 14.353C72.823 14.1648 72.823 13.9295 72.823 13.6472C72.823 13.4119 72.823 13.1295 72.7764 12.8472Z" fill="white"/>
<path d="M27.7509 8.42343C27.4716 7.95284 27.1456 7.57637 26.68 7.29402C26.261 7.01166 25.7488 6.82343 25.19 6.72931C24.6313 6.63519 24.0725 6.58813 23.4672 6.58813H19.137C19.0904 6.58813 18.9973 6.63519 18.9507 6.68225C18.9042 6.72931 18.8576 6.82343 18.8576 6.87049V18.5411C18.8576 18.6352 18.9042 18.6823 18.9507 18.7293C18.9973 18.7764 19.0904 18.8234 19.137 18.8234H20.6735C20.7201 18.8234 20.8132 18.7764 20.8598 18.7293C20.9063 18.6823 20.9529 18.6352 20.9529 18.5411V14.1175H23.6069C25.0503 14.1175 26.2144 13.7881 27.006 13.1293C27.7975 12.4705 28.2166 11.4823 28.2166 10.2117C28.17 9.55284 28.0303 8.94108 27.7509 8.42343ZM23.6069 12.1881H20.9529V8.47049H23.5604C23.9329 8.47049 24.2588 8.51755 24.5847 8.56461C24.9107 8.61166 25.1435 8.70578 25.3763 8.84696C25.6091 8.98813 25.7488 9.12931 25.8885 9.36461C26.0281 9.5999 26.0747 9.88225 26.0747 10.3058C26.0747 10.6352 26.0282 10.9175 25.935 11.1528C25.8419 11.3881 25.7022 11.5764 25.516 11.7175C25.3297 11.8587 25.0969 11.9999 24.771 12.094C24.445 12.1411 24.0725 12.1881 23.6069 12.1881Z" fill="black"/>
<path d="M38.274 16.9411C38.2274 16.894 38.1343 16.847 38.0877 16.847H31.2897V13.4117H37.4359C37.529 13.4117 37.5756 13.3646 37.6221 13.3175C37.6687 13.2705 37.7152 13.2234 37.7152 13.1293V11.7175C37.7152 11.6705 37.6687 11.5764 37.6221 11.5293C37.5756 11.4823 37.4824 11.4352 37.4359 11.4352H31.2897V8.47049H37.8549C37.9481 8.47049 37.9946 8.42343 38.0412 8.37637C38.0877 8.32931 38.1343 8.28225 38.1343 8.18813V6.77637C38.1343 6.72931 38.0877 6.63519 38.0412 6.58813C37.9946 6.58813 37.9015 6.58813 37.8549 6.58813H29.4738C29.3806 6.58813 29.3341 6.63519 29.2875 6.68225C29.241 6.72931 29.1944 6.82343 29.1944 6.87049V18.5411C29.1944 18.6352 29.241 18.6823 29.2875 18.7293C29.3341 18.7764 29.3806 18.8234 29.4738 18.8234H38.0877C38.1809 18.8234 38.2274 18.7764 38.274 18.7293C38.3205 18.6823 38.3671 18.6352 38.3671 18.5411V17.1293C38.3671 17.0823 38.3205 16.9881 38.274 16.9411Z" fill="black"/>
<path d="M49.1229 6.63538C49.0763 6.58832 48.9832 6.54126 48.9367 6.54126H47.4467C47.4001 6.54126 47.307 6.58832 47.2604 6.63538C47.2139 6.68244 47.1673 6.77655 47.1673 6.82361V15.153L41.6264 6.68244C41.5799 6.58832 41.4867 6.54126 41.3936 6.54126H39.8105C39.7174 6.54126 39.6708 6.58832 39.6243 6.63538C39.5777 6.68244 39.5777 6.77655 39.5777 6.82361V18.4942C39.5777 18.5883 39.6243 18.6354 39.6708 18.6824C39.7174 18.7295 39.7639 18.7766 39.8571 18.7766H41.3005C41.3471 18.7766 41.4402 18.7295 41.4867 18.6824C41.5333 18.6354 41.5799 18.5883 41.5799 18.4942V10.2118L47.1673 18.6824C47.2139 18.7766 47.307 18.8236 47.4001 18.8236H48.9832C49.0763 18.8236 49.1229 18.7766 49.1695 18.7295C49.216 18.6824 49.2626 18.6354 49.2626 18.5413V6.82361C49.1695 6.77655 49.1695 6.68244 49.1229 6.63538Z" fill="black"/>
<path d="M10.8489 7.62344C13.2236 7.62344 15.1792 9.41168 15.5517 11.7176C16.3432 11.8587 17.0417 12.047 17.5538 12.2823C17.5538 12.1411 17.5538 12.047 17.5538 12.047C17.3676 8.4705 14.4342 5.64697 10.8489 5.64697C7.3102 5.64697 4.42336 8.42344 4.19055 11.9529C4.19055 12.1881 4.33024 12.6117 4.98211 12.9411H4.93554C5.58741 13.3176 6.61178 13.7411 7.82239 13.7411C8.70706 13.7411 9.91768 13.5058 10.942 12.7999C11.6405 12.3293 12.432 11.8587 13.3167 11.8587C13.5961 11.8587 13.8289 11.9058 14.1083 11.9529C14.2014 11.9529 14.2479 11.9999 14.3411 11.9999C14.3411 11.9999 14.5739 12.1411 14.6204 11.9529C14.667 11.8587 14.6204 11.7646 14.5739 11.7176C14.4808 11.5764 14.2945 11.4352 14.1548 11.3411C13.9686 11.1999 13.7358 11.1058 13.5495 11.0587C13.0373 10.9176 12.5251 10.9646 12.013 11.0587C11.5008 11.1529 10.9886 11.3411 10.523 11.5764C9.73143 11.9529 8.84675 12.094 8.33457 12.094C7.49645 12.094 6.98427 11.7176 6.65834 11.3411C6.56521 11.1999 6.47209 11.0587 6.37897 10.9646C6.93771 9.08227 8.70706 7.62344 10.8489 7.62344Z" fill="#00B193"/>
<path d="M15.6448 12.5176C15.6448 12.6588 15.6448 12.7529 15.6448 12.847C15.4586 15.3411 13.4098 17.3176 10.8955 17.3176C8.84676 17.3176 7.17053 16.1882 6.51866 14.3529C6.05304 14.2588 4.93555 13.9293 4.23712 13.3646C4.56306 16.7999 7.4499 19.294 10.8955 19.294C14.3876 19.294 17.2279 16.6117 17.5539 13.1764C16.9485 12.7999 16.2501 12.6117 15.6448 12.5176Z" fill="black"/>
<path d="M11.4543 27.6705H9.45211V26.8234H8.89337V27.6705H7.40338V28.1411H11.5008L11.4543 27.6705C11.5008 27.6705 11.5008 27.6705 11.4543 27.6705ZM10.6627 28.7529C10.3833 28.5646 9.96429 28.4705 9.40555 28.4705C8.89337 28.4705 8.47431 28.5646 8.19494 28.7529C7.91556 28.9411 7.77588 29.1764 7.77588 29.4587C7.77588 29.7411 7.91556 29.9764 8.19494 30.1646C8.47431 30.3529 8.89337 30.447 9.40555 30.447C9.91773 30.447 10.3368 30.3529 10.6162 30.1646C10.8955 29.9764 11.0352 29.7411 11.0352 29.4587C11.0818 29.1764 10.9421 28.9411 10.6627 28.7529ZM10.1505 29.8352C9.96429 29.9293 9.73148 29.9764 9.40555 29.9764C9.07961 29.9764 8.8468 29.9293 8.66056 29.8352C8.47431 29.7411 8.38118 29.647 8.38118 29.4587C8.38118 29.3176 8.47431 29.1764 8.66056 29.1293C8.8468 29.0352 9.07961 28.9882 9.40555 28.9882C9.73148 28.9882 9.96429 29.0352 10.1505 29.1293C10.3368 29.2234 10.4299 29.3176 10.4299 29.4587C10.4299 29.647 10.3368 29.7411 10.1505 29.8352ZM7.82244 26.3058H10.4765C10.4765 26.494 10.4765 26.6352 10.4299 26.8234C10.3833 27.0117 10.3833 27.1999 10.3368 27.3411C10.3368 27.3411 10.3368 27.3411 10.3368 27.3882C10.3368 27.3882 10.3368 27.3882 10.3833 27.3882H10.8955C10.8955 27.3882 10.9421 27.3881 10.9421 27.3411C10.9887 27.1058 11.0352 26.8705 11.0352 26.5881C11.0818 26.3529 11.0818 26.0234 11.0818 25.7411H7.869L7.82244 26.3058C7.77588 26.3058 7.77588 26.3058 7.82244 26.3058C7.82244 26.3058 7.77588 26.3058 7.82244 26.3058ZM12.1993 26.3058H14.8533C14.8533 26.494 14.8533 26.6352 14.8067 26.8234C14.7602 27.0117 14.7602 27.1999 14.7136 27.3411C14.7136 27.3411 14.7136 27.3411 14.7136 27.3882C14.7136 27.3882 14.7136 27.3882 14.7602 27.3882H15.2724C15.2724 27.3882 15.3189 27.3881 15.3189 27.3411C15.3655 27.1058 15.412 26.8705 15.412 26.5881C15.4586 26.3529 15.4586 26.0234 15.4586 25.7411H12.2458L12.1993 26.3058ZM15.0395 28.7529C14.7602 28.5646 14.3411 28.4705 13.7824 28.4705C13.2702 28.4705 12.8511 28.5646 12.5718 28.7529C12.2924 28.9411 12.1527 29.1764 12.1527 29.4587C12.1527 29.7411 12.2924 29.9764 12.5718 30.1646C12.8511 30.3529 13.2702 30.447 13.7824 30.447C14.2946 30.447 14.7136 30.3529 14.993 30.1646C15.2724 29.9764 15.412 29.7411 15.412 29.4587C15.5052 29.1764 15.3189 28.9411 15.0395 28.7529ZM14.5739 29.8352C14.3877 29.9293 14.1549 29.9764 13.8289 29.9764C13.503 29.9764 13.2702 29.9293 13.0839 29.8352C12.8977 29.7411 12.8046 29.647 12.8046 29.4587C12.8046 29.3176 12.8977 29.1764 13.0839 29.1293C13.2702 29.0352 13.503 28.9882 13.8289 28.9882C14.1549 28.9882 14.3877 29.0352 14.5739 29.1293C14.7602 29.2234 14.8533 29.3176 14.8533 29.4587C14.8533 29.647 14.7602 29.7411 14.5739 29.8352ZM15.8777 27.6705H13.8755V26.8234H13.3168V27.6705H11.8268V28.1411H15.9242L15.8777 27.6705ZM16.6692 27.7176H19.8354V27.247H17.228V25.9293H16.7158L16.6692 27.7176C16.6692 27.6705 16.6692 27.6705 16.6692 27.7176ZM20.2545 28.2352H16.157V28.7058H17.8798V30.2587H18.4386V28.7058H20.1614L20.2545 28.2352C20.3011 28.2352 20.3011 28.2352 20.2545 28.2352C20.2545 28.2352 20.3011 28.2352 20.2545 28.2352ZM23.5604 28.6117C23.4207 28.6587 23.1879 28.6587 22.9085 28.7058C22.6292 28.7529 22.3498 28.7529 22.1635 28.7529H21.5117V27.8587H23.0016V25.9764H20.9529V26.447H22.4429V27.294H20.9529V29.2234C20.9529 29.2234 21.0926 29.2234 21.4185 29.2234C21.7445 29.2234 21.9307 29.2234 21.9773 29.2234C22.2567 29.2234 22.5826 29.1764 22.862 29.1764C23.1879 29.1293 23.3741 29.1293 23.5604 29.0823C23.5604 29.0823 23.607 29.0823 23.607 29.0352L23.5604 28.6117C23.607 28.6117 23.607 28.6117 23.5604 28.6117ZM24.3054 25.647H23.7466V30.3058H24.2588L24.3054 25.647C24.3519 25.647 24.3519 25.694 24.3054 25.647Z" fill="white"/>
<path d="M28.3097 28.0001V27.6707H29.8928V26.8236H30.3119V27.7177H32.4071V28.0471H28.3097V28.0001ZM29.1944 29.8354C28.915 29.6942 28.7753 29.4589 28.7753 29.2236C28.7753 28.9883 28.915 28.8001 29.1944 28.6119C29.4737 28.4707 29.8928 28.3766 30.405 28.3766C30.9172 28.3766 31.3362 28.4707 31.6156 28.6119C31.895 28.753 32.0346 28.9883 32.0346 29.2236C32.0346 29.4589 31.895 29.6471 31.6156 29.8354C31.3362 29.9766 30.9172 30.0707 30.405 30.0707C29.8462 30.0707 29.4737 29.9766 29.1944 29.8354ZM31.9881 25.9766C31.9881 26.2589 31.9881 26.4942 31.9415 26.7295C31.895 26.9648 31.8484 27.2001 31.8018 27.3883H31.4293C31.4759 27.2472 31.4759 27.0589 31.5225 26.8707C31.569 26.6824 31.569 26.4942 31.569 26.306H28.8219V25.9766H31.9881V25.9766ZM29.5203 29.6001C29.7531 29.6942 30.0325 29.7413 30.3584 29.7413C30.6844 29.7413 30.9637 29.6942 31.1965 29.6001C31.4293 29.506 31.5225 29.3648 31.5225 29.2236C31.5225 29.0354 31.4293 28.9413 31.1965 28.8471C31.0103 28.753 30.7309 28.706 30.3584 28.706C30.0325 28.706 29.7066 28.753 29.5203 28.8471C29.2875 28.9413 29.1944 29.0824 29.1944 29.2236C29.1944 29.4119 29.3341 29.553 29.5203 29.6001Z" fill="white"/>
<path d="M32.7797 28.0001V27.6707H34.3628V26.8236H34.7818V27.7177H36.8771V28.0471H32.7797V28.0001ZM33.6178 29.8354C33.3384 29.6942 33.1987 29.4589 33.1987 29.2236C33.1987 28.9883 33.3384 28.8001 33.6178 28.6119C33.8971 28.4707 34.3162 28.3766 34.8284 28.3766C35.3406 28.3766 35.7596 28.4707 36.039 28.6119C36.3184 28.753 36.4581 28.9883 36.4581 29.2236C36.4581 29.4589 36.3184 29.6471 36.039 29.8354C35.7596 29.9766 35.3406 30.0707 34.8284 30.0707C34.3162 30.0707 33.8971 29.9766 33.6178 29.8354ZM36.4115 25.9766C36.4115 26.2589 36.4115 26.4942 36.3649 26.7295C36.3184 26.9648 36.2718 27.2001 36.2252 27.3883H35.8527C35.8993 27.2472 35.8993 27.0589 35.9459 26.8707C35.9924 26.6824 35.9924 26.4942 35.9924 26.306H33.2453V25.9766H36.4115V25.9766ZM33.9903 29.6001C34.2231 29.6942 34.5025 29.7413 34.8284 29.7413C35.1543 29.7413 35.4337 29.6942 35.6665 29.6001C35.8993 29.506 35.9924 29.3648 35.9924 29.2236C35.9924 29.0354 35.8993 28.9413 35.6665 28.8471C35.4337 28.753 35.1543 28.706 34.8284 28.706C34.5025 28.706 34.1765 28.753 33.9903 28.8471C33.7575 28.9413 33.6643 29.0824 33.6643 29.2236C33.6643 29.4119 33.7575 29.553 33.9903 29.6001Z" fill="white"/>
<path d="M38.9724 27.4352C39.0189 27.6234 39.1121 27.8117 39.2052 27.9529C39.2983 28.1411 39.438 28.2823 39.5777 28.4234C39.7174 28.5646 39.9036 28.7058 40.1364 28.7999C40.0899 28.847 40.0433 28.894 39.9502 28.9411C39.9036 28.9881 39.8571 29.0352 39.8105 29.0823C39.7174 29.0352 39.5777 28.9411 39.4846 28.847C39.3914 28.7529 39.2983 28.6587 39.1586 28.5646C39.0655 28.4705 38.9724 28.3293 38.8793 28.1881C38.7861 28.047 38.7396 27.9058 38.6464 27.8117C38.5999 27.9529 38.5533 28.047 38.4602 28.1881C38.3671 28.3293 38.2739 28.4234 38.1808 28.5646C38.0877 28.7058 37.948 28.7999 37.8549 28.894C37.7152 28.9881 37.6221 29.0823 37.4824 29.1764C37.4358 29.1293 37.3893 29.0823 37.2961 29.0352C37.2496 28.9881 37.1565 28.9411 37.1099 28.894C37.2961 28.7999 37.4824 28.6587 37.6686 28.4705C37.8549 28.3293 37.948 28.1411 38.0877 27.9529C38.1808 27.7646 38.2739 27.5764 38.3205 27.3881C38.3671 27.1999 38.4136 26.9646 38.4136 26.7293V26.3999H37.4358V26.0705H39.8105V26.3999H38.8327V26.8234C38.9258 27.0587 38.9258 27.247 38.9724 27.4352ZM40.602 29.9764V27.4823H39.6708V27.1529H40.602V25.8352H41.0211V29.9764H40.602Z" fill="white"/>
<path d="M43.3958 26.9176C43.4423 27.0587 43.5355 27.1529 43.6286 27.294C43.7217 27.3881 43.8614 27.5293 44.0011 27.5764C44.1408 27.6705 44.2804 27.7176 44.4667 27.7646C44.4201 27.8117 44.3736 27.8587 44.327 27.9058C44.2804 27.9529 44.2339 27.9999 44.1873 28.047C44.0942 27.9999 44.0011 27.9529 43.8614 27.9058C43.7683 27.8587 43.6286 27.7646 43.5355 27.6705C43.4423 27.5764 43.3492 27.5293 43.2561 27.4352C43.163 27.3411 43.1164 27.247 43.0698 27.1529C43.0233 27.247 42.9767 27.3411 42.9301 27.4352C42.8836 27.5293 42.7905 27.6234 42.6973 27.7176C42.6042 27.8117 42.4645 27.9058 42.3714 27.9529C42.2317 28.047 42.1386 28.094 41.9989 28.1411C41.9523 28.094 41.9058 28.047 41.8592 27.9999C41.8127 27.9529 41.7195 27.9058 41.673 27.8587C41.8592 27.7646 42.0455 27.6705 42.1852 27.5764C42.3248 27.4823 42.4645 27.3411 42.6042 27.1999C42.6973 27.1058 42.7439 26.9646 42.837 26.8234C42.8836 26.6823 42.9301 26.5411 42.9301 26.3529V26.3529H42.0455V26.0234H44.2339V26.3529H43.3026V26.494C43.3026 26.6352 43.3026 26.7764 43.3958 26.9176ZM44.8858 30.0234V28.894H42.3714V28.5646H45.3048V30.0234H44.8858ZM45.3048 27.1529V28.3293H44.8858V25.8352H45.3048V26.8234H45.9101V27.1529H45.3048Z" fill="white"/>
<path d="M48.3314 27.8589V28.2824H49.6351V29.2707H47.0742V29.6472H49.7282V29.9295H46.6086V28.9413H49.1695V28.5648H46.6086V28.2824H47.9123V27.8589H46.0964V27.5295H50.1938V27.8589H48.3314ZM46.6086 25.9766H49.6351V27.2001H46.6086V25.9766ZM49.216 26.2589H47.0276V26.8707H49.2626V26.2589H49.216Z" fill="white"/>
<path d="M53.686 27.4352C53.7325 27.6234 53.8256 27.8117 53.9188 27.9529C54.0119 28.1411 54.1516 28.2823 54.2913 28.4234C54.431 28.5646 54.6172 28.7058 54.85 28.7999C54.8035 28.847 54.7569 28.894 54.6638 28.9411C54.6172 28.9881 54.5706 29.0352 54.5241 29.0823C54.431 29.0352 54.2913 28.9411 54.1981 28.847C54.105 28.7529 53.9653 28.6587 53.8722 28.5646C53.7791 28.4705 53.686 28.3293 53.5928 28.1881C53.4997 28.047 53.4532 27.9058 53.36 27.8117C53.3135 27.9529 53.2669 28.047 53.1738 28.1881C53.0807 28.3293 52.9875 28.4234 52.8944 28.5646C52.8013 28.7058 52.6616 28.7999 52.5685 28.894C52.4288 28.9881 52.3357 29.0823 52.196 29.1764C52.1494 29.1293 52.1029 29.0823 52.0097 29.0352C51.9632 28.9881 51.87 28.9411 51.8235 28.894C52.0097 28.7999 52.196 28.6587 52.3822 28.4705C52.5219 28.3293 52.6616 28.1411 52.8013 27.9999C52.8944 27.8117 52.9875 27.6234 53.0341 27.4352C53.0807 27.247 53.1272 27.0117 53.1272 26.7764V26.447H52.196V26.1176H54.5706V26.447H53.5928V26.8234C53.5928 27.0587 53.6394 27.247 53.686 27.4352ZM55.5484 25.8352V27.4352H56.2003V27.7646H55.5484V29.9764H55.1294V25.8352H55.5484V25.8352Z" fill="white"/>
<path d="M59.4597 28.5176V29.9764H59.0406V28.5176H57.9697V29.9294H57.5506V28.5176H56.4331V28.1882H60.5306V28.5176H59.4597ZM57.3178 27.5294C57.0384 27.3411 56.8988 27.1059 56.8988 26.8706C56.8988 26.5882 57.0384 26.3529 57.3178 26.1647C57.5972 25.9764 57.9697 25.8823 58.4819 25.8823C58.994 25.8823 59.3665 25.9764 59.6459 26.1647C59.9253 26.3529 60.065 26.5882 60.065 26.8706C60.065 27.1529 59.9253 27.3411 59.6459 27.5294C59.3665 27.7176 58.994 27.8117 58.4819 27.8117C57.9697 27.7647 57.5972 27.7176 57.3178 27.5294ZM57.6437 27.2941C57.8766 27.3882 58.1559 27.4823 58.4819 27.4823C58.8078 27.4823 59.0872 27.4353 59.32 27.3411C59.5528 27.247 59.6459 27.1059 59.6459 26.9176C59.6459 26.7294 59.5528 26.5882 59.32 26.447C59.0872 26.3529 58.8078 26.2588 58.4819 26.2588C58.1559 26.2588 57.8766 26.3059 57.6437 26.447C57.4109 26.5411 57.3178 26.7294 57.3178 26.9176C57.3178 27.0117 57.4109 27.1529 57.6437 27.2941Z" fill="white"/>
<path d="M61.4618 26.3529C61.6946 26.1176 61.9275 25.9764 62.2068 25.9764C62.4862 25.9764 62.719 26.1176 62.9518 26.3529C63.1846 26.5881 63.2777 27.0117 63.2777 27.5293C63.2777 28.047 63.1846 28.4705 62.9518 28.7058C62.719 28.9411 62.4862 29.0823 62.2068 29.0823C61.9275 29.0823 61.6946 28.9411 61.4618 28.7058C61.229 28.4705 61.1359 28.047 61.1359 27.5293C61.0893 26.9646 61.229 26.5881 61.4618 26.3529ZM61.6946 28.3764C61.8343 28.6117 61.974 28.7529 62.2068 28.7529C62.4396 28.7529 62.5793 28.6117 62.719 28.3764C62.8121 28.1411 62.9053 27.8587 62.9053 27.5293C62.9053 27.1999 62.8587 26.9176 62.719 26.6823C62.6259 26.447 62.4396 26.3058 62.2068 26.3058C61.974 26.3058 61.8343 26.447 61.6946 26.6823C61.555 26.9176 61.5084 27.1999 61.5084 27.5293C61.5084 27.8587 61.555 28.1411 61.6946 28.3764ZM64.1624 25.8352H64.5815V29.9764H64.1624V25.8352Z" fill="white"/>
<path d="M65.2799 28.1883V27.8589H66.3974V27.2472C66.1646 27.153 66.0249 27.0589 65.9318 26.9648C65.8387 26.8707 65.7921 26.7295 65.7921 26.5883C65.7921 26.353 65.9318 26.1648 66.2111 26.0236C66.4905 25.8824 66.863 25.7883 67.3752 25.7883C67.8874 25.7883 68.2599 25.8824 68.5392 26.0236C68.8186 26.1648 68.9583 26.353 68.9583 26.5883C68.9583 26.7295 68.9117 26.8236 68.8186 26.9648C68.7255 27.0589 68.5392 27.153 68.353 27.2472V27.8589H69.4705V28.1883H65.2799ZM66.1646 28.753C66.444 28.6119 66.8165 28.5177 67.3752 28.5177C67.8874 28.5177 68.3064 28.6119 68.5858 28.753C68.8652 28.8942 69.0049 29.0824 69.0049 29.3177C69.0049 29.553 68.8652 29.6942 68.5858 29.8824C68.3064 30.0236 67.9339 30.1177 67.3752 30.1177C66.863 30.1177 66.444 30.0236 66.1646 29.8824C65.8852 29.7413 65.7455 29.553 65.7455 29.3177C65.7455 29.0824 65.8852 28.8942 66.1646 28.753ZM66.5371 29.6472C66.7233 29.7413 67.0027 29.7883 67.3752 29.7883C67.7011 29.7883 67.9805 29.7413 68.2133 29.6472C68.4461 29.553 68.5392 29.4589 68.5392 29.3177C68.5392 29.1766 68.4461 29.0354 68.2133 28.9413C67.9805 28.8472 67.7477 28.8001 67.3752 28.8001C67.0493 28.8001 66.7699 28.8472 66.5371 28.9413C66.3508 29.0354 66.2111 29.1295 66.2111 29.3177C66.2111 29.4589 66.3043 29.553 66.5371 29.6472ZM66.5371 26.9648C66.7233 27.0589 67.0027 27.106 67.3752 27.106C67.7011 27.106 67.9805 27.0589 68.2133 26.9648C68.4461 26.8707 68.5392 26.7766 68.5392 26.6354C68.5392 26.4942 68.4461 26.353 68.2133 26.2589C67.9805 26.1648 67.7477 26.1177 67.3752 26.1177C67.0493 26.1177 66.7699 26.1648 66.5836 26.2589C66.3974 26.353 66.2577 26.4472 66.2577 26.5883C66.2111 26.7295 66.3043 26.8707 66.5371 26.9648ZM67.8874 27.3413C67.7943 27.3413 67.7011 27.3883 67.608 27.3883C67.5149 27.3883 67.4218 27.3883 67.3286 27.3883C67.2355 27.3883 67.1424 27.3883 67.0493 27.3883C66.9561 27.3883 66.863 27.3883 66.8165 27.3413V27.8589H67.8874V27.3413V27.3413Z" fill="white"/>
<path d="M69.9827 26.5881H72.5436V26.9176H69.9827V26.5881ZM70.4483 27.5293C70.6345 27.3411 70.9139 27.247 71.2398 27.247C71.5658 27.247 71.8451 27.3411 72.0314 27.5293C72.2176 27.7176 72.3573 27.9529 72.3573 28.2352C72.3573 28.5176 72.2642 28.7058 72.0314 28.9411C71.8451 29.1293 71.5658 29.2705 71.2398 29.2705C70.9139 29.2705 70.6345 29.1764 70.4483 28.9881C70.2155 28.7999 70.1224 28.5646 70.1224 28.2823C70.1224 27.9529 70.2155 27.7646 70.4483 27.5293ZM70.7277 28.7058C70.8673 28.847 71.007 28.894 71.2398 28.894C71.4727 28.894 71.6123 28.847 71.752 28.7058C71.8917 28.5646 71.9383 28.4234 71.9383 28.2352C71.9383 28.047 71.8917 27.9058 71.752 27.7646C71.6123 27.6234 71.4727 27.5764 71.2398 27.5764C71.007 27.5764 70.8673 27.6234 70.7277 27.7646C70.588 27.9058 70.5414 28.047 70.5414 28.2352C70.5414 28.4234 70.6345 28.6117 70.7277 28.7058ZM70.588 25.9293H71.9383V26.2587H70.588V25.9293ZM73.1954 29.9764V27.9058H72.4505V27.5764H73.1954V25.8352H73.6145V29.9764H73.1954Z" fill="white"/>
<path d="M77.1532 28.0472C77.0136 28.0942 76.7342 28.0942 76.4548 28.1413C76.1289 28.1883 75.8495 28.1883 75.5701 28.1883C75.3839 28.1883 75.1976 28.1883 74.9183 28.1883C74.6389 28.1883 74.4992 28.1883 74.4992 28.1883V26.9177H76.1289V26.353H74.4992V26.0236H76.5479V27.2472H74.9183V27.8589H75.6633C75.8495 27.8589 76.1289 27.8589 76.4548 27.8119C76.7807 27.7648 77.0136 27.7648 77.1998 27.7177V28.0472H77.1532ZM77.3395 30.0236V28.9413H74.8251V28.6119H77.7585V30.0236H77.3395ZM77.7585 27.153V28.3766H77.3395V25.7883H77.7585V26.8236H78.3639V27.153H77.7585Z" fill="white"/>
</g>
<defs>
<clipPath id="clip0_795_11681">
<rect width="86" height="32" fill="white"/>
</clipPath>
</defs>
</svg>
