<svg width="106" height="32" viewBox="0 0 106 32" fill="none" xmlns="http://www.w3.org/2000/svg">
<path d="M103.14 0H2.8598C1.26581 0 0 1.27059 0 2.87059V32H106V24.8V24.7529V2.87059C106 1.27059 104.734 0 103.14 0ZM1.21893 2.87059C1.21893 1.92941 1.96904 1.17647 2.90668 1.17647H53.6329V24.0941H1.21893V2.87059ZM104.781 24.1412H54.7581V1.22353H103.14C104.078 1.22353 104.781 1.97647 104.828 2.91765V24.1412H104.781Z" fill="black"/>
<path d="M64.7439 18.4472V18.6825H65.5878V19.3883H63.9V19.5766H65.6347V19.8589H63.4781V19.1531H65.1659V18.9648H63.4781V18.7295H64.322V18.4942H63.1499V18.2119H65.916V18.4942H64.7439V18.4472ZM65.0252 17.6472C65.0721 17.6942 65.1659 17.6942 65.2596 17.7413C65.3534 17.7883 65.4471 17.7883 65.5409 17.7883C65.6347 17.7883 65.7284 17.8354 65.8222 17.8354C65.7753 17.8825 65.7753 17.9295 65.7284 17.9766C65.6816 18.0236 65.6347 18.0707 65.6347 18.1178C65.5409 18.1178 65.4471 18.0707 65.3534 18.0707C65.2596 18.0707 65.1659 18.0236 65.0721 17.9766C64.9783 17.9295 64.8846 17.8825 64.7908 17.8354C64.697 17.7883 64.6502 17.7413 64.6033 17.6942C64.5564 17.7413 64.5095 17.7883 64.4157 17.8354C64.322 17.8825 64.2751 17.9295 64.1813 17.9295C64.0876 17.9766 63.9938 17.9766 63.9 18.0236C63.8063 18.0707 63.7125 18.0707 63.5719 18.0707C63.525 18.0236 63.525 17.9766 63.4781 17.9295C63.4312 17.8825 63.3843 17.8354 63.3843 17.7883C63.4781 17.7883 63.5719 17.7883 63.7125 17.7413C63.8063 17.7413 63.9 17.6942 63.9938 17.6942C64.0876 17.6472 64.1345 17.6472 64.2282 17.6001C64.2751 17.5531 64.322 17.506 64.3689 17.506H63.5719V17.2707H65.7284V17.506H64.9314C64.8846 17.5531 64.9314 17.6001 65.0252 17.6472ZM63.9938 16.8472H65.1659V17.0825H63.9938V16.8472Z" fill="black"/>
<path d="M67.4162 18.2587C67.4631 18.3529 67.51 18.447 67.5568 18.5411C67.6037 18.6352 67.6975 18.7293 67.7913 18.8235C67.885 18.9176 67.9788 18.9646 68.0725 19.0117C68.0257 19.0587 67.9788 19.1058 67.9319 19.1529C67.885 19.1999 67.8381 19.247 67.8381 19.294C67.7913 19.247 67.6975 19.1999 67.6506 19.1529C67.6037 19.1058 67.51 19.0587 67.4631 18.9646C67.4162 18.9176 67.3693 18.8235 67.3224 18.7764C67.2756 18.7293 67.2287 18.6352 67.1818 18.5411C67.1349 18.6352 67.088 18.6823 67.0411 18.7764C66.9943 18.8705 66.9474 18.9176 66.8536 19.0117C66.8067 19.0587 66.7599 19.1529 66.6661 19.1999C66.6192 19.247 66.5254 19.294 66.4317 19.3411C66.3848 19.294 66.3379 19.247 66.291 19.247C66.2441 19.1999 66.1973 19.1529 66.1504 19.1058C66.2442 19.0587 66.3848 18.9646 66.4786 18.9176C66.5723 18.8235 66.6661 18.7293 66.713 18.6352C66.8067 18.5411 66.8536 18.447 66.9005 18.3058C66.9474 18.2117 66.9474 18.0705 66.9474 17.9293V17.7882H66.3379V17.4587H67.9788V17.7882H67.3693V17.9293C67.3693 18.0705 67.4162 18.1646 67.4162 18.2587ZM66.713 16.9411H67.6506V17.2235H66.713V16.9411ZM68.4007 19.8587V18.3999H67.8381V18.0705H68.4007V16.894H68.7758V19.8587H68.4007Z" fill="black"/>
<path d="M69.1508 19.5295V19.2H69.8072V18.5883H70.1822V19.2H70.9323V18.5883H71.2605V19.2H71.9168V19.5295H69.1508ZM69.3852 18.4942V18.1648H69.8072V17.3177H69.479V16.9883H71.6356V17.3177H71.3074V18.1648H71.7293V18.4942H69.3852ZM70.1353 18.1648H70.9323V17.3177H70.1353V18.1648Z" fill="black"/>
<path d="M73.3233 18.0705C73.3702 18.2117 73.4171 18.3058 73.4639 18.3999C73.5577 18.5411 73.6046 18.6352 73.7452 18.7293C73.839 18.8235 73.9796 18.9176 74.0734 19.0117C74.0265 19.0587 73.9796 19.1058 73.9328 19.1529C73.8859 19.1999 73.839 19.247 73.7921 19.247C73.7452 19.1999 73.6515 19.1529 73.6046 19.1058C73.5577 19.0587 73.4639 18.9646 73.4171 18.9176C73.3702 18.8235 73.2764 18.7764 73.2295 18.6823C73.1826 18.5882 73.1358 18.5411 73.0889 18.447C73.0889 18.5411 73.042 18.5882 72.9951 18.6823C72.9482 18.7764 72.9014 18.8235 72.8076 18.9176C72.7607 19.0117 72.6669 19.0587 72.6201 19.1529C72.5263 19.1999 72.4794 19.294 72.4325 19.3411C72.3857 19.294 72.3388 19.247 72.2919 19.247C72.245 19.1999 72.1981 19.1529 72.1512 19.1058C72.2919 19.0117 72.3857 18.9176 72.5263 18.8235C72.6201 18.7293 72.7138 18.5882 72.8076 18.494C72.8545 18.3999 72.9014 18.2587 72.9482 18.1176C72.9951 17.9764 72.9951 17.8352 72.9951 17.694V17.0352H73.3702V17.694C73.2764 17.8352 73.2764 17.9764 73.3233 18.0705ZM74.3547 16.894H74.7298V19.8587H74.3547V16.894Z" fill="black"/>
<path d="M76.5113 4.09424H61.7904C60.9934 4.09424 60.3839 4.706 60.3839 5.506V19.906C60.3839 20.706 60.9934 21.3178 61.7904 21.3178H76.5113C77.3083 21.3178 77.9177 20.706 77.9177 19.906V5.506C77.9177 4.75306 77.3083 4.09424 76.5113 4.09424ZM76.5113 20.7531H61.7904C61.3215 20.7531 60.9465 20.3766 60.9465 19.906V16.0942H77.3552V19.906C77.3552 20.3766 76.9801 20.7531 76.5113 20.7531Z" fill="black"/>
<path d="M83.778 17.5999C83.8249 17.694 83.8717 17.7882 83.9655 17.8823C84.0593 17.9764 84.1061 18.0235 84.1999 18.0705C84.2937 18.1176 84.3874 18.1646 84.4812 18.2117C84.4343 18.2587 84.3874 18.3058 84.3406 18.3529C84.2937 18.3999 84.2468 18.447 84.2468 18.494C84.1999 18.447 84.153 18.447 84.0593 18.3999C84.0124 18.3529 83.9186 18.3058 83.8717 18.2587C83.8249 18.2117 83.7311 18.1646 83.6842 18.0705C83.6373 18.0235 83.5904 17.9293 83.5436 17.8823C83.5436 17.9293 83.4967 18.0235 83.4498 18.0705C83.4029 18.1176 83.356 18.2117 83.2623 18.2587C83.2154 18.3058 83.1216 18.3529 83.0747 18.447C82.981 18.494 82.9341 18.5411 82.8872 18.5882C82.8403 18.5411 82.7935 18.494 82.7466 18.447C82.6997 18.3999 82.6528 18.3529 82.6059 18.3058C82.6997 18.2587 82.8403 18.1646 82.9341 18.1176C83.0279 18.0235 83.1216 17.9764 83.2154 17.8352C83.2623 17.7411 83.3092 17.694 83.356 17.5999C83.4029 17.5058 83.4029 17.4117 83.4029 17.3176V16.9411H83.778V17.2705C83.7311 17.4117 83.7311 17.5058 83.778 17.5999ZM84.9031 18.8705C85.0907 18.9646 85.1844 19.1529 85.1844 19.294C85.1844 19.4823 85.0907 19.6235 84.95 19.7176C84.7625 19.8117 84.5281 19.9058 84.153 19.9058C83.8249 19.9058 83.5436 19.8587 83.356 19.7176C83.1685 19.6235 83.0747 19.4352 83.0747 19.294C83.0747 19.1058 83.1685 18.9646 83.356 18.8705C83.5436 18.7764 83.778 18.6823 84.153 18.6823C84.4812 18.6823 84.7156 18.7293 84.9031 18.8705ZM83.6373 19.5293C83.778 19.5764 83.9186 19.6235 84.153 19.6235C84.3406 19.6235 84.5281 19.5764 84.6218 19.5293C84.7156 19.4823 84.8094 19.3882 84.8094 19.294C84.8094 19.1999 84.7625 19.1058 84.6218 19.0587C84.4812 19.0117 84.3406 18.9646 84.153 18.9646C83.9655 18.9646 83.778 19.0117 83.6842 19.0587C83.5436 19.1058 83.4967 19.1999 83.4967 19.294C83.4498 19.3882 83.4967 19.4823 83.6373 19.5293ZM85.0907 16.894V17.5529H85.4657V17.8823H85.0907V18.6823H84.7156V16.894H85.0907Z" fill="black"/>
<path d="M87.8098 18.494V17.8352H87.2941C87.2472 18.0235 87.1535 18.1646 87.0128 18.2587C86.8722 18.3529 86.7315 18.3999 86.4971 18.3999C86.2627 18.3999 86.0752 18.3058 85.9345 18.1646C85.7939 18.0235 85.7001 17.8352 85.7001 17.647C85.7001 17.4587 85.7939 17.2705 85.9345 17.1293C86.0752 16.9882 86.2627 16.894 86.4971 16.894C86.6847 16.894 86.8722 16.9411 87.0128 17.0823C87.1535 17.1764 87.2472 17.3176 87.2941 17.5058H87.8098V16.894H88.1849V18.494H87.8098ZM86.2158 17.9764C86.3096 18.0705 86.4034 18.1176 86.544 18.1176C86.6847 18.1176 86.7784 18.0705 86.8722 17.9764C86.9659 17.8823 86.9659 17.7882 86.9659 17.694C86.9659 17.5529 86.9191 17.4587 86.8722 17.4117C86.7784 17.3176 86.6847 17.2705 86.544 17.2705C86.4034 17.2705 86.3096 17.3176 86.2158 17.4117C86.1221 17.5058 86.1221 17.5999 86.1221 17.694C86.0752 17.7882 86.1221 17.8823 86.2158 17.9764ZM86.169 19.8587V18.6352H86.4971V18.9646H87.8098V18.6352H88.1849V19.8587H86.169ZM87.8098 19.1999H86.4971V19.5293H87.8098V19.1999Z" fill="black"/>
<path d="M88.6068 18.5882V18.2587H89.31V17.8823C89.1694 17.8352 89.0756 17.7882 88.9819 17.694C88.8881 17.5999 88.8881 17.5058 88.8881 17.4117C88.8881 17.2705 88.9819 17.1293 89.1694 17.0352C89.3569 16.9411 89.6382 16.894 89.9664 16.894C90.2946 16.894 90.5759 16.9411 90.7634 17.0352C90.9509 17.1293 91.0447 17.2705 91.0447 17.4587C91.0447 17.5529 90.9978 17.647 90.9509 17.7411C90.8571 17.8352 90.7634 17.8823 90.6227 17.9293V18.3058H91.326V18.6352H88.6068V18.5882ZM89.1694 18.9646C89.3569 18.8705 89.6382 18.8235 90.0133 18.8235C90.3883 18.8235 90.6696 18.8705 90.8571 18.9646C91.0447 19.0587 91.1384 19.1999 91.1384 19.3882C91.1384 19.5293 91.0447 19.6705 90.8571 19.7646C90.6696 19.8587 90.3883 19.9058 90.0133 19.9058C89.6382 19.9058 89.4038 19.8587 89.1694 19.7646C88.9819 19.6705 88.8881 19.5293 88.8881 19.3882C88.8881 19.1999 88.9819 19.0587 89.1694 18.9646ZM89.4976 19.5764C89.6382 19.6235 89.7789 19.6705 90.0133 19.6705C90.2008 19.6705 90.3883 19.6235 90.529 19.5764C90.6696 19.5293 90.7165 19.4352 90.7165 19.3882C90.7165 19.294 90.6696 19.247 90.529 19.1529C90.3883 19.1058 90.2477 19.0587 90.0133 19.0587C89.7789 19.0587 89.6382 19.1058 89.4976 19.1529C89.3569 19.1999 89.31 19.294 89.31 19.3411C89.31 19.4352 89.3569 19.5293 89.4976 19.5764ZM89.4976 17.647C89.6382 17.694 89.7789 17.7411 90.0133 17.7411C90.2008 17.7411 90.3883 17.694 90.529 17.647C90.6696 17.5999 90.7165 17.5529 90.7165 17.4587C90.7165 17.3646 90.6696 17.3176 90.529 17.2705C90.3883 17.2235 90.2477 17.1764 90.0602 17.1764C89.8726 17.1764 89.6851 17.2235 89.5444 17.2705C89.4038 17.3176 89.3569 17.4117 89.3569 17.4587C89.3569 17.5058 89.4038 17.5999 89.4976 17.647ZM90.2946 17.9764C90.2477 17.9764 90.2008 17.9764 90.1539 17.9764C90.107 17.9764 90.0601 17.9764 90.0133 17.9764C89.9664 17.9764 89.9195 17.9764 89.8726 17.9764C89.8257 17.9764 89.7789 17.9764 89.732 17.9764V18.3058H90.3414V17.9764H90.2946Z" fill="black"/>
<path d="M91.6072 18.3529V18.0235H93.5763C93.6232 17.9293 93.6232 17.8352 93.67 17.647C93.7169 17.5058 93.7169 17.3646 93.7169 17.2235H91.8885V16.894H94.0451C94.0451 17.0823 94.0451 17.2705 93.9982 17.4587C93.9513 17.647 93.9513 17.8352 93.9045 17.9764H94.3264V18.3529H91.6072ZM91.9823 18.6823H94.0451V19.8117H91.9823V18.6823ZM93.67 19.0117H92.3105V19.5293H93.67V19.0117Z" fill="black"/>
<path d="M95.8266 18.0705C95.8735 18.2117 95.9204 18.3058 95.9673 18.447C96.0141 18.5882 96.1079 18.6823 96.2017 18.7764C96.2954 18.8705 96.4361 18.9646 96.5767 19.0587C96.5298 19.1058 96.483 19.1529 96.4361 19.1999C96.3892 19.247 96.3423 19.294 96.2954 19.3411C96.2485 19.294 96.1548 19.247 96.1079 19.1999C96.061 19.1529 95.9673 19.1058 95.9204 19.0117C95.8735 18.9176 95.7797 18.8705 95.7328 18.7764C95.686 18.6823 95.6391 18.6352 95.5922 18.5411C95.5453 18.6352 95.5453 18.7293 95.4516 18.7764C95.4047 18.8705 95.3578 18.9176 95.264 19.0117C95.2171 19.1058 95.1234 19.1529 95.0296 19.247C94.9359 19.294 94.889 19.3882 94.7952 19.4352C94.7483 19.3882 94.7014 19.3411 94.6546 19.3411C94.6077 19.294 94.5608 19.247 94.467 19.1999C94.6077 19.1058 94.7015 19.0117 94.8421 18.9176C94.9359 18.8235 95.0296 18.6823 95.1234 18.5882C95.1703 18.447 95.2171 18.3529 95.264 18.2117C95.3109 18.0705 95.3109 17.9293 95.3109 17.7411V17.5058H94.7015V17.1764H96.2954V17.5058H95.686V17.7882C95.7797 17.7882 95.7797 17.9293 95.8266 18.0705ZM96.8111 16.894H97.1862V19.8587H96.8111V16.894Z" fill="black"/>
<path d="M97.4675 4.09424H82.7466C81.9496 4.09424 81.3401 4.706 81.3401 5.506V19.906C81.3401 20.706 81.9496 21.3178 82.7466 21.3178H97.4675C98.2645 21.3178 98.874 20.706 98.874 19.906V5.506C98.874 4.75306 98.2645 4.09424 97.4675 4.09424ZM97.4675 20.7531H82.7466C82.2778 20.7531 81.9027 20.3766 81.9027 19.906V16.0942H98.2645V19.906C98.3114 20.3766 97.9363 20.7531 97.4675 20.7531Z" fill="black"/>
<path d="M98.1238 15.2L93.7638 12.3294C93.8576 11.953 93.9513 11.5765 93.9513 11.2C93.9513 9.45884 92.7793 7.95296 91.1853 7.48237L91.9823 6.11766C92.0292 6.02354 92.0292 5.92943 91.9823 5.83531C91.9354 5.74119 91.8417 5.69413 91.7479 5.69413H88.4662C88.3724 5.69413 88.2786 5.74119 88.2318 5.83531C88.1849 5.92943 88.1849 6.02354 88.2318 6.11766L89.0287 7.48237C88.513 7.62354 88.0442 7.9059 87.6223 8.23531L82.6059 4.89413C82.4653 4.80001 82.3715 4.80001 82.3246 4.84707L82.1371 5.08237C82.0902 5.12943 82.184 5.22354 82.2778 5.31766L87.2004 8.56472C86.5909 9.2706 86.2158 10.1647 86.2158 11.153C86.2158 13.2706 87.9505 15.0118 90.107 15.0118C91.6541 15.0118 93.0137 14.0706 93.6232 12.753L97.8894 15.5765C98.0301 15.6706 98.1238 15.6706 98.1707 15.6235L98.3582 15.3882C98.3582 15.3882 98.2645 15.2471 98.1238 15.2Z" fill="white"/>
<path d="M91.7948 10.9648L92.1698 9.6001H91.6073L91.2322 10.9648H90.7165L90.5759 10.4472L90.3883 9.6001H89.8258L89.4507 10.9648H88.935L88.5599 9.6001H87.9974L88.3255 10.9648H87.5285V11.4825H88.4662L88.8412 12.9883H89.4038L89.4976 12.6119L89.8258 11.4825H90.2946L90.529 12.4236L90.6696 12.9883H91.2322L91.6541 11.4825H92.6387V10.9648H91.7948ZM89.3569 11.4825C89.3101 11.7177 89.2632 11.906 89.2163 12.0942C89.1694 11.906 89.1225 11.6707 89.0756 11.4825H89.3569ZM90.0133 10.9648C90.0602 10.8236 90.107 10.6354 90.107 10.4942C90.1539 10.6354 90.1539 10.7766 90.2008 10.9648H90.0133ZM91.1384 11.4825C91.0916 11.6707 91.0447 11.906 90.9978 12.0942C90.9509 11.906 90.904 11.6707 90.8572 11.4825H91.1384Z" fill="black"/>
<path d="M72.5263 12.8472C72.245 10.8236 71.3543 9.74127 70.5573 9.22363C70.9323 8.84716 71.2136 8.32951 71.2136 7.71774C71.2136 6.54127 70.276 5.6001 69.1039 5.6001C67.9319 5.6001 66.9942 6.54127 66.9942 7.71774C66.9942 8.32951 67.2287 8.84716 67.6506 9.22363C66.8536 9.74127 65.9629 10.7766 65.6816 12.8472C65.6347 13.1295 65.6347 13.4119 65.6347 13.6472C65.6347 13.8825 65.6347 14.1177 65.6816 14.353C65.7284 14.6354 65.9628 14.8236 66.2441 14.8236H71.9637C72.245 14.8236 72.4794 14.6354 72.5263 14.353C72.5732 14.1648 72.5732 13.9295 72.5732 13.6472C72.6201 13.4119 72.5732 13.1295 72.5263 12.8472Z" fill="white"/>
<path d="M27.9416 8.42343C27.6603 7.95284 27.3322 7.57637 26.8633 7.29402C26.4414 7.01166 25.9257 6.82343 25.3631 6.72931C24.8005 6.63519 24.238 6.58813 23.6285 6.58813H19.2685C19.2216 6.58813 19.1278 6.63519 19.0809 6.68225C19.0341 6.72931 18.9872 6.82343 18.9872 6.87049V18.5411C18.9872 18.5881 19.0341 18.6823 19.0809 18.7293C19.1278 18.7764 19.2216 18.8234 19.2685 18.8234H20.8156C20.9093 18.8234 20.9562 18.7764 21.0031 18.7293C21.05 18.6823 21.0969 18.5881 21.0969 18.5411V14.1175H23.7691C25.2225 14.1175 26.3945 13.7881 27.1915 13.1293C27.9885 12.4705 28.4104 11.4823 28.4104 10.2117C28.3636 9.55284 28.2229 8.94108 27.9416 8.42343ZM23.7691 12.1881H21.05V8.47049H23.6754C24.0504 8.47049 24.3786 8.51755 24.7068 8.56461C25.0349 8.61166 25.2694 8.70578 25.5038 8.84696C25.7382 8.98813 25.8788 9.12931 26.0195 9.36461C26.1601 9.5999 26.207 9.88225 26.207 10.3058C26.207 10.6352 26.1601 10.9175 26.0664 11.1528C25.9726 11.3881 25.8319 11.5764 25.6444 11.7175C25.4569 11.8587 25.2225 11.9999 24.8943 12.094C24.613 12.1411 24.238 12.1881 23.7691 12.1881Z" fill="black"/>
<path d="M38.5369 16.9413C38.49 16.8942 38.3963 16.8471 38.3494 16.8471H31.5046V13.4118H37.6931C37.7868 13.4118 37.8337 13.3648 37.8806 13.3177C37.9275 13.2707 37.9743 13.1766 37.9743 13.1295V11.7177C37.9743 11.6707 37.9275 11.5766 37.8806 11.5295C37.8337 11.4824 37.7868 11.4354 37.6931 11.4354H31.4578V8.42361H38.0681C38.1619 8.42361 38.2088 8.37655 38.2556 8.3295C38.3025 8.28244 38.3494 8.23538 38.3494 8.14126V6.7295C38.3494 6.68244 38.3025 6.58832 38.2556 6.54126C38.2556 6.58832 38.1619 6.58832 38.115 6.58832H29.6762C29.5825 6.58832 29.5356 6.63538 29.4887 6.68244C29.4418 6.7295 29.395 6.82361 29.395 6.87067V18.5413C29.395 18.5883 29.4418 18.6824 29.4887 18.7295C29.5356 18.7766 29.5825 18.8236 29.6762 18.8236H38.3494C38.4432 18.8236 38.49 18.7766 38.5369 18.7295C38.5838 18.6824 38.6307 18.5883 38.6307 18.5413V17.1295C38.6307 17.0824 38.5838 16.9883 38.5369 16.9413Z" fill="black"/>
<path d="M49.4604 6.63538C49.4135 6.58832 49.3198 6.54126 49.2729 6.54126H47.7727C47.6789 6.54126 47.632 6.58832 47.5851 6.63538C47.5382 6.68244 47.4914 6.77655 47.4914 6.82361V15.153L41.9124 6.68244C41.8655 6.58832 41.7718 6.54126 41.678 6.54126H40.084C40.0371 6.54126 39.9434 6.58832 39.8965 6.63538C39.8496 6.68244 39.8496 6.77655 39.8496 6.82361V18.4942C39.8496 18.5413 39.8965 18.6354 39.9434 18.6824C39.9903 18.7295 40.0371 18.7766 40.1309 18.7766H41.5842C41.678 18.7766 41.7249 18.7295 41.7718 18.6824C41.8186 18.6354 41.8655 18.5413 41.8655 18.4942V10.2118L47.4914 18.6824C47.5382 18.7766 47.632 18.8236 47.7258 18.8236H49.3198C49.4135 18.8236 49.4604 18.7766 49.5073 18.7295C49.5542 18.6824 49.601 18.5883 49.601 18.5413V6.82361C49.5073 6.77655 49.5073 6.68244 49.4604 6.63538Z" fill="black"/>
<path d="M10.9235 7.62344C13.3145 7.62344 15.2835 9.41168 15.6585 11.7176C16.4555 11.8587 17.1588 12.047 17.6745 12.2823C17.6745 12.1411 17.6745 12.047 17.6745 12.047C17.4869 8.4705 14.5334 5.64697 10.9235 5.64697C7.36045 5.64697 4.45377 8.42344 4.21936 11.9529C4.21936 12.1881 4.36001 12.6117 5.01635 12.9411H4.96947C5.62582 13.3176 6.65722 13.7411 7.87615 13.7411C8.76691 13.7411 9.98584 13.5058 11.0172 12.7999C11.7205 12.3293 12.5175 11.8587 13.4082 11.8587C13.6895 11.8587 13.9239 11.9058 14.2052 11.9529C14.299 11.9529 14.3459 11.9999 14.4396 11.9999C14.4396 11.9999 14.674 12.1411 14.7209 11.9529C14.7678 11.8587 14.7209 11.7646 14.674 11.7176C14.5803 11.5764 14.3927 11.4352 14.2521 11.3411C14.0646 11.1999 13.8302 11.1058 13.6426 11.0587C13.1269 10.9176 12.6112 10.9646 12.0955 11.0587C11.5798 11.1529 11.0641 11.3411 10.5953 11.5764C9.79831 11.9529 8.90755 12.094 8.39185 12.094C7.54798 12.094 7.03228 11.7176 6.7041 11.3411C6.61034 11.1999 6.51657 11.0587 6.42281 10.9646C6.98539 9.08227 8.76691 7.62344 10.9235 7.62344Z" fill="#00B193"/>
<path d="M15.7523 12.5176C15.7523 12.6588 15.7523 12.7529 15.7523 12.847C15.5648 15.3411 13.502 17.3176 10.9703 17.3176C8.90754 17.3176 7.2198 16.1882 6.56345 14.3529C6.09463 14.2588 4.96946 13.9293 4.26624 13.3646C4.59441 16.7999 7.50109 19.294 10.9703 19.294C14.4865 19.294 17.3463 16.6117 17.6745 13.1764C17.065 12.7999 16.3618 12.6117 15.7523 12.5176Z" fill="black"/>
<path d="M24.238 27.6234H22.222V26.7764H21.6595V27.6234H20.1592V28.094H24.2848L24.238 27.6234C24.2849 27.6705 24.238 27.6705 24.238 27.6234C24.238 27.6705 24.238 27.6234 24.238 27.6234ZM23.3941 28.7529C23.1128 28.5646 22.6909 28.4705 22.1283 28.4705C21.6126 28.4705 21.1906 28.5646 20.9094 28.7529C20.6281 28.9411 20.4874 29.1764 20.4874 29.4587C20.4874 29.7411 20.6281 29.9764 20.9094 30.1646C21.1906 30.3529 21.6126 30.447 22.1283 30.447C22.644 30.447 23.0659 30.3529 23.3472 30.1646C23.6285 29.9764 23.7691 29.7411 23.7691 29.4587C23.8629 29.1764 23.7223 28.9411 23.3941 28.7529ZM22.9253 29.8352C22.7377 29.9293 22.5033 29.9764 22.1752 29.9764C21.847 29.9764 21.6126 29.9293 21.4251 29.8352C21.2375 29.7411 21.1438 29.647 21.1438 29.4587C21.1438 29.3176 21.2375 29.1764 21.4251 29.1293C21.6126 29.0352 21.847 28.9881 22.1752 28.9881C22.5033 28.9881 22.7377 29.0352 22.9253 29.1293C23.1128 29.2234 23.2066 29.3176 23.2066 29.4587C23.2066 29.647 23.1128 29.7411 22.9253 29.8352ZM20.5812 26.3058H23.2534C23.2534 26.494 23.2534 26.6352 23.2066 26.8234C23.1597 27.0117 23.1597 27.1999 23.1128 27.3411C23.1128 27.3411 23.1128 27.3411 23.1128 27.3881C23.1128 27.3881 23.1128 27.3881 23.1597 27.3881H23.6754C23.6754 27.3881 23.7223 27.3881 23.7223 27.3411C23.7691 27.1058 23.816 26.8705 23.816 26.5881C23.8629 26.3529 23.8629 26.0234 23.8629 25.7411H20.6281L20.5812 26.3058C20.5343 26.3058 20.5343 26.3058 20.5812 26.3058C20.5343 26.3058 20.5343 26.3058 20.5812 26.3058ZM24.9881 26.3058H27.6603C27.6603 26.494 27.6603 26.6352 27.6135 26.8234C27.5666 27.0117 27.5666 27.1999 27.5197 27.3411C27.5197 27.3411 27.5197 27.3411 27.5197 27.3881C27.5197 27.3881 27.5197 27.3881 27.5666 27.3881H28.0823C28.0823 27.3881 28.1292 27.3881 28.1292 27.3411C28.176 27.1058 28.2229 26.8705 28.2229 26.5881C28.2698 26.3529 28.2698 26.0234 28.2698 25.7411H25.035L24.9881 26.3058C24.9412 26.3058 24.9881 26.3058 24.9881 26.3058ZM27.8479 28.7529C27.5666 28.5646 27.1446 28.4705 26.5821 28.4705C26.0664 28.4705 25.6444 28.5646 25.3631 28.7529C25.0818 28.9411 24.9412 29.1764 24.9412 29.4587C24.9412 29.7411 25.0818 29.9764 25.3631 30.1646C25.6444 30.3529 26.0664 30.447 26.5821 30.447C27.1446 30.447 27.5197 30.3529 27.801 30.1646C28.0823 29.9764 28.2229 29.7411 28.2229 29.4587C28.2698 29.1764 28.1292 28.9411 27.8479 28.7529ZM27.3791 29.8352C27.1915 29.9293 26.9571 29.9764 26.6289 29.9764C26.3008 29.9764 26.0664 29.9293 25.8788 29.8352C25.6913 29.7411 25.5975 29.647 25.5975 29.4587C25.5975 29.3176 25.6913 29.1764 25.8788 29.1293C26.0664 29.0352 26.3008 28.9881 26.6289 28.9881C26.9571 28.9881 27.1915 29.0352 27.3791 29.1293C27.5666 29.2234 27.6603 29.3176 27.6603 29.4587C27.6135 29.647 27.5666 29.7411 27.3791 29.8352ZM28.6449 27.6234H26.6289V26.7764H26.0664V27.6234H24.5661V28.094H28.6918L28.6449 27.6234C28.6917 27.6705 28.6917 27.6705 28.6449 27.6234C28.6917 27.6705 28.6917 27.6234 28.6449 27.6234ZM29.4887 27.7176H32.6767V27.247H30.0513V25.9293H29.5356L29.4887 27.7176C29.4419 27.6705 29.4887 27.6705 29.4887 27.7176ZM33.0986 28.2352H28.973V28.7058H30.7077V30.2587H31.2703V28.7058H33.0049L33.0986 28.2352C33.1455 28.2352 33.1455 28.2352 33.0986 28.2352ZM36.4273 28.6117C36.2866 28.6587 36.0522 28.6587 35.7709 28.7058C35.4896 28.7529 35.2083 28.7529 35.0208 28.7529H34.3645V27.8587H35.8647V25.9764H33.8019V26.447H35.3021V27.294H33.8019V29.2234C33.8019 29.2234 33.9425 29.2234 34.2707 29.2234C34.5989 29.2234 34.7864 29.2234 34.8333 29.2234C35.1146 29.2234 35.4427 29.1764 35.724 29.1764C36.0522 29.1293 36.2397 29.1293 36.4273 29.0823C36.4273 29.0823 36.4741 29.0823 36.4741 29.0352L36.4273 28.6117C36.4741 28.6117 36.4741 28.6117 36.4273 28.6117ZM37.1774 25.647H36.6148V30.3058H37.1305L37.1774 25.647C37.2243 25.694 37.1774 25.694 37.1774 25.647Z" fill="white"/>
<path d="M57.2428 28.0941V27.7647H58.6962V26.9177H59.0712V27.7647H60.9934V28.0941H57.2428ZM57.9929 29.8353C57.7585 29.6941 57.6179 29.5059 57.6179 29.2706C57.6179 29.0353 57.7585 28.8471 57.9929 28.7059C58.2273 28.5647 58.6024 28.4706 59.0712 28.4706C59.54 28.4706 59.9151 28.5647 60.1495 28.7059C60.3839 28.8471 60.5246 29.0353 60.5246 29.2706C60.5246 29.5059 60.3839 29.6941 60.1495 29.8353C59.9151 29.9765 59.54 30.0706 59.0712 30.0706C58.6493 30.0706 58.2742 30.0236 57.9929 29.8353ZM60.5246 26.1177C60.5246 26.353 60.5246 26.6353 60.4777 26.8706C60.4308 27.1059 60.4308 27.3412 60.3839 27.5294H60.0089C60.0557 27.3883 60.0557 27.2 60.1026 27.0118C60.1495 26.8236 60.1495 26.6353 60.1495 26.4471H57.6648V26.1177H60.5246ZM58.3211 29.6471C58.5086 29.7412 58.7899 29.7883 59.0712 29.7883C59.3994 29.7883 59.6338 29.7412 59.8213 29.6471C60.0089 29.553 60.1026 29.4118 60.1026 29.2706C60.1026 29.1294 60.0089 28.9883 59.8213 28.8941C59.6338 28.8 59.3525 28.753 59.0712 28.753C58.743 28.753 58.5086 28.8 58.3211 28.8941C58.1336 28.9883 58.0398 29.0824 58.0398 29.2706C58.0398 29.4589 58.1336 29.553 58.3211 29.6471Z" fill="white"/>
<path d="M61.2747 28.0941V27.7647H62.728V26.9177H63.1031V27.7647H65.0252V28.0941H61.2747ZM62.0248 29.8353C61.7904 29.6941 61.6497 29.5059 61.6497 29.2706C61.6497 29.0353 61.7904 28.8471 62.0248 28.7059C62.2592 28.5647 62.6342 28.4706 63.1031 28.4706C63.5719 28.4706 63.9469 28.5647 64.1813 28.7059C64.4157 28.8471 64.5564 29.0353 64.5564 29.2706C64.5564 29.5059 64.4157 29.6941 64.1813 29.8353C63.9469 29.9765 63.5719 30.0706 63.1031 30.0706C62.6811 30.0706 62.3061 30.0236 62.0248 29.8353ZM64.5564 26.1177C64.5564 26.353 64.5564 26.6353 64.5095 26.8706C64.4626 27.1059 64.4157 27.3412 64.4157 27.5294H64.0407C64.0876 27.3883 64.0876 27.2 64.1345 27.0118C64.1813 26.8236 64.1813 26.6353 64.1813 26.4471H61.6966V26.1177H64.5564ZM62.3529 29.6471C62.5405 29.7412 62.8218 29.7883 63.1031 29.7883C63.4312 29.7883 63.6656 29.7412 63.8532 29.6471C64.0407 29.553 64.1345 29.4118 64.1345 29.2706C64.1345 29.1294 64.0407 28.9883 63.8532 28.8941C63.6656 28.8 63.3843 28.753 63.1031 28.753C62.7749 28.753 62.5405 28.8 62.3529 28.8941C62.1654 28.9883 62.0716 29.0824 62.0716 29.2706C62.0716 29.4589 62.1654 29.553 62.3529 29.6471Z" fill="white"/>
<path d="M66.9005 27.5293C66.9474 27.7176 66.9943 27.8587 67.088 28.047C67.1818 28.1881 67.2756 28.3764 67.4631 28.5176C67.6037 28.6587 67.7913 28.7999 67.9788 28.894C67.9319 28.9411 67.885 28.9881 67.8381 29.0352C67.7913 29.0823 67.7444 29.1293 67.6975 29.1764C67.6037 29.1293 67.51 29.0352 67.4162 28.9411C67.3224 28.847 67.2287 28.7529 67.1349 28.6587C67.0411 28.5646 66.9474 28.4234 66.8536 28.2823C66.7599 28.1411 66.713 28.047 66.6661 27.9058C66.6192 28.047 66.5723 28.1411 66.5254 28.2823C66.4786 28.4234 66.3848 28.5176 66.291 28.6587C66.1973 28.7999 66.1035 28.894 66.0097 28.9881C65.916 29.0823 65.7753 29.1764 65.6816 29.2705C65.6347 29.2234 65.5878 29.1764 65.5409 29.1293C65.494 29.0823 65.4003 29.0352 65.3534 28.9881C65.5409 28.894 65.7285 28.7528 65.8691 28.6117C66.0097 28.4705 66.1504 28.3293 66.2442 28.1411C66.3379 27.9528 66.4317 27.7646 66.4786 27.5764C66.5254 27.3881 66.5723 27.1529 66.5723 26.9176V26.5881H65.6816V26.2587H67.8381V26.5881H66.9474V26.9646C66.8536 27.1528 66.8536 27.3411 66.9005 27.5293ZM68.4007 30.0234V27.6234H67.5568V27.294H68.4007V26.0234H68.7758V30.0234H68.4007Z" fill="white"/>
<path d="M70.8854 27.0587C70.9323 27.1999 71.0261 27.294 71.1199 27.3881C71.2136 27.4823 71.3074 27.5764 71.448 27.6705C71.5887 27.7646 71.7293 27.8117 71.87 27.8587C71.8231 27.9058 71.7762 27.9528 71.7293 27.9999C71.6824 28.047 71.6356 28.094 71.6356 28.1411C71.5418 28.094 71.448 28.047 71.3543 27.9999C71.2605 27.9528 71.1667 27.8587 71.073 27.8117C70.9792 27.7646 70.9323 27.6705 70.8386 27.5764C70.7448 27.4823 70.6979 27.3881 70.651 27.294C70.6042 27.3881 70.5573 27.4823 70.5104 27.5764C70.4635 27.6705 70.3697 27.7646 70.3229 27.8117C70.2291 27.9058 70.1353 27.9999 69.9947 28.047C69.9009 28.1411 69.7603 28.1881 69.6665 28.2352C69.6196 28.1881 69.5728 28.1411 69.5259 28.094C69.479 28.047 69.4321 27.9999 69.3852 27.9529C69.5728 27.8587 69.7134 27.8117 69.854 27.6705C69.9947 27.5764 70.1353 27.4352 70.2291 27.294C70.3229 27.1999 70.3697 27.0587 70.4166 26.9176C70.4635 26.7764 70.4635 26.6352 70.4635 26.494V26.3999H69.6665V26.0705H71.6824V26.3999H70.8854V26.494C70.8386 26.7764 70.8386 26.9176 70.8854 27.0587ZM72.245 30.0234V28.894H69.9478V28.5646H72.6201V29.9764H72.245V30.0234ZM72.6201 27.294V28.4234H72.245V26.0234H72.6201V26.9646H73.1827V27.294H72.6201Z" fill="white"/>
<path d="M75.3861 27.953V28.3765H76.5582V29.3177H74.2141V29.6941H76.605V29.9765H73.7921V29.0353H76.1362V28.6589H73.7921V28.3765H74.9642V27.953H73.2764V27.6706H77.027V27.953H75.3861ZM73.839 26.1177H76.605V27.2941H73.839V26.1177ZM76.23 26.4H74.2141V27.0118H76.23V26.4Z" fill="white"/>
<path d="M80.2618 27.5293C80.3087 27.7176 80.3556 27.8587 80.4494 28.047C80.5431 28.1881 80.6838 28.3764 80.8244 28.5176C80.9651 28.6587 81.1526 28.7999 81.3401 28.894C81.2932 28.9411 81.2463 28.9881 81.1995 29.0352C81.1526 29.0823 81.1057 29.1293 81.0588 29.1764C80.9651 29.1293 80.8713 29.0352 80.7775 28.9411C80.6838 28.847 80.59 28.7529 80.4962 28.6587C80.4025 28.5646 80.3087 28.4234 80.2149 28.2823C80.1212 28.1411 80.0743 28.047 80.0274 27.9058C79.9805 28.047 79.9337 28.1411 79.8868 28.2823C79.793 28.4234 79.7461 28.5176 79.6524 28.6587C79.5586 28.7999 79.4648 28.894 79.3711 28.9881C79.2773 29.0823 79.1367 29.1764 79.0429 29.2705C78.996 29.2234 78.9491 29.1764 78.9023 29.1293C78.8554 29.0823 78.7616 29.0352 78.7147 28.9881C78.9022 28.894 79.0898 28.7528 79.2304 28.6117C79.3711 28.4705 79.5117 28.3293 79.6055 28.1411C79.6992 27.9528 79.793 27.7646 79.8399 27.5764C79.8868 27.3881 79.9337 27.1529 79.9337 26.9176V26.5881H79.0898V26.2587H81.2463V26.5881H80.3556V26.9646C80.2149 27.1528 80.2149 27.3411 80.2618 27.5293ZM81.9496 26.0234V27.5764H82.559V27.9058H81.9496V30.0234H81.5745V26.0234H81.9496Z" fill="white"/>
<path d="M85.5126 28.6117V30.0234H85.1376V28.6117H84.153V29.9764H83.778V28.6117H82.7935V28.2823H86.544V28.6117H85.5126ZM83.5436 27.6234C83.2623 27.4352 83.1685 27.247 83.1685 26.9646C83.1685 26.6823 83.3092 26.494 83.5436 26.3058C83.778 26.1176 84.153 26.0234 84.6218 26.0234C85.0907 26.0234 85.4188 26.1176 85.7001 26.3058C85.9345 26.494 86.0752 26.6823 86.0752 26.9646C86.0752 27.1999 85.9345 27.4352 85.7001 27.6234C85.4657 27.8117 85.0907 27.9058 84.6218 27.9058C84.153 27.8587 83.8249 27.8117 83.5436 27.6234ZM83.8717 27.3881C84.0593 27.4823 84.3406 27.5293 84.6218 27.5293C84.9031 27.5293 85.1844 27.4823 85.372 27.3881C85.5595 27.294 85.6532 27.1528 85.6532 26.9646C85.6532 26.7764 85.5595 26.6352 85.372 26.5411C85.1844 26.447 84.9031 26.3999 84.6218 26.3999C84.3406 26.3999 84.0593 26.447 83.8717 26.5411C83.6842 26.6352 83.5904 26.7764 83.5904 26.9646C83.5904 27.1528 83.6842 27.294 83.8717 27.3881Z" fill="white"/>
<path d="M87.341 26.494C87.5285 26.2587 87.7629 26.1176 88.0442 26.1176C88.2786 26.1176 88.513 26.2587 88.7474 26.494C88.935 26.7293 89.0756 27.1058 89.0756 27.6705C89.0756 28.1881 88.9819 28.5646 88.7474 28.7999C88.5599 29.0352 88.3255 29.1764 88.0442 29.1764C87.8098 29.1764 87.5754 29.0352 87.341 28.7999C87.1535 28.5646 87.0128 28.1881 87.0128 27.6705C87.0128 27.1058 87.1066 26.7293 87.341 26.494ZM87.5285 28.4705C87.6223 28.7058 87.8098 28.847 87.9973 28.847C88.1849 28.847 88.3724 28.7058 88.4662 28.4705C88.5599 28.2352 88.6068 27.9528 88.6068 27.6234C88.6068 27.3411 88.5599 27.0587 88.4662 26.8234C88.3724 26.5881 88.2317 26.447 87.9973 26.447C87.8098 26.447 87.6223 26.5881 87.5285 26.8234C87.4348 27.0587 87.341 27.3411 87.341 27.6234C87.3879 27.9528 87.4348 28.2352 87.5285 28.4705ZM89.8257 26.0234H90.2008V30.0234H89.8257V26.0234Z" fill="white"/>
<path d="M90.8102 28.2824V27.953H91.8416V27.3412C91.6541 27.2941 91.5135 27.2 91.4197 27.0589C91.3259 26.9647 91.2791 26.8236 91.2791 26.6824C91.2791 26.4471 91.4197 26.3059 91.6541 26.1647C91.8885 26.0236 92.2636 25.9294 92.6855 25.9294C93.1543 25.9294 93.4825 26.0236 93.7638 26.1647C93.9982 26.3059 94.1389 26.4942 94.1389 26.6824C94.1389 26.8236 94.092 26.9177 93.9982 27.0589C93.9045 27.153 93.7638 27.2471 93.5763 27.3412V27.953H94.6077V28.2824H90.8102ZM91.6072 28.8C91.8416 28.6589 92.2167 28.6118 92.6855 28.6118C93.1543 28.6118 93.5294 28.7059 93.7638 28.8471C93.9982 28.9883 94.1389 29.1765 94.1389 29.3647C94.1389 29.553 93.9982 29.7412 93.7638 29.8824C93.5294 30.0236 93.1543 30.1177 92.6855 30.1177C92.2167 30.1177 91.8416 30.0236 91.6072 29.8824C91.3728 29.7412 91.2322 29.553 91.2322 29.3647C91.2322 29.1294 91.3728 28.9412 91.6072 28.8ZM91.9354 29.6471C92.1229 29.7412 92.3573 29.7883 92.6855 29.7883C93.0137 29.7883 93.2481 29.7412 93.4356 29.6471C93.6232 29.553 93.7169 29.4589 93.7169 29.3177C93.7169 29.1765 93.6232 29.0353 93.4356 28.9883C93.2481 28.8941 93.0137 28.8471 92.6855 28.8471C92.3573 28.8471 92.1229 28.8941 91.9354 28.9883C91.7479 29.0824 91.6541 29.1765 91.6541 29.3177C91.6541 29.4589 91.7479 29.6 91.9354 29.6471ZM91.9354 27.0589C92.1229 27.153 92.3573 27.2 92.6855 27.2C93.0137 27.2 93.2481 27.153 93.4356 27.0589C93.6232 26.9647 93.7169 26.8706 93.7169 26.7294C93.7169 26.5883 93.6232 26.4941 93.4356 26.4C93.2481 26.3059 93.0137 26.2589 92.6855 26.2589C92.4042 26.2589 92.1229 26.3059 91.9354 26.4C91.7479 26.4941 91.6541 26.5883 91.6541 26.7294C91.6541 26.8706 91.7479 26.9647 91.9354 27.0589ZM93.1543 27.4353C93.0606 27.4353 93.0137 27.4824 92.9199 27.4824C92.8262 27.4824 92.7324 27.4824 92.6386 27.4824C92.5449 27.4824 92.4511 27.4824 92.4042 27.4824C92.3105 27.4824 92.2636 27.4824 92.1698 27.4353V27.953H93.1543V27.4353Z" fill="white"/>
<path d="M95.0765 26.7293H97.4206V27.0587H95.0765V26.7293ZM95.4984 27.6705C95.686 27.4823 95.9204 27.3881 96.2486 27.3881C96.5298 27.3881 96.7643 27.4823 96.9518 27.6705C97.1393 27.8587 97.2331 28.094 97.2331 28.3293C97.2331 28.5646 97.1393 28.7999 96.9518 28.9881C96.7643 29.1764 96.5298 29.2705 96.2486 29.2705C95.9673 29.2705 95.686 29.1764 95.4984 28.9881C95.3109 28.7999 95.2172 28.5646 95.2172 28.3293C95.2172 28.047 95.3109 27.8587 95.4984 27.6705ZM95.7797 28.7999C95.8735 28.9411 96.061 28.9881 96.2486 28.9881C96.4361 28.9881 96.5767 28.9411 96.7174 28.7999C96.8111 28.6587 96.9049 28.5176 96.9049 28.3293C96.9049 28.1411 96.858 27.9999 96.7174 27.8587C96.6236 27.7176 96.4361 27.6705 96.2486 27.6705C96.061 27.6705 95.8735 27.7176 95.7797 27.8587C95.686 27.9999 95.5922 28.1411 95.5922 28.3293C95.5922 28.5176 95.6391 28.6587 95.7797 28.7999ZM95.6391 26.0705H96.858V26.3999H95.6391V26.0705ZM97.9832 30.0234V28.047H97.3268V27.7176H97.9832V26.0234H98.3582V30.0234H97.9832Z" fill="white"/>
<path d="M101.593 28.094C101.452 28.1411 101.218 28.1411 100.937 28.1881C100.655 28.2352 100.374 28.2352 100.14 28.2352C99.9991 28.2352 99.7647 28.2352 99.5303 28.2352C99.2959 28.2352 99.1552 28.2352 99.1552 28.2352V27.0117H100.655V26.447H99.1552V26.1176H100.984V27.294H99.4834V27.9058H100.187C100.374 27.9058 100.609 27.9058 100.89 27.8587C101.171 27.8117 101.406 27.8117 101.546 27.7646V28.094H101.593ZM101.781 30.0234V28.9881H99.4834V28.6587H102.156V30.0234H101.781ZM102.156 27.294V28.5176H101.781V26.0234H102.156V26.9646H102.718V27.294H102.156Z" fill="white"/>
</svg>
