<svg width="106" height="32" viewBox="0 0 106 32" fill="none" xmlns="http://www.w3.org/2000/svg">
<path d="M103.14 0H2.8598C1.26581 0 0 1.27059 0 2.87059V32H106V24.8V24.7529V2.87059C106 1.27059 104.734 0 103.14 0ZM1.21893 2.87059C1.21893 1.92941 1.96904 1.17647 2.90668 1.17647H53.6329V24.0941H1.21893V2.87059ZM104.781 24.1412H54.7581V1.22353H103.14C104.078 1.22353 104.781 1.97647 104.828 2.91765V24.1412H104.781Z" fill="black"/>
<path d="M64.7908 18.4472V18.6825H65.6347V19.3883H63.9469V19.5766H65.6816V19.8589H63.525V19.1531H65.2127V18.9648H63.525V18.7295H64.3689V18.4942H63.1968V18.2119H65.9628V18.4942H64.7908V18.4472ZM65.0252 17.6472C65.0721 17.6942 65.1658 17.6942 65.2596 17.7413C65.3534 17.7883 65.4471 17.7883 65.5409 17.7883C65.6347 17.7883 65.7284 17.8354 65.8222 17.8354C65.7753 17.8825 65.7753 17.9295 65.7284 17.9766C65.6815 18.0236 65.6347 18.0707 65.6347 18.1178C65.5409 18.1178 65.4471 18.0707 65.3534 18.0707C65.2596 18.0707 65.1659 18.0236 65.0721 17.9766C64.9783 17.9295 64.8846 17.8825 64.7908 17.8354C64.697 17.7883 64.6501 17.7413 64.6033 17.6942C64.5564 17.7413 64.5095 17.7883 64.4157 17.8354C64.322 17.8825 64.2751 17.9295 64.1813 17.9295C64.0876 17.9766 63.9938 17.9766 63.9 18.0236C63.8063 18.0707 63.7125 18.0707 63.5719 18.0707C63.525 18.0236 63.525 17.9766 63.4781 17.9295C63.4312 17.8825 63.3843 17.8354 63.3843 17.7883C63.4781 17.7883 63.5719 17.7883 63.7125 17.7413C63.8063 17.7413 63.9 17.6942 63.9938 17.6942C64.0876 17.6472 64.1344 17.6472 64.2282 17.6001C64.2751 17.5531 64.322 17.506 64.3689 17.506H63.5719V17.2707H65.7284V17.506H64.9314C64.8846 17.5531 64.9314 17.6001 65.0252 17.6472ZM63.9938 16.8472H65.1658V17.0825H63.9938V16.8472Z" fill="black"/>
<path d="M67.4631 18.2587C67.51 18.3529 67.5568 18.447 67.6037 18.5411C67.6506 18.6352 67.7444 18.7293 67.8381 18.8235C67.9319 18.9176 68.0257 18.9646 68.1194 19.0117C68.0725 19.0587 68.0257 19.1058 67.9788 19.1529C67.9319 19.1999 67.885 19.247 67.885 19.294C67.8381 19.247 67.7444 19.1999 67.6975 19.1529C67.6506 19.1058 67.5568 19.0587 67.51 18.9646C67.4631 18.9176 67.4162 18.8235 67.3693 18.7764C67.3224 18.7293 67.2755 18.6352 67.2287 18.5411C67.1818 18.6352 67.1349 18.6823 67.088 18.7764C67.0411 18.8705 66.9943 18.9176 66.9005 19.0117C66.8536 19.0587 66.8067 19.1529 66.713 19.1999C66.6661 19.247 66.5723 19.294 66.4786 19.3411C66.4317 19.294 66.3848 19.247 66.3379 19.247C66.291 19.1999 66.2441 19.1529 66.1973 19.1058C66.291 19.0587 66.4317 18.9646 66.5254 18.9176C66.6192 18.8235 66.713 18.7293 66.7598 18.6352C66.8536 18.5411 66.9005 18.447 66.9474 18.3058C66.9943 18.2117 66.9943 18.0705 66.9943 17.9293V17.7882H66.3848V17.4587H68.0257V17.7882H67.4162V17.9293C67.3693 18.0705 67.4162 18.1646 67.4631 18.2587ZM66.713 16.9411H67.6506V17.2235H66.713V16.9411ZM68.4476 19.8587V18.3999H67.885V18.0705H68.4476V16.894H68.8227V19.8587H68.4476Z" fill="black"/>
<path d="M69.1508 19.5295V19.2H69.8072V18.5883H70.1822V19.2H70.9323V18.5883H71.2605V19.2H71.9168V19.5295H69.1508ZM69.3852 18.4942V18.1648H69.8072V17.3177H69.479V16.9883H71.6356V17.3177H71.3074V18.1648H71.7293V18.4942H69.3852ZM70.1353 18.1648H70.9323V17.3177H70.1353V18.1648Z" fill="black"/>
<path d="M73.3233 18.0705C73.3702 18.2117 73.4171 18.3058 73.4639 18.3999C73.5577 18.5411 73.6046 18.6352 73.7452 18.7293C73.839 18.8235 73.9796 18.9176 74.0734 19.0117C74.0265 19.0587 73.9796 19.1058 73.9328 19.1529C73.8859 19.1999 73.839 19.247 73.7921 19.247C73.7452 19.1999 73.6515 19.1529 73.6046 19.1058C73.5577 19.0587 73.4639 18.9646 73.4171 18.9176C73.3702 18.8235 73.2764 18.7764 73.2295 18.6823C73.1826 18.5882 73.1358 18.5411 73.0889 18.447C73.0889 18.5411 73.042 18.5882 72.9951 18.6823C72.9482 18.7764 72.9014 18.8235 72.8076 18.9176C72.7607 19.0117 72.6669 19.0587 72.6201 19.1529C72.5263 19.1999 72.4794 19.294 72.4325 19.3411C72.3857 19.294 72.3388 19.247 72.2919 19.247C72.245 19.1999 72.1981 19.1529 72.1512 19.1058C72.2919 19.0117 72.3857 18.9176 72.5263 18.8235C72.6201 18.7293 72.7138 18.5882 72.8076 18.494C72.8545 18.3999 72.9014 18.2587 72.9482 18.1176C72.9951 17.9764 72.9951 17.8352 72.9951 17.694V17.0352H73.3702V17.694C73.2764 17.8352 73.2764 17.9764 73.3233 18.0705ZM74.3547 16.894H74.7298V19.8587H74.3547V16.894Z" fill="black"/>
<path d="M76.5113 4.09424H61.7904C60.9934 4.09424 60.3839 4.706 60.3839 5.506V19.906C60.3839 20.706 60.9934 21.3178 61.7904 21.3178H76.5113C77.3083 21.3178 77.9177 20.706 77.9177 19.906V5.506C77.9177 4.75306 77.3083 4.09424 76.5113 4.09424ZM76.5113 20.7531H61.7904C61.3215 20.7531 60.9465 20.3766 60.9465 19.906V16.0942H77.3552V19.906C77.3552 20.3766 76.9801 20.7531 76.5113 20.7531Z" fill="black"/>
<path d="M72.5263 12.8472C72.245 10.8236 71.3543 9.74127 70.5573 9.22363C70.9323 8.84716 71.2136 8.32951 71.2136 7.71774C71.2136 6.54127 70.276 5.6001 69.1039 5.6001C67.9319 5.6001 66.9942 6.54127 66.9942 7.71774C66.9942 8.32951 67.2287 8.84716 67.6506 9.22363C66.8536 9.74127 65.9629 10.7766 65.6816 12.8472C65.6347 13.1295 65.6347 13.4119 65.6347 13.6472C65.6347 13.8825 65.6347 14.1177 65.6816 14.353C65.7284 14.6354 65.9628 14.8236 66.2441 14.8236H71.9637C72.245 14.8236 72.4794 14.6354 72.5263 14.353C72.5732 14.1648 72.5732 13.9295 72.5732 13.6472C72.6201 13.4119 72.5732 13.1295 72.5263 12.8472Z" fill="white"/>
<path d="M86.3096 19.0587V18.2587H85.7939V18.5411H84.3875V16.9882H84.7625V17.4587H85.4657V16.9882H85.8408V17.3176H86.4034V16.894H86.7784V19.0587H86.3096ZM84.6687 19.8117V18.8235H85.0438V19.4823H86.7784V19.8117H84.6687ZM85.4189 17.7882H84.7156V18.2587H85.4189V17.7882ZM86.3096 17.5999H85.7939V17.9293H86.3565V17.5999H86.3096Z" fill="black"/>
<path d="M88.7474 17.0353C88.7474 17.2235 88.7006 17.4118 88.6537 17.6C88.6068 17.7882 88.513 17.9294 88.3724 18.0706C88.2317 18.2118 88.0911 18.3529 87.9505 18.447C87.7629 18.5412 87.6223 18.6353 87.4348 18.6823C87.4348 18.6353 87.3879 18.6353 87.341 18.5882C87.2941 18.5412 87.2472 18.4941 87.2003 18.447C87.341 18.4 87.4816 18.3529 87.6223 18.3059C87.7629 18.2588 87.9036 18.1647 87.9973 18.0706C88.0911 17.9765 88.1849 17.8823 88.2317 17.7882C88.2786 17.6941 88.3255 17.5529 88.3724 17.4588H87.3879V17.1294H88.7474V17.0353ZM87.9036 19.7647C87.716 19.6706 87.6223 19.4823 87.6223 19.2941C87.6223 19.1059 87.7161 18.9647 87.9505 18.8235C88.138 18.7294 88.4193 18.6823 88.7006 18.6823C89.0287 18.6823 89.2631 18.7294 89.4507 18.8235C89.6382 18.9176 89.7788 19.1059 89.7788 19.2941C89.7788 19.4823 89.6851 19.6706 89.4507 19.7647C89.2631 19.8588 88.9819 19.9059 88.7006 19.9059C88.3724 19.9059 88.0911 19.8588 87.9036 19.7647ZM88.1849 19.5294C88.3255 19.5765 88.4662 19.6235 88.6537 19.6235C88.8412 19.6235 89.0287 19.5765 89.1694 19.5294C89.31 19.4823 89.3569 19.3882 89.3569 19.2941C89.3569 19.2 89.31 19.1059 89.1694 19.0588C89.0287 19.0117 88.8881 18.9647 88.6537 18.9647C88.4662 18.9647 88.2786 19.0117 88.1849 19.0588C88.0442 19.1059 87.9973 19.2 87.9973 19.2941C87.9973 19.3882 88.0442 19.4823 88.1849 19.5294ZM89.3569 18.6823V18.2588H88.7943V17.9765H89.3569V17.6H88.8881V17.3176H89.3569V16.9412H89.732V18.7294H89.3569V18.6823Z" fill="black"/>
<path d="M90.107 18.3529V18.0235H92.0761C92.1229 17.9293 92.123 17.8352 92.1698 17.647C92.2167 17.5058 92.2167 17.3646 92.2167 17.2235H90.4352V16.894H92.5918C92.5918 17.0823 92.5918 17.2705 92.5449 17.4587C92.498 17.647 92.498 17.8352 92.4511 17.9764H92.8731V18.3529H90.107ZM90.4821 18.6823H92.5449V19.8117H90.4821V18.6823ZM92.1698 19.0117H90.8103V19.5293H92.1698V19.0117Z" fill="black"/>
<path d="M94.3264 18.0705C94.3733 18.2117 94.4202 18.3058 94.467 18.447C94.5139 18.5882 94.6077 18.6823 94.7015 18.7764C94.7952 18.8705 94.9359 18.9646 95.0765 19.0587C95.0296 19.1058 94.9827 19.1529 94.9359 19.1999C94.889 19.247 94.8421 19.294 94.7952 19.3411C94.7483 19.294 94.6546 19.247 94.6077 19.1999C94.5608 19.1529 94.467 19.1058 94.4202 19.0117C94.3733 18.9176 94.2795 18.8705 94.2326 18.7764C94.1858 18.6823 94.1389 18.6352 94.092 18.5411C94.0451 18.6352 94.0451 18.6823 93.9513 18.7764C93.9045 18.8705 93.8576 18.9176 93.7638 19.0117C93.7169 19.1058 93.6232 19.1529 93.5294 19.247C93.4356 19.294 93.3888 19.3882 93.295 19.4352C93.2481 19.3882 93.2012 19.3411 93.1544 19.3411C93.1075 19.294 93.0606 19.247 92.9668 19.1999C93.1075 19.1058 93.2012 19.0117 93.3419 18.9176C93.4356 18.8235 93.5294 18.6823 93.6232 18.5882C93.6701 18.447 93.7169 18.3529 93.7638 18.2117C93.8107 18.0705 93.8107 17.9293 93.8107 17.7411V17.5058H93.295V17.1764H94.889V17.5058H94.2795V17.7882C94.2795 17.7882 94.3264 17.9293 94.3264 18.0705ZM95.3578 16.894H95.7329V19.8587H95.3578V16.894Z" fill="black"/>
<path d="M97.4675 4.09424H82.7466C81.9496 4.09424 81.3401 4.706 81.3401 5.506V19.906C81.3401 20.706 81.9496 21.3178 82.7466 21.3178H97.4675C98.2645 21.3178 98.874 20.706 98.874 19.906V5.506C98.9208 4.75306 98.2645 4.09424 97.4675 4.09424ZM97.4675 20.7531H82.7466C82.2778 20.7531 81.9027 20.3766 81.9027 19.906V16.0942H98.2645V19.906C98.3114 20.3766 97.9363 20.7531 97.4675 20.7531Z" fill="black"/>
<path d="M98.1238 15.2001L93.8107 12.3765C93.8576 12.2824 93.9045 12.1883 93.9513 12.0471C94.1857 11.5295 94.3264 10.9177 94.3264 10.306C94.3264 9.83537 94.2795 9.41184 94.1389 9.03537L94.9359 8.61184C94.9827 8.56478 95.0296 8.51772 95.0296 8.4236C95.0296 8.32949 94.9827 8.28243 94.889 8.28243L92.8731 7.71772C92.7793 7.67066 92.6855 7.76478 92.6386 7.8589L92.0761 9.88243C92.0761 9.97654 92.0761 10.0236 92.1229 10.0707C92.1698 10.1177 92.2636 10.1177 92.3574 10.0707L93.0606 9.69419C93.1075 9.92949 93.1543 10.1177 93.1543 10.353C93.1543 10.8236 93.0606 11.2471 92.9199 11.6236C92.9199 11.6707 92.8731 11.7177 92.8731 11.7177L87.4816 8.14125C87.5285 8.09419 87.5754 8.04713 87.6223 8.00007C87.9036 7.71772 88.2786 7.48243 88.6537 7.29419C89.0287 7.15302 89.4507 7.0589 89.9195 7.0589C89.9664 7.0589 90.0133 7.0589 90.0601 7.01184C90.107 6.96478 90.107 6.91772 90.107 6.87066V6.0236C90.107 5.97655 90.107 5.92949 90.0601 5.88243C90.0133 5.83537 89.9664 5.83537 89.9195 5.83537C89.31 5.83537 88.7006 5.97654 88.1849 6.21184C87.6692 6.44713 87.1535 6.77654 86.7784 7.15302C86.6846 7.24713 86.5909 7.34125 86.4971 7.48243L82.6528 4.94125C82.5122 4.84713 82.4184 4.84713 82.3715 4.89419L82.184 5.12949C82.1371 5.17654 82.2309 5.27066 82.3246 5.36478L86.1689 7.90596C86.0283 8.14125 85.8876 8.37654 85.7939 8.61184C85.5595 9.12949 85.4188 9.74125 85.4188 10.353C85.4188 10.9648 85.5595 11.5765 85.7939 12.0942C86.0283 12.6118 86.3565 13.1295 86.7315 13.506C87.1535 13.9295 87.6223 14.2589 88.138 14.4471C88.6537 14.6824 89.2631 14.7765 89.8726 14.8236C90.4821 14.8236 91.0915 14.6824 91.6072 14.4471C92.1229 14.2118 92.6386 13.8824 93.0137 13.506C93.2012 13.3177 93.3888 13.0824 93.5763 12.8471L97.8425 15.6707C97.9832 15.7648 98.077 15.7648 98.1238 15.7177L98.3114 15.4824C98.3582 15.3883 98.2645 15.2471 98.1238 15.2001ZM92.1698 12.6118C91.8885 12.8942 91.5135 13.1295 91.1384 13.3177C90.7634 13.506 90.3414 13.553 89.8726 13.553C89.4038 13.553 88.9819 13.4589 88.6068 13.3177C88.2317 13.1765 87.8567 12.8942 87.5754 12.6118C87.2941 12.3295 87.0597 11.953 86.8722 11.5765C86.6846 11.2001 86.6378 10.7765 86.6378 10.306C86.6378 9.83537 86.7315 9.41184 86.8722 9.03537C86.9659 8.84713 87.0128 8.70596 87.1535 8.51772L92.5918 12.0942C92.4511 12.2824 92.3105 12.4236 92.1698 12.6118Z" fill="white"/>
<path d="M27.9416 8.42343C27.6603 7.95284 27.3322 7.57637 26.8633 7.29402C26.4414 7.01166 25.9257 6.82343 25.3631 6.72931C24.8005 6.63519 24.238 6.58813 23.6285 6.58813H19.2685C19.2216 6.58813 19.1278 6.63519 19.0809 6.68225C19.0341 6.72931 18.9872 6.82343 18.9872 6.87049V18.5411C18.9872 18.5881 19.0341 18.6823 19.0809 18.7293C19.1278 18.7764 19.2216 18.8234 19.2685 18.8234H20.8156C20.8625 18.8234 20.9562 18.7764 21.0031 18.7293C21.05 18.6823 21.0969 18.6352 21.0969 18.5411V14.1175H23.7691C25.2225 14.1175 26.3945 13.7881 27.1915 13.1293C27.9885 12.4705 28.4104 11.4823 28.4104 10.2117C28.3636 9.55284 28.2229 8.94108 27.9416 8.42343ZM23.7691 12.1881H21.05V8.47049H23.6754C24.0504 8.47049 24.3786 8.51755 24.7068 8.56461C25.0349 8.61166 25.2694 8.70578 25.5038 8.84696C25.7382 8.98813 25.8788 9.12931 26.0195 9.36461C26.1601 9.5999 26.207 9.88225 26.207 10.3058C26.207 10.6352 26.1601 10.9175 26.0664 11.1528C25.9726 11.3881 25.8319 11.5764 25.6444 11.7175C25.4569 11.8587 25.2225 11.9999 24.8943 12.094C24.613 12.1411 24.238 12.1881 23.7691 12.1881Z" fill="black"/>
<path d="M38.5369 16.9413C38.49 16.8942 38.3963 16.8471 38.3494 16.8471H31.4578V13.4118H37.6462C37.7399 13.4118 37.7868 13.3648 37.8337 13.3177C37.8806 13.2707 37.9275 13.2236 37.9275 13.1295V11.7177C37.9275 11.6707 37.8806 11.5766 37.8337 11.5295C37.7868 11.4824 37.7399 11.4354 37.6462 11.4354H31.4578V8.42361H38.0681C38.1619 8.42361 38.2088 8.37655 38.2556 8.3295C38.3025 8.28244 38.3494 8.23538 38.3494 8.14126V6.7295C38.3494 6.63538 38.3025 6.58832 38.2556 6.54126C38.2556 6.58832 38.1619 6.58832 38.115 6.58832H29.6762C29.6294 6.58832 29.5356 6.63538 29.4887 6.68244C29.4418 6.7295 29.395 6.82361 29.395 6.87067V18.5413C29.395 18.5883 29.4418 18.6824 29.4887 18.7295C29.5356 18.7766 29.5825 18.8236 29.6762 18.8236H38.3494C38.4432 18.8236 38.49 18.7766 38.5369 18.7295C38.5838 18.6824 38.6307 18.6354 38.6307 18.5413V17.1295C38.6307 17.0824 38.5838 16.9883 38.5369 16.9413Z" fill="black"/>
<path d="M49.4604 6.63538C49.4135 6.58832 49.3198 6.54126 49.2729 6.54126H47.7727C47.7258 6.54126 47.632 6.58832 47.5851 6.63538C47.5382 6.68244 47.4914 6.77655 47.4914 6.82361V15.153L41.9124 6.68244C41.8655 6.58832 41.7718 6.54126 41.678 6.54126H40.084C40.0371 6.54126 39.9434 6.58832 39.8965 6.63538C39.8496 6.68244 39.8496 6.77655 39.8496 6.82361V18.4942C39.8496 18.5413 39.8965 18.6354 39.9434 18.6824C39.9903 18.7295 40.0371 18.7766 40.1309 18.7766H41.5842C41.678 18.7766 41.7249 18.7295 41.7718 18.6824C41.8186 18.6354 41.8655 18.5883 41.8655 18.4942V10.2118L47.4914 18.6824C47.5382 18.7766 47.632 18.8236 47.7258 18.8236H49.3198C49.4135 18.8236 49.4604 18.7766 49.5073 18.7295C49.5542 18.6824 49.601 18.6354 49.601 18.5413V6.82361C49.5073 6.77655 49.5073 6.68244 49.4604 6.63538Z" fill="black"/>
<path d="M10.9235 7.62344C13.3145 7.62344 15.3304 9.41168 15.6585 11.7176C16.4555 11.8117 17.1588 12.047 17.6745 12.2823C17.6745 12.1411 17.6745 12.047 17.6745 12.047C17.4869 8.4705 14.5334 5.64697 10.9235 5.64697C7.36045 5.64697 4.45377 8.42344 4.21936 11.9529C4.21936 12.1881 4.36001 12.6117 5.01635 12.9411H4.96947C5.62582 13.3176 6.65722 13.7411 7.87615 13.7411C8.76691 13.7411 9.98584 13.5058 11.0172 12.7999C11.7205 12.3293 12.5175 11.8587 13.4082 11.8587C13.6895 11.8587 13.9239 11.9058 14.2052 11.9529C14.299 11.9529 14.3459 11.9999 14.4396 11.9999C14.4396 11.9999 14.674 12.1411 14.7209 11.9529C14.7678 11.8587 14.7209 11.7646 14.674 11.7176C14.5803 11.5764 14.3927 11.4352 14.2521 11.3411C14.0646 11.1999 13.8302 11.1058 13.6426 11.0587C13.1269 10.9176 12.6112 10.9646 12.0955 11.0587C11.5798 11.1529 11.0641 11.3411 10.5953 11.5764C9.79831 11.9529 8.90755 12.094 8.39185 12.094C7.54798 12.094 7.03228 11.7176 6.7041 11.3411C6.61034 11.1999 6.51657 11.0587 6.42281 10.9646C6.98539 9.08227 8.76691 7.62344 10.9235 7.62344Z" fill="#00B193"/>
<path d="M15.7523 12.5176C15.7523 12.6588 15.7523 12.7529 15.7523 12.847C15.5648 15.3411 13.502 17.3176 10.9703 17.3176C8.90754 17.3176 7.2198 16.1882 6.56345 14.3529C6.09463 14.2588 4.96946 13.9293 4.26624 13.3646C4.59441 16.7999 7.50109 19.294 10.9703 19.294C14.4865 19.294 17.3463 16.6117 17.6745 13.1764C17.065 12.7999 16.3618 12.6117 15.7523 12.5176Z" fill="black"/>
<path d="M24.238 27.6705H22.222V26.8234H21.6595V27.6705H20.1592V28.1411H24.2848L24.238 27.6705C24.2849 27.6705 24.238 27.6705 24.238 27.6705ZM23.3941 28.7529C23.1128 28.5646 22.6909 28.4705 22.1283 28.4705C21.6126 28.4705 21.1906 28.5646 20.9094 28.7529C20.6281 28.9411 20.4874 29.1764 20.4874 29.4587C20.4874 29.7411 20.6281 29.9764 20.9094 30.1646C21.1906 30.3529 21.6126 30.447 22.1283 30.447C22.644 30.447 23.0659 30.3529 23.3472 30.1646C23.6285 29.9764 23.7691 29.7411 23.7691 29.4587C23.8629 29.1764 23.6754 28.9411 23.3941 28.7529ZM22.9253 29.8352C22.7377 29.9293 22.5033 29.9764 22.1752 29.9764C21.847 29.9764 21.6126 29.9293 21.4251 29.8352C21.2375 29.7411 21.1438 29.647 21.1438 29.4587C21.1438 29.3176 21.2375 29.1764 21.4251 29.1293C21.6126 29.0352 21.847 28.9881 22.1752 28.9881C22.5033 28.9881 22.7377 29.0352 22.9253 29.1293C23.1128 29.2234 23.2066 29.3176 23.2066 29.4587C23.2066 29.647 23.1128 29.7411 22.9253 29.8352ZM20.5812 26.3058H23.2534C23.2534 26.494 23.2534 26.6352 23.2066 26.8234C23.1597 27.0117 23.1597 27.1999 23.1128 27.3411C23.1128 27.3411 23.1128 27.3411 23.1128 27.3881C23.1128 27.3881 23.1128 27.3881 23.1597 27.3881H23.6754C23.6754 27.3881 23.7223 27.3881 23.7223 27.3411C23.7691 27.1058 23.816 26.8705 23.816 26.5881C23.8629 26.3529 23.8629 26.0234 23.8629 25.7411H20.6281L20.5812 26.3058C20.5343 26.3058 20.5343 26.3058 20.5812 26.3058C20.5343 26.3058 20.5343 26.3058 20.5812 26.3058ZM24.9881 26.3058H27.6603C27.6603 26.494 27.6603 26.6352 27.6135 26.8234C27.5666 27.0117 27.5666 27.1999 27.5197 27.3411C27.5197 27.3411 27.5197 27.3411 27.5197 27.3881C27.5197 27.3881 27.5197 27.3881 27.5666 27.3881H28.0823C28.0823 27.3881 28.1292 27.3881 28.1292 27.3411C28.176 27.1058 28.2229 26.8705 28.2229 26.5881C28.2698 26.3529 28.2698 26.0234 28.2698 25.7411H25.035L24.9881 26.3058C24.9412 26.3058 24.9881 26.3058 24.9881 26.3058ZM27.8479 28.7529C27.5666 28.5646 27.1446 28.4705 26.5821 28.4705C26.0664 28.4705 25.6444 28.5646 25.3631 28.7529C25.0818 28.9411 24.9412 29.1764 24.9412 29.4587C24.9412 29.7411 25.0818 29.9764 25.3631 30.1646C25.6444 30.3529 26.0664 30.447 26.5821 30.447C27.0978 30.447 27.5197 30.3529 27.801 30.1646C28.0823 29.9764 28.2229 29.7411 28.2229 29.4587C28.2698 29.1764 28.1292 28.9411 27.8479 28.7529ZM27.3791 29.8352C27.1915 29.9293 26.9571 29.9764 26.6289 29.9764C26.3008 29.9764 26.0664 29.9293 25.8788 29.8352C25.6913 29.7411 25.5975 29.647 25.5975 29.4587C25.5975 29.3176 25.6913 29.1764 25.8788 29.1293C26.0664 29.0352 26.3008 28.9881 26.6289 28.9881C26.9571 28.9881 27.1915 29.0352 27.3791 29.1293C27.5666 29.2234 27.6603 29.3176 27.6603 29.4587C27.6135 29.647 27.5666 29.7411 27.3791 29.8352ZM28.6449 27.6705H26.6289V26.8234H26.0664V27.6705H24.5661V28.1411H28.6918L28.6449 27.6705C28.6917 27.6705 28.6917 27.6705 28.6449 27.6705C28.6917 27.6705 28.6917 27.6705 28.6449 27.6705ZM29.4887 27.7176H32.6767V27.247H30.0513V25.9293H29.5356L29.4887 27.7176C29.4419 27.6705 29.4887 27.6705 29.4887 27.7176ZM33.0986 28.2352H28.973V28.7058H30.7077V30.2587H31.2703V28.7058H33.0049L33.0986 28.2352C33.1455 28.2352 33.1455 28.2352 33.0986 28.2352ZM36.4273 28.6117C36.2866 28.6587 36.0522 28.6587 35.7709 28.7058C35.4896 28.7529 35.2083 28.7529 35.0208 28.7529H34.3645V27.8587H35.8647V25.9764H33.755V26.447H35.2552V27.294H33.755V29.2234C33.755 29.2234 33.8956 29.2234 34.2238 29.2234C34.552 29.2234 34.7395 29.2234 34.7864 29.2234C35.0677 29.2234 35.3959 29.1764 35.6772 29.1764C36.0053 29.1293 36.1929 29.1293 36.3804 29.0823C36.3804 29.0823 36.4273 29.0823 36.4273 29.0352V28.6117C36.4741 28.6117 36.4741 28.6117 36.4273 28.6117ZM37.1774 25.647H36.6148V30.3058H37.1305L37.1774 25.647C37.2243 25.694 37.1774 25.647 37.1774 25.647Z" fill="white"/>
<path d="M57.1022 28.0941V27.7647H58.5555V26.9177H58.9306V27.7647H60.8527V28.0941H57.1022ZM57.8992 29.8353C57.6648 29.6941 57.5241 29.5059 57.5241 29.2706C57.5241 29.0353 57.6648 28.8471 57.8992 28.7059C58.1336 28.5647 58.5086 28.4706 58.9774 28.4706C59.4463 28.4706 59.8213 28.5647 60.0557 28.7059C60.2901 28.8471 60.4308 29.0353 60.4308 29.2706C60.4308 29.5059 60.2901 29.6941 60.0557 29.8353C59.8213 29.9765 59.4463 30.0706 58.9774 30.0706C58.5086 30.0706 58.1336 30.0236 57.8992 29.8353ZM60.4308 26.1177C60.4308 26.353 60.4308 26.6353 60.3839 26.8706C60.337 27.1059 60.2901 27.3412 60.2901 27.5294H59.9151C59.962 27.3883 59.962 27.2 60.0089 27.0118C60.0557 26.8236 60.0557 26.6353 60.0557 26.4471H57.571V26.1177H60.4308ZM58.2273 29.6471C58.4149 29.7412 58.6962 29.7883 58.9774 29.7883C59.3056 29.7883 59.54 29.7412 59.7276 29.6471C59.9151 29.553 60.0089 29.4118 60.0089 29.2706C60.0089 29.1294 59.9151 28.9883 59.7276 28.8941C59.54 28.8 59.2587 28.753 58.9774 28.753C58.6493 28.753 58.4149 28.8 58.2273 28.8941C58.0398 28.9883 57.946 29.0824 57.946 29.2706C57.8992 29.4589 58.0398 29.553 58.2273 29.6471Z" fill="white"/>
<path d="M61.134 28.0941V27.7647H62.5873V26.9177H62.9624V27.7647H64.8846V28.0941H61.134ZM61.931 29.8353C61.6966 29.6941 61.5559 29.5059 61.5559 29.2706C61.5559 29.0353 61.6966 28.8471 61.931 28.7059C62.1654 28.5647 62.5405 28.4706 63.0093 28.4706C63.4781 28.4706 63.8532 28.5647 64.0876 28.7059C64.322 28.8471 64.4626 29.0353 64.4626 29.2706C64.4626 29.5059 64.322 29.6941 64.0876 29.8353C63.8532 29.9765 63.4781 30.0706 63.0093 30.0706C62.5405 30.0706 62.1654 30.0236 61.931 29.8353ZM64.4626 26.1177C64.4626 26.353 64.4626 26.6353 64.4157 26.8706C64.3689 27.1059 64.322 27.3412 64.322 27.5294H63.9469C63.9938 27.3883 63.9938 27.2 64.0407 27.0118C64.0876 26.8236 64.0876 26.6353 64.0876 26.4471H61.6028V26.1177H64.4626ZM62.2592 29.6471C62.4467 29.7412 62.728 29.7883 63.0093 29.7883C63.3375 29.7883 63.5719 29.7412 63.7594 29.6471C63.9469 29.553 64.0407 29.4118 64.0407 29.2706C64.0407 29.1294 63.9469 28.9883 63.7594 28.8941C63.5719 28.8 63.2906 28.753 63.0093 28.753C62.6811 28.753 62.4467 28.8 62.2592 28.8941C62.0716 28.9883 61.9779 29.0824 61.9779 29.2706C61.931 29.4589 62.0716 29.553 62.2592 29.6471Z" fill="white"/>
<path d="M66.8067 27.5293C66.8536 27.7176 66.9005 27.8587 66.9942 28.047C67.088 28.1881 67.2287 28.3764 67.3693 28.5176C67.5099 28.6587 67.6975 28.7999 67.885 28.894C67.8381 28.9411 67.7912 28.9881 67.7444 29.0352C67.6975 29.0823 67.6506 29.1293 67.6037 29.1764C67.5099 29.1293 67.4162 29.0352 67.3224 28.9411C67.2287 28.847 67.1349 28.7529 67.0411 28.6587C66.9474 28.5646 66.8536 28.4234 66.7598 28.2823C66.6661 28.1411 66.6192 28.047 66.5723 27.9058C66.5254 28.047 66.4785 28.1411 66.4317 28.2823C66.3848 28.4234 66.291 28.5176 66.1973 28.6587C66.1035 28.7999 66.0097 28.894 65.916 28.9881C65.8222 29.0823 65.6815 29.1764 65.5878 29.2705C65.5409 29.2234 65.494 29.1764 65.4471 29.1293C65.4003 29.0823 65.3065 29.0352 65.2596 28.9881C65.4471 28.894 65.6347 28.7528 65.7753 28.6117C65.916 28.4705 66.0566 28.3293 66.1504 28.1411C66.2441 27.9528 66.3379 27.7646 66.3848 27.5764C66.4317 27.3881 66.4785 27.1529 66.4785 26.9176V26.5881H65.5878V26.2587H67.7444V26.5881H66.8536V26.9646C66.713 27.1528 66.7598 27.3411 66.8067 27.5293ZM68.2601 30.0234V27.6234H67.4162V27.294H68.2601V26.0234H68.6351V30.0234H68.2601Z" fill="white"/>
<path d="M70.7917 27.0587C70.8386 27.1999 70.9323 27.294 71.0261 27.3881C71.1199 27.4823 71.2136 27.5764 71.3543 27.6705C71.4949 27.7646 71.6356 27.8117 71.7762 27.8587C71.7293 27.9058 71.6824 27.9528 71.6356 27.9999C71.5887 28.047 71.5418 28.094 71.5418 28.1411C71.448 28.094 71.3543 28.047 71.2605 27.9999C71.1667 27.9528 71.073 27.8587 70.9792 27.8117C70.8855 27.7646 70.8386 27.6705 70.7448 27.5764C70.651 27.4823 70.6042 27.3881 70.5573 27.294C70.5104 27.3881 70.4635 27.4823 70.4166 27.5764C70.3698 27.6705 70.276 27.7646 70.2291 27.8117C70.1353 27.9058 70.0416 27.9999 69.9009 28.047C69.8072 28.1411 69.6665 28.1881 69.5728 28.2352C69.5259 28.1881 69.479 28.1411 69.4321 28.094C69.3852 28.047 69.3384 27.9999 69.2915 27.9529C69.479 27.8587 69.6196 27.8117 69.7603 27.6705C69.9009 27.5764 70.0416 27.4352 70.1353 27.294C70.2291 27.1999 70.276 27.0587 70.3229 26.9176C70.3698 26.7764 70.3698 26.6352 70.3698 26.494V26.3999H69.5728V26.0705H71.5887V26.3999H70.7917V26.494C70.6979 26.7764 70.7448 26.9176 70.7917 27.0587ZM72.1513 30.0234V28.894H69.8541V28.5646H72.5263V29.9764H72.1513V30.0234ZM72.5263 27.294V28.4234H72.1513V26.0234H72.5263V26.9646H73.0889V27.294H72.5263Z" fill="white"/>
<path d="M75.2924 27.953V28.3765H76.4644V29.3177H74.1203V29.6941H76.5113V29.9765H73.6984V29.0353H76.0425V28.6589H73.6984V28.3765H74.8704V27.953H73.1827V27.6706H76.9332V27.953H75.2924ZM73.7453 26.1177H76.5113V27.2941H73.7453V26.1177ZM76.0894 26.4H74.0734V27.0118H76.0894V26.4Z" fill="white"/>
<path d="M80.1681 27.5293C80.215 27.7176 80.2618 27.8587 80.3556 28.047C80.4494 28.1881 80.59 28.3764 80.7307 28.5176C80.8713 28.6587 81.0588 28.7999 81.2464 28.894C81.1995 28.9411 81.1526 28.9881 81.1057 29.0352C81.0588 29.0823 81.012 29.1293 80.9651 29.1764C80.8713 29.1293 80.7775 29.0352 80.6838 28.9411C80.59 28.847 80.4963 28.7529 80.4025 28.6587C80.3087 28.5646 80.215 28.4234 80.1212 28.2823C80.0274 28.1411 79.9806 28.047 79.9337 27.9058C79.8868 28.047 79.8399 28.1411 79.793 28.2823C79.6993 28.4234 79.6524 28.5176 79.5586 28.6587C79.4648 28.7999 79.3711 28.894 79.2773 28.9881C79.1836 29.0823 79.0429 29.1764 78.9491 29.2705C78.9023 29.2234 78.8554 29.1764 78.8085 29.1293C78.7616 29.0823 78.6679 29.0352 78.621 28.9881C78.8085 28.894 78.996 28.7528 79.1367 28.6117C79.2773 28.4705 79.418 28.3293 79.5117 28.1411C79.6055 27.9528 79.6993 27.7646 79.7461 27.5764C79.793 27.3881 79.8399 27.1529 79.8399 26.9176V26.5881H78.996V26.2587H81.1526V26.5881H80.2618V26.9646C80.0743 27.1528 80.1212 27.3411 80.1681 27.5293ZM81.8558 26.0234V27.5764H82.4653V27.9058H81.8558V30.0234H81.4808V26.0234H81.8558Z" fill="white"/>
<path d="M85.372 28.6117V30.0234H84.9969V28.6117H84.0124V29.9764H83.6373V28.6117H82.6528V28.2823H86.4034V28.6117H85.372ZM83.4498 27.6234C83.1685 27.4352 83.0747 27.247 83.0747 26.9646C83.0747 26.6823 83.2154 26.494 83.4498 26.3058C83.6842 26.1176 84.0593 26.0234 84.5281 26.0234C84.9969 26.0234 85.3251 26.1176 85.6064 26.3058C85.8408 26.494 85.9814 26.6823 85.9814 26.9646C85.9814 27.1999 85.8408 27.4352 85.6064 27.6234C85.372 27.8117 84.9969 27.9058 84.5281 27.9058C84.0593 27.8587 83.6842 27.8117 83.4498 27.6234ZM83.778 27.3881C83.9655 27.4823 84.2468 27.5293 84.5281 27.5293C84.8094 27.5293 85.0907 27.4823 85.2782 27.3881C85.4657 27.294 85.5595 27.1528 85.5595 26.9646C85.5595 26.7764 85.4657 26.6352 85.2782 26.5411C85.0907 26.447 84.8094 26.3999 84.5281 26.3999C84.2468 26.3999 83.9655 26.447 83.778 26.5411C83.5904 26.6352 83.4967 26.7764 83.4967 26.9646C83.4498 27.1528 83.5436 27.294 83.778 27.3881Z" fill="white"/>
<path d="M87.2004 26.494C87.3879 26.2587 87.6223 26.1176 87.9036 26.1176C88.138 26.1176 88.3724 26.2587 88.6068 26.494C88.7943 26.7293 88.935 27.1058 88.935 27.6705C88.935 28.1881 88.8412 28.5646 88.6537 28.7999C88.4662 29.0352 88.2318 29.1764 87.9505 29.1764C87.7161 29.1764 87.4816 29.0352 87.2472 28.7999C87.0597 28.5646 86.9191 28.1881 86.9191 27.6705C86.8722 27.1058 87.0128 26.7293 87.2004 26.494ZM87.4348 28.4705C87.5285 28.7058 87.7161 28.847 87.9036 28.847C88.0911 28.847 88.2786 28.7058 88.3724 28.4705C88.4662 28.2352 88.5131 27.9528 88.5131 27.6234C88.5131 27.3411 88.4662 27.0587 88.3724 26.8234C88.2786 26.5881 88.138 26.447 87.9036 26.447C87.7161 26.447 87.5285 26.5881 87.4348 26.8234C87.341 27.0587 87.2472 27.3411 87.2472 27.6234C87.2472 27.9528 87.2941 28.2352 87.4348 28.4705ZM89.6851 26.0234H90.0602V30.0234H89.6851V26.0234Z" fill="white"/>
<path d="M90.7165 28.2824V27.953H91.7479V27.3412C91.5604 27.2941 91.4197 27.2 91.326 27.0589C91.2322 26.9647 91.1853 26.8236 91.1853 26.6824C91.1853 26.4471 91.326 26.3059 91.5604 26.1647C91.7948 26.0236 92.1698 25.9294 92.5918 25.9294C93.0606 25.9294 93.3888 26.0236 93.67 26.1647C93.9045 26.3059 94.0451 26.4941 94.0451 26.7294C94.0451 26.8706 93.9982 26.9647 93.9045 27.1059C93.8107 27.2 93.67 27.2942 93.4825 27.3883V28H94.5139V28.3294H90.7165V28.2824ZM91.4666 28.8C91.701 28.6589 92.0761 28.6118 92.5449 28.6118C93.0137 28.6118 93.3888 28.7059 93.6232 28.8471C93.8576 28.9883 93.9982 29.1765 93.9982 29.3647C93.9982 29.553 93.8576 29.7412 93.6232 29.8824C93.3888 30.0236 93.0137 30.1177 92.5449 30.1177C92.0761 30.1177 91.701 30.0236 91.4666 29.8824C91.2322 29.7412 91.0915 29.553 91.0915 29.3647C91.0915 29.1294 91.2322 28.9412 91.4666 28.8ZM91.7948 29.6941C91.9823 29.7883 92.2167 29.8353 92.5449 29.8353C92.8731 29.8353 93.1075 29.7883 93.295 29.6941C93.4825 29.6 93.5763 29.5059 93.5763 29.3647C93.5763 29.2236 93.4825 29.0824 93.295 29.0353C93.1075 28.9412 92.8731 28.8942 92.5449 28.8942C92.2167 28.8942 91.9823 28.9412 91.7948 29.0353C91.6072 29.1294 91.5135 29.2236 91.5135 29.3647C91.5135 29.4589 91.6072 29.6 91.7948 29.6941ZM91.8417 27.0589C92.0292 27.153 92.2636 27.2 92.5918 27.2C92.9199 27.2 93.1544 27.153 93.3419 27.0589C93.5294 26.9647 93.6232 26.8706 93.6232 26.7294C93.6232 26.5883 93.5294 26.4941 93.3419 26.4C93.1544 26.3059 92.9199 26.2589 92.5918 26.2589C92.3105 26.2589 92.0292 26.3059 91.8417 26.4C91.6541 26.4941 91.5604 26.5883 91.5604 26.7294C91.5604 26.8706 91.6541 26.9647 91.8417 27.0589ZM93.0606 27.4353C92.9668 27.4353 92.9199 27.4824 92.8262 27.4824C92.7324 27.4824 92.6386 27.4824 92.5449 27.4824C92.4511 27.4824 92.3574 27.4824 92.3105 27.4824C92.2167 27.4824 92.1698 27.4824 92.0761 27.4353V27.953H93.0606V27.4353Z" fill="white"/>
<path d="M94.9359 26.7293H97.2799V27.0587H94.9359V26.7293ZM95.3578 27.6705C95.5453 27.4823 95.7797 27.3881 96.1079 27.3881C96.3892 27.3881 96.6236 27.4823 96.8111 27.6705C96.9987 27.8587 97.0924 28.094 97.0924 28.3293C97.0924 28.5646 96.9987 28.7999 96.8111 28.9881C96.6236 29.1764 96.3892 29.2705 96.1079 29.2705C95.8266 29.2705 95.5453 29.1764 95.3578 28.9881C95.1703 28.7999 95.0765 28.5646 95.0765 28.3293C95.0765 28.047 95.1703 27.8587 95.3578 27.6705ZM95.6391 28.7999C95.7328 28.9411 95.9204 28.9881 96.1079 28.9881C96.2954 28.9881 96.4361 28.9411 96.5767 28.7999C96.6705 28.6587 96.7642 28.5176 96.7642 28.3293C96.7642 28.1411 96.7174 27.9999 96.5767 27.8587C96.483 27.7176 96.2954 27.6705 96.1079 27.6705C95.9204 27.6705 95.7328 27.7176 95.6391 27.8587C95.5453 27.9999 95.4516 28.1411 95.4516 28.3293C95.4984 28.5176 95.5453 28.6587 95.6391 28.7999ZM95.4984 26.0705H96.7174V26.3999H95.4984V26.0705ZM97.8894 30.0234V28.047H97.2331V27.7176H97.8894V26.0234H98.2645V30.0234H97.8894Z" fill="white"/>
<path d="M101.452 28.094C101.312 28.1411 101.077 28.1411 100.796 28.1881C100.515 28.2352 100.234 28.2352 99.9991 28.2352C99.8585 28.2352 99.6241 28.2352 99.3896 28.2352C99.1552 28.2352 99.0146 28.2352 99.0146 28.2352V27.0117H100.515V26.447H99.0146V26.1176H100.843V27.294H99.3896V27.9058H100.093C100.28 27.9058 100.515 27.9058 100.796 27.8587C101.077 27.8117 101.312 27.8117 101.452 27.7646V28.094ZM101.64 30.0234V28.9881H99.3428V28.6587H102.015V30.0234H101.64ZM102.015 27.294V28.5176H101.64V26.0234H102.015V26.9646H102.578V27.294H102.015Z" fill="white"/>
</svg>
