<svg width="20" height="14" viewBox="0 0 20 14" fill="none" xmlns="http://www.w3.org/2000/svg">
<path d="M18.2031 2.70312H1.79688C1.13281 2.70312 0.625 2.19531 0.625 1.53125C0.625 0.867187 1.13281 0.359375 1.79688 0.359375H18.2031C18.8672 0.359375 19.375 0.867187 19.375 1.53125C19.375 2.19531 18.8672 2.70312 18.2031 2.70312Z" fill="white"/>
<path d="M18.2031 8.17188H1.79688C1.13281 8.17188 0.625 7.66406 0.625 7C0.625 6.33594 1.13281 5.82812 1.79688 5.82812H18.2031C18.8672 5.82812 19.375 6.33594 19.375 7C19.375 7.66406 18.8672 8.17188 18.2031 8.17188Z" fill="white"/>
<path d="M18.2031 13.6406H1.79688C1.13281 13.6406 0.625 13.1328 0.625 12.4688C0.625 11.8047 1.13281 11.2969 1.79688 11.2969H18.2031C18.8672 11.2969 19.375 11.8047 19.375 12.4688C19.375 13.1328 18.8672 13.6406 18.2031 13.6406Z" fill="white"/>
</svg>
