<svg width="20" height="20" viewBox="0 0 20 20" fill="none" xmlns="http://www.w3.org/2000/svg">
<g clip-path="url(#clip0_412_17456)">
<path d="M19.9609 10C19.9609 11.9739 19.375 13.8934 18.2666 15.5513C18.116 15.7767 17.8685 15.8985 17.6164 15.8985C17.4672 15.8985 17.3163 15.8559 17.1829 15.7666C16.8242 15.5269 16.7279 15.0417 16.9676 14.6829C17.9038 13.2829 18.3984 11.6637 18.3984 10C18.3984 9.28514 18.309 8.57514 18.1326 7.89002C18.0251 7.47224 18.2767 7.04621 18.6945 6.93864C19.1126 6.83121 19.5383 7.08268 19.6459 7.50047C19.8549 8.31284 19.9609 9.15376 19.9609 10ZM14.3256 17.2225C13.0133 18.0173 11.5041 18.4375 9.96094 18.4375C5.30854 18.4375 1.52344 14.6524 1.52344 10C1.52344 5.3476 5.30854 1.5625 9.96094 1.5625C11.6835 1.5625 13.3399 2.07794 14.7511 3.05313C15.1061 3.29834 15.5927 3.20938 15.838 2.85446C16.0832 2.49954 15.9944 2.01294 15.6394 1.76758C13.9658 0.611268 12.0023 0 9.96094 0C7.28989 0 4.7786 1.04019 2.88986 2.92893C1.00113 4.81766 -0.0390625 7.32896 -0.0390625 10C-0.0390625 12.6711 1.00113 15.1824 2.88986 17.0711C4.7786 18.9598 7.28989 20 9.96094 20C11.7896 20 13.5788 19.5017 15.1352 18.5588C15.5043 18.3353 15.6223 17.8549 15.3987 17.4858C15.175 17.1167 14.6947 16.9989 14.3256 17.2225ZM10.0363 12.2653C9.91257 12.2702 9.79706 12.2263 9.70734 12.1408L5.61569 8.26127C5.30258 7.96433 4.80805 7.97746 4.51126 8.29057C4.21433 8.60368 4.22745 9.09822 4.54056 9.395L8.63144 13.2739C9.00925 13.6331 9.49799 13.8281 10.0159 13.8281C10.0436 13.8281 10.0714 13.8275 10.0992 13.8265C10.6477 13.8043 11.1516 13.5669 11.5178 13.1578C11.5271 13.1476 11.536 13.1371 11.5447 13.1262L19.7885 2.87232C20.0589 2.53601 20.0055 2.04422 19.6692 1.77399C19.333 1.5036 18.8411 1.55701 18.5707 1.89331L10.343 12.1272C10.2622 12.2116 10.1538 12.2606 10.0363 12.2653Z" fill="#354458"/>
</g>
<defs>
<clipPath id="clip0_412_17456">
<rect width="20" height="20" fill="white"/>
</clipPath>
</defs>
</svg>
