<svg width="20" height="20" viewBox="0 0 20 20" fill="none" xmlns="http://www.w3.org/2000/svg">
<path d="M4.47643 19.5956C4.25731 19.5956 4.03971 19.5273 3.85401 19.393C3.50808 19.1423 3.34649 18.7114 3.44064 18.2956L4.72729 12.6278L0.363771 8.80115C0.0430227 8.52114 -0.0795086 8.07771 0.0521783 7.67197C0.183865 7.26699 0.542151 6.98027 0.966357 6.94105L6.73983 6.4169L9.02245 1.07512C9.19076 0.682654 9.57407 0.429199 9.99996 0.429199C10.4258 0.429199 10.8092 0.682654 10.9775 1.0742L13.2601 6.4169L19.0326 6.94105C19.4578 6.97935 19.816 7.26699 19.9477 7.67197C20.0794 8.07694 19.9577 8.52114 19.6369 8.80115L15.2734 12.6271L16.56 18.2946C16.6543 18.7114 16.4926 19.1423 16.1468 19.3922C15.8018 19.6422 15.3417 19.6614 14.9784 19.443L9.99996 16.468L5.02149 19.4447C4.85318 19.5447 4.66565 19.5956 4.47643 19.5956ZM9.99996 15.1863C10.1892 15.1863 10.3766 15.2372 10.545 15.3371L15.2435 18.1472L14.0292 12.7978C13.9425 12.4171 14.0717 12.0196 14.3659 11.762L18.4861 8.14866L13.035 7.65366C12.6425 7.6178 12.305 7.37106 12.1517 7.00941L9.99996 1.96839L7.84566 7.01018C7.69399 7.36938 7.35645 7.61612 6.9649 7.65198L1.51309 8.14698L5.63308 11.7604C5.92819 12.0187 6.05728 12.4154 5.96985 12.7971L4.75644 18.1463L9.4549 15.3371C9.62321 15.2372 9.81074 15.1863 9.99996 15.1863ZM6.69573 6.5202C6.69573 6.5202 6.69573 6.52112 6.69481 6.52188L6.69573 6.5202ZM13.3025 6.51776L13.3034 6.51944C13.3034 6.51853 13.3034 6.51853 13.3025 6.51776Z" fill="#AD8658"/>
</svg>
