<svg width="16" height="14" viewBox="0 0 16 14" fill="none" xmlns="http://www.w3.org/2000/svg">
<path d="M5.03168 13.6036C11.0694 13.6036 14.3718 8.60138 14.3718 4.26346C14.3718 4.12138 14.3686 3.97994 14.3622 3.83914C15.0029 3.37578 15.5603 2.79786 16 2.1393C15.4118 2.40042 14.7789 2.57642 14.1146 2.65578C14.7923 2.24938 15.3126 1.60618 15.5578 0.840098C14.9235 1.21642 14.2208 1.4897 13.4733 1.6369C12.8749 0.999458 12.0218 0.600098 11.0778 0.600098C9.26464 0.600098 7.79456 2.07018 7.79456 3.88266C7.79456 4.14058 7.82336 4.39082 7.87968 4.63082C5.152 4.49386 2.73216 3.18762 1.1136 1.20106C0.83136 1.68618 0.6688 2.25002 0.6688 2.85098C0.6688 3.99018 1.24864 4.99498 2.12928 5.58314C1.59104 5.5665 1.0848 5.41866 0.64256 5.17226C0.64192 5.1857 0.64192 5.19978 0.64192 5.21386C0.64192 6.80362 1.77344 8.13098 3.27552 8.43178C2.99968 8.50666 2.70976 8.54698 2.41024 8.54698C2.19904 8.54698 1.99296 8.52586 1.79328 8.48746C2.2112 9.79178 3.42272 10.7409 4.86016 10.7671C3.73632 11.6478 2.32128 12.1726 0.78336 12.1726C0.5184 12.1726 0.25728 12.1572 0 12.1271C1.4528 13.0603 3.1776 13.6036 5.03168 13.6036Z" fill="#555555"/>
</svg>
