<svg width="19" height="18" viewBox="0 0 19 18" fill="none" xmlns="http://www.w3.org/2000/svg">
<path d="M9.0016 1.62152C11.4048 1.62152 11.6891 1.63081 12.6383 1.67403C13.5157 1.71405 13.9923 1.86051 14.3095 1.98376C14.7296 2.14702 15.0293 2.34208 15.3444 2.65681C15.6595 2.97189 15.8546 3.27162 16.0175 3.69173C16.1407 4.00896 16.2872 4.48552 16.3272 5.36291C16.3704 6.31174 16.3797 6.59647 16.3797 8.99963C16.3797 11.4028 16.3704 11.6872 16.3272 12.6363C16.2872 13.5137 16.1407 13.9903 16.0175 14.3075C15.8542 14.7276 15.6592 15.0274 15.3444 15.3425C15.0293 15.6575 14.7296 15.8526 14.3095 16.0155C13.9923 16.1387 13.5157 16.2852 12.6383 16.3252C11.6895 16.3685 11.4048 16.3777 9.0016 16.3777C6.59843 16.3777 6.31371 16.3685 5.36487 16.3252C4.48748 16.2852 4.01092 16.1387 3.69369 16.0155C3.27358 15.8522 2.97385 15.6572 2.65876 15.3425C2.34368 15.0274 2.14862 14.7276 1.98572 14.3075C1.86247 13.9903 1.716 13.5137 1.67599 12.6363C1.63276 11.6875 1.62348 11.4028 1.62348 8.99963C1.62348 6.59647 1.63276 6.3121 1.67599 5.36291C1.716 4.48552 1.86247 4.00896 1.98572 3.69173C2.14898 3.27162 2.34403 2.97189 2.65876 2.65681C2.97385 2.34172 3.27358 2.14666 3.69369 1.98376C4.01092 1.86051 4.48748 1.71405 5.36487 1.67403C6.31406 1.63081 6.59843 1.62152 9.0016 1.62152ZM9.0016 0C6.55735 0 6.25083 0.01036 5.29092 0.0543007C4.33316 0.0978842 3.67905 0.250069 3.10639 0.472631C2.51444 0.702694 2.01251 1.01028 1.51237 1.51077C1.01223 2.01091 0.704291 2.51284 0.474584 3.10443C0.252023 3.67709 0.0998375 4.3312 0.0562539 5.28896C0.0123131 6.24887 0.00195312 6.55538 0.00195312 8.99963C0.00195312 11.4439 0.0123131 11.7504 0.0562539 12.7103C0.0998375 13.6681 0.252023 14.3222 0.474584 14.8948C0.704648 15.4868 1.01223 15.9887 1.51273 16.4888C2.01323 16.9893 2.51479 17.2969 3.10674 17.527C3.67905 17.7495 4.33351 17.9017 5.29128 17.9453C6.25119 17.9893 6.5577 17.9996 9.00195 17.9996C11.4462 17.9996 11.7527 17.9893 12.7126 17.9453C13.6704 17.9017 14.3249 17.7495 14.8972 17.527C15.4891 17.2969 15.991 16.9893 16.4912 16.4888C16.9917 15.9883 17.2993 15.4868 17.5293 14.8948C17.7519 14.3225 17.9041 13.6681 17.9477 12.7103C17.9916 11.7504 18.002 11.4439 18.002 8.99963C18.002 6.55538 17.9916 6.24887 17.9477 5.28896C17.9041 4.3312 17.7519 3.67673 17.5293 3.10443C17.2993 2.51248 16.9917 2.01056 16.4912 1.51042C15.9907 1.00992 15.4891 0.702337 14.8972 0.472273C14.3241 0.250069 13.67 0.0978842 12.7123 0.0543007C11.7524 0.01036 11.4458 0 9.0016 0Z" fill="#555555"/>
<path d="M9.0041 4.37891C6.4516 4.37891 4.38281 6.44805 4.38281 9.00019C4.38281 11.5523 6.45196 13.6215 9.0041 13.6215C11.5562 13.6215 13.6254 11.5523 13.6254 9.00019C13.6254 6.44805 11.5566 4.37891 9.0041 4.37891ZM9.0041 12C7.34721 12 6.00433 10.6567 6.00433 9.00019C6.00433 7.3433 7.34756 6.00043 9.0041 6.00043C10.6606 6.00043 12.0039 7.34366 12.0039 9.00019C12.0039 10.6571 10.661 12 9.0041 12Z" fill="#555555"/>
<path d="M13.8065 5.27511C14.4029 5.27511 14.8864 4.79161 14.8864 4.19517C14.8864 3.59874 14.4029 3.11523 13.8065 3.11523C13.2101 3.11523 12.7266 3.59874 12.7266 4.19517C12.7266 4.79161 13.2101 5.27511 13.8065 5.27511Z" fill="#555555"/>
</svg>
