<svg width="16" height="16" viewBox="0 0 16 16" fill="none" xmlns="http://www.w3.org/2000/svg">
<path d="M8.0005 2.09726C9.92303 2.09726 10.1505 2.1047 10.9099 2.13928C11.6118 2.17128 11.993 2.28846 12.2468 2.38706C12.5829 2.51767 12.8227 2.67371 13.0748 2.92549C13.3268 3.17756 13.4829 3.41734 13.6132 3.75344C13.7118 4.00722 13.829 4.38847 13.861 5.09038C13.8956 5.84944 13.903 6.07722 13.903 7.99975C13.903 9.92228 13.8956 10.1498 13.861 10.9091C13.829 11.611 13.7118 11.9923 13.6132 12.2461C13.4826 12.5822 13.3265 12.8219 13.0748 13.074C12.8227 13.3261 12.5829 13.4821 12.2468 13.6124C11.993 13.711 11.6118 13.8282 10.9099 13.8602C10.1508 13.8948 9.92303 13.9022 8.0005 13.9022C6.07796 13.9022 5.85018 13.8948 5.09112 13.8602C4.38921 13.8282 4.00796 13.711 3.75417 13.6124C3.41808 13.4818 3.1783 13.3258 2.92623 13.074C2.67416 12.8219 2.51812 12.5822 2.38779 12.2461C2.28919 11.9923 2.17202 11.611 2.14001 10.9091C2.10543 10.1501 2.098 9.92228 2.098 7.99975C2.098 6.07722 2.10543 5.84973 2.14001 5.09038C2.17202 4.38847 2.28919 4.00722 2.38779 3.75344C2.5184 3.41734 2.67444 3.17756 2.92623 2.92549C3.1783 2.67342 3.41808 2.51738 3.75417 2.38706C4.00796 2.28846 4.38921 2.17128 5.09112 2.13928C5.85047 2.1047 6.07796 2.09726 8.0005 2.09726ZM8.0005 0.800049C6.04509 0.800049 5.79988 0.808337 5.03196 0.843489C4.26574 0.878356 3.74246 1.0001 3.28433 1.17815C2.81077 1.3622 2.40923 1.60827 2.00912 2.00867C1.60901 2.40878 1.36265 2.81032 1.17889 3.28359C1.00084 3.74172 0.879089 4.26501 0.844222 5.03122C0.809069 5.79914 0.800781 6.04436 0.800781 7.99975C0.800781 9.95515 0.809069 10.2004 0.844222 10.9683C0.879089 11.7345 1.00084 12.2578 1.17889 12.7159C1.36294 13.1895 1.60901 13.591 2.0094 13.9911C2.4098 14.3915 2.81105 14.6376 3.28461 14.8216C3.74246 14.9997 4.26603 15.1214 5.03224 15.1563C5.80017 15.1915 6.04538 15.1997 8.00078 15.1997C9.95618 15.1997 10.2014 15.1915 10.9693 15.1563C11.7355 15.1214 12.2591 14.9997 12.7169 14.8216C13.1905 14.6376 13.592 14.3915 13.9922 13.9911C14.3926 13.5907 14.6386 13.1895 14.8227 12.7159C15.0007 12.2581 15.1225 11.7345 15.1573 10.9683C15.1925 10.2004 15.2008 9.95515 15.2008 7.99975C15.2008 6.04436 15.1925 5.79914 15.1573 5.03122C15.1225 4.26501 15.0007 3.74143 14.8227 3.28359C14.6386 2.81003 14.3926 2.40849 13.9922 2.00838C13.5918 1.60799 13.1905 1.36192 12.7169 1.17787C12.2585 1.0001 11.7352 0.878356 10.969 0.843489C10.2011 0.808337 9.9559 0.800049 8.0005 0.800049Z" fill="#555555"/>
<path d="M8.00171 4.30273C5.95972 4.30273 4.30469 5.95805 4.30469 7.99976C4.30469 10.0415 5.96 11.6968 8.00171 11.6968C10.0434 11.6968 11.6987 10.0415 11.6987 7.99976C11.6987 5.95805 10.0437 4.30273 8.00171 4.30273ZM8.00171 10.3996C6.6762 10.3996 5.60191 9.32499 5.60191 7.99976C5.60191 6.67425 6.67649 5.59995 8.00171 5.59995C9.32694 5.59995 10.4015 6.67454 10.4015 7.99976C10.4015 9.32527 9.32723 10.3996 8.00171 10.3996Z" fill="#555555"/>
<path d="M11.8444 5.02038C12.3216 5.02038 12.7084 4.63358 12.7084 4.15643C12.7084 3.67928 12.3216 3.29248 11.8444 3.29248C11.3673 3.29248 10.9805 3.67928 10.9805 4.15643C10.9805 4.63358 11.3673 5.02038 11.8444 5.02038Z" fill="#555555"/>
</svg>
