<svg width="20" height="9" viewBox="0 0 20 9" fill="none" xmlns="http://www.w3.org/2000/svg">
<path d="M0.400391 0.146729H1.88556V2.55328C2.20356 2.17471 2.70094 1.9895 3.18202 1.9895C4.42024 1.9895 5.27873 3.05067 5.27873 4.29005C5.27873 5.53643 4.41442 6.60109 3.16804 6.60109C2.67765 6.60109 2.17211 6.40656 1.90186 5.97441H1.88672V6.45548H0.400391V0.146729ZM1.8343 4.29821C1.8343 4.84684 2.18608 5.26851 2.78947 5.26851C3.39286 5.26851 3.74464 4.84684 3.74464 4.29821C3.74464 3.76471 3.39286 3.31974 2.78947 3.31974C2.18608 3.31974 1.8343 3.76471 1.8343 4.29821Z" fill="#555555"/>
<path d="M13.9719 4.29815C13.9719 5.76352 12.7966 6.59987 11.4512 6.59987C10.1128 6.59987 8.93164 5.77167 8.93164 4.29815C8.93164 2.8223 10.1058 1.98828 11.4512 1.98828C12.7966 1.98945 13.9719 2.8223 13.9719 4.29815ZM10.4972 4.29815C10.4972 4.84679 10.8478 5.26846 11.4512 5.26846C12.0557 5.26846 12.4063 4.84679 12.4063 4.29815C12.4063 3.76466 12.0557 3.31969 11.4512 3.31969C10.8478 3.31969 10.4972 3.76466 10.4972 4.29815Z" fill="#555555"/>
<path d="M5.75391 0V1.47934C6.33982 1.57136 6.44582 2.14912 6.44582 2.81541V6.45552H7.92749V2.51255C7.92866 0.926045 7.04455 0 5.75391 0Z" fill="#555555"/>
<path d="M18.1147 2.13161V2.58706H18.0984C17.806 2.15607 17.3552 1.9895 16.8671 1.9895C15.587 1.9895 14.7227 3.06581 14.7227 4.33082C14.7227 5.5772 15.5613 6.53819 16.7856 6.53819C17.34 6.53819 17.7314 6.34483 18.1147 5.94878V6.15146C18.1147 6.88531 17.8724 7.39201 17.0745 7.39201H16.7844V8.76885H17.0908C18.6878 8.76885 19.5998 7.87076 19.5998 6.03614V2.13161H18.1147ZM17.2107 5.23124C16.6062 5.23124 16.2544 4.8119 16.2544 4.2621C16.2544 3.7321 16.6062 3.2848 17.2107 3.2848C17.813 3.2848 18.1648 3.73093 18.1648 4.2621C18.1636 4.8119 17.813 5.23124 17.2107 5.23124Z" fill="#555555"/>
</svg>
