<svg width="20" height="20" viewBox="0 0 20 20" fill="none" xmlns="http://www.w3.org/2000/svg">
<path d="M2.30635 15.5992C1.63805 15.5992 0.985142 15.4286 0.393423 15.0964C0.0889742 14.9396 -0.0289439 14.5473 0.152933 14.2522C0.757226 13.2866 0.975439 12.1062 0.698762 10.9962C0.411987 9.84534 -0.00295437 8.87611 1.58574e-05 7.65782C0.0103127 3.38361 3.5679 -0.0814611 7.83776 0.0014578C11.9619 0.0845252 15.3608 3.55138 15.3609 7.67663C15.3609 13.0643 9.71459 16.8469 4.72991 14.7664C4.04284 15.3057 3.17925 15.5992 2.30635 15.5992ZM1.49429 14.2838C2.43328 14.5754 3.48934 14.3424 4.21343 13.6424C4.39185 13.4699 4.65872 13.4264 4.88258 13.5335C9.15015 15.5739 14.1728 12.3758 14.1727 7.67663C14.1727 4.17007 11.3201 1.25989 7.81385 1.1893C4.20046 1.11752 1.19682 4.04399 1.18811 7.66069C1.18529 8.81784 1.63676 9.74262 1.88349 10.8388C2.14343 11.994 2.0065 13.2155 1.49429 14.2838Z" fill="#F45249"/>
<path d="M17.693 19.9998C16.8201 19.9998 15.9565 19.7062 15.2695 19.167C12.6186 20.2734 9.46528 19.7696 7.29172 17.8925C7.0434 17.678 7.01598 17.3029 7.23038 17.0546C7.44483 16.8063 7.81992 16.7788 8.06823 16.9933C9.99601 18.6581 12.8193 19.0326 15.1168 17.9342C15.3406 17.8271 15.6074 17.8705 15.7859 18.0431C16.51 18.743 17.5661 18.9762 18.5051 18.6844C17.9008 17.4241 17.8171 15.9802 18.2854 14.6435C18.2896 14.6314 18.2942 14.6196 18.2991 14.6078C18.6411 13.8017 18.8134 12.9449 18.8113 12.0613C18.8075 10.5035 18.2893 9.06251 17.3126 7.89398C17.1022 7.6422 17.1357 7.2676 17.3875 7.05721C17.6391 6.84677 18.0138 6.88033 18.2242 7.13206C19.3646 8.49644 19.995 10.246 19.9994 12.0584C20.0019 13.0966 19.8005 14.1041 19.4007 15.0534C18.9808 16.2688 19.174 17.5702 19.8464 18.6527C20.0284 18.9479 19.9104 19.3402 19.6058 19.4971C19.0142 19.8292 18.3612 19.9997 17.693 19.9998Z" fill="#F45249"/>
<path d="M7.68021 8.64557C8.19935 8.64557 8.62019 8.22495 8.62019 7.70609C8.62019 7.18722 8.19935 6.7666 7.68021 6.7666C7.16108 6.7666 6.74023 7.18722 6.74023 7.70609C6.74023 8.22495 7.16108 8.64557 7.68021 8.64557Z" fill="#F45249"/>
<path d="M4.21732 8.64557C4.73646 8.64557 5.1573 8.22495 5.1573 7.70609C5.1573 7.18722 4.73646 6.7666 4.21732 6.7666C3.69819 6.7666 3.27734 7.18722 3.27734 7.70609C3.27734 8.22495 3.69819 8.64557 4.21732 8.64557Z" fill="#F45249"/>
<path d="M11.1431 8.64557C11.6622 8.64557 12.0831 8.22495 12.0831 7.70609C12.0831 7.18722 11.6622 6.7666 11.1431 6.7666C10.624 6.7666 10.2031 7.18722 10.2031 7.70609C10.2031 8.22495 10.624 8.64557 11.1431 8.64557Z" fill="#F45249"/>
</svg>
