<svg width="30" height="26" viewBox="0 0 30 26" fill="none" xmlns="http://www.w3.org/2000/svg">
<path d="M22.4998 0.00019643H7.49975C6.5144 -0.00150966 5.53845 0.191757 4.62812 0.568863C3.71778 0.94597 2.89105 1.49946 2.19556 2.19746C-2.51252 6.83801 0.888496 15.0415 7.49988 15.0001L13.4853 15.0002L16.7344 24.6562C16.8085 24.8764 16.9376 25.0741 17.1094 25.2306C17.2813 25.387 17.4903 25.4969 17.7165 25.55C17.9427 25.6031 18.1788 25.5975 18.4023 25.5339C18.6258 25.4702 18.8293 25.3505 18.9936 25.1862L22.1999 21.9799L25.8206 25.6003C26.0768 25.8559 26.424 25.9995 26.7859 25.9995C27.1478 25.9995 27.495 25.8559 27.7512 25.6003L29.5867 23.7648C29.8423 23.5086 29.9858 23.1614 29.9858 22.7995C29.9858 22.4376 29.8423 22.0904 29.5867 21.8342L25.9661 18.2138L29.1728 15.0073C29.3349 14.8419 29.4525 14.6383 29.5148 14.4153C29.5771 14.1923 29.582 13.9572 29.5291 13.7318C29.4762 13.5064 29.3672 13.298 29.2122 13.126C29.0572 12.954 28.8612 12.824 28.6425 12.748L28.0377 12.5445C32.4266 7.82435 28.9421 -0.0453036 22.4998 0.00019643ZM28.5628 13.9584C28.5774 14.019 28.5762 14.0822 28.5592 14.1421C28.5422 14.202 28.5099 14.2565 28.4656 14.3002L24.9055 17.8603C24.8124 17.9544 24.7602 18.0814 24.7602 18.2138C24.7602 18.3462 24.8124 18.4732 24.9055 18.5673L28.8796 22.5412C28.9476 22.61 28.9858 22.7028 28.9858 22.7995C28.9858 22.8962 28.9476 22.989 28.8796 23.0578L27.0442 24.8932C26.9745 24.9595 26.8821 24.9965 26.7859 24.9965C26.6897 24.9965 26.5972 24.9595 26.5276 24.8932L22.5535 20.9194C22.5071 20.8729 22.4519 20.8361 22.3913 20.811C22.3306 20.7858 22.2656 20.7729 22.2 20.7729C22.1343 20.7729 22.0693 20.7858 22.0086 20.811C21.948 20.8361 21.8929 20.8729 21.8464 20.9194L18.2866 24.4792C18.2427 24.5232 18.1882 24.5552 18.1284 24.5722C18.0686 24.5893 18.0054 24.5908 17.9449 24.5766C17.8843 24.5624 17.8284 24.5329 17.7824 24.4911C17.7365 24.4492 17.7019 24.3963 17.6821 24.3374L12.5203 8.99678C12.4986 8.93232 12.4953 8.86309 12.5108 8.79688C12.5263 8.73067 12.5601 8.67011 12.6081 8.62202C12.6562 8.57393 12.7168 8.54023 12.783 8.5247C12.8492 8.50917 12.9184 8.51244 12.9829 8.53413L28.3238 13.6958C28.3829 13.7151 28.436 13.7495 28.4779 13.7956C28.5198 13.8416 28.549 13.8977 28.5628 13.9584ZM13.302 7.58638C13.0613 7.50856 12.8038 7.49873 12.5579 7.55795C12.312 7.61718 12.0872 7.74316 11.9083 7.92202C11.7295 8.10087 11.6034 8.32564 11.5442 8.57156C11.4849 8.81747 11.4948 9.07497 11.5725 9.31566L13.1488 14.0002H7.49975C5.77586 14.0002 4.12257 13.3154 2.90359 12.0964C1.68462 10.8774 0.999806 9.2241 0.999813 7.5002C0.999821 5.7763 1.68464 4.12301 2.90363 2.90403C4.12262 1.68506 5.77591 1.00025 7.49981 1.00026L22.4998 1.0002C28.2913 0.961506 31.219 8.22337 26.9921 12.1927L13.302 7.58638Z" fill="#8E6F49"/>
<path d="M11.9995 2.5C11.8669 2.5 11.7397 2.55268 11.646 2.64645C11.5522 2.74021 11.4995 2.86739 11.4995 3V5C11.4995 5.13261 11.5522 5.25979 11.646 5.35355C11.7397 5.44732 11.8669 5.5 11.9995 5.5C12.1321 5.5 12.2593 5.44732 12.3531 5.35355C12.4468 5.25979 12.4995 5.13261 12.4995 5V3C12.4995 2.86739 12.4468 2.74021 12.3531 2.64645C12.2593 2.55268 12.1321 2.5 11.9995 2.5Z" fill="#8E6F49"/>
<path d="M15.0839 3.72278L14.0839 5.22279C14.0135 5.33313 13.9891 5.46669 14.0161 5.59477C14.0431 5.72286 14.1192 5.83528 14.2281 5.90788C14.337 5.98049 14.47 6.00749 14.5986 5.98311C14.7272 5.95872 14.8411 5.88488 14.9159 5.77745L15.9159 4.27747C15.9865 4.16713 16.011 4.03347 15.9841 3.90525C15.9573 3.77702 15.8811 3.66447 15.7721 3.5918C15.6631 3.51913 15.5299 3.49214 15.4012 3.51663C15.2725 3.54113 15.1586 3.61515 15.0839 3.72278Z" fill="#8E6F49"/>
<path d="M8.91599 3.72284C8.84124 3.61535 8.72731 3.54148 8.59868 3.51707C8.47005 3.49266 8.33697 3.51967 8.22804 3.5923C8.11911 3.66493 8.043 3.77738 8.01607 3.90551C7.98914 4.03363 8.01352 4.16721 8.08399 4.27755L9.08399 5.77755C9.15881 5.88489 9.27271 5.95862 9.40127 5.98295C9.52982 6.00727 9.66279 5.98025 9.77165 5.90767C9.88051 5.8351 9.95659 5.72275 9.98358 5.59472C10.0106 5.4667 9.9863 5.3332 9.91599 5.22286L8.91599 3.72284Z" fill="#8E6F49"/>
</svg>
