<svg width="215" height="34" viewBox="0 0 215 34" fill="none" xmlns="http://www.w3.org/2000/svg">
<path d="M17.5128 16.7428C15.9634 21.0215 14.3287 25.684 13.9591 26.7217C13.1915 28.8682 12.2249 31.8675 9.29658 33.2464C8.04566 33.7581 6.59574 33.9998 4.80465 33.9998C3.98019 33.9998 3.18415 33.9713 2.45919 33.9287V29.1951C2.97092 29.2236 3.49688 29.2662 4.05126 29.2662H4.43506C5.37325 29.2662 6.02714 29.0956 6.43937 28.9535C7.23541 28.7402 7.64764 27.9869 7.64764 26.7075L0 8.3418H6.32565L10.6044 19.7138L14.2718 8.3418H20.498C19.4176 11.4264 18.4226 14.2268 17.5128 16.7428Z" fill="#54B948"/>
<path d="M37.5982 15.8038V19.187C37.5982 22.7407 36.3188 25.0578 33.8028 26.1665C32.5519 26.6783 31.0735 26.9626 29.3109 26.9626C25.5439 26.9626 23.0563 25.7117 21.9191 23.2667C21.4073 22.2574 21.123 21.0207 21.123 19.4997V15.4627C21.123 11.8663 22.6725 9.54927 25.7855 8.55422C26.8517 8.24149 27.8894 8.04248 29.0976 8.04248H29.652C33.6322 8.04248 36.0487 9.56348 37.1433 12.4633C37.456 13.3873 37.5982 14.4961 37.5982 15.8038ZM30.6897 13.0461C30.377 12.8756 29.9932 12.8329 29.5809 12.8329H29.1403C28.1452 12.8329 27.4061 13.2452 26.9938 14.0696C26.8943 14.3823 26.8232 14.7235 26.8232 15.2495V19.8835C26.8232 21.4756 27.6477 22.2716 29.3109 22.2716H29.453C30.7608 22.2716 31.5995 21.6888 31.9122 20.5516C31.9122 20.2389 31.9406 19.8977 31.9406 19.3718V15.6048C31.9264 14.1549 31.5142 13.2878 30.6897 13.0461Z" fill="#54B948"/>
<path d="M54.7129 15.8038V19.187C54.7129 22.7407 53.4336 25.0578 50.9175 26.1665C49.6666 26.6783 48.1883 26.9626 46.4256 26.9626C42.6586 26.9626 40.171 25.7117 39.0338 23.2667C38.5221 22.2574 38.2378 21.0207 38.2378 19.4997V15.4627C38.2378 11.8663 39.7872 9.54927 42.9003 8.55422C43.9664 8.24149 45.0041 8.04248 46.2124 8.04248H46.7668C50.747 8.04248 53.1635 9.56348 54.258 12.4633C54.5708 13.3873 54.7129 14.4961 54.7129 15.8038ZM47.7902 13.0461C47.4775 12.8756 47.0937 12.8329 46.6815 12.8329H46.2266C45.2315 12.8329 44.4924 13.2452 44.0801 14.0696C43.9948 14.3966 43.9238 14.7377 43.9238 15.2495V19.8835C43.9238 21.4756 44.7482 22.2716 46.4114 22.2716H46.5535C47.8613 22.2716 48.7 21.6888 49.0127 20.5516C49.0127 20.2389 49.0412 19.8977 49.0412 19.3718V15.6048C49.0412 14.1549 48.6289 13.2878 47.7902 13.0461Z" fill="#54B948"/>
<path d="M72.5388 15.946V26.7209H66.8386V14.9083C66.8386 13.7711 66.2842 13.0746 65.2181 12.8329C64.8769 12.8045 64.4931 12.7619 64.1093 12.8045C63.4554 12.904 62.6167 13.0462 61.6928 13.6005V26.7352H56.021V8.26993H60.7261L60.8967 8.61109C60.9962 8.85275 61.1384 9.0944 61.2379 9.4782C61.6217 9.30762 63.4554 8.17043 66.2415 8.05671C68.4591 7.9572 70.4207 8.22729 71.8422 10.5728C72.3682 11.5536 72.5388 13.0746 72.5388 15.946Z" fill="#54B948"/>
<path d="M88.744 8.82468V13.4161C86.7113 13.0465 84.707 12.8049 83.5698 12.8049C82.2194 12.8049 81.3238 13.0465 80.8689 13.5014C80.4851 13.7431 80.2861 14.7097 80.2861 16.4012V18.7467C80.2861 20.2961 80.4567 21.1917 80.7979 21.476C81.2101 21.9877 82.1056 22.272 83.4561 22.272H83.8683C84.8633 22.272 86.4554 22.0304 88.7014 21.6181H88.7298V26.1811C88.7298 26.2806 87.7348 26.4939 85.6878 26.8066C84.8918 26.9061 83.9536 26.9772 82.8875 26.9772C78.9784 26.9772 76.4197 25.5557 75.2114 22.7269C74.7992 21.8314 74.5859 20.3104 74.5859 18.1355V16.8846C74.5859 14.2548 74.9271 12.4637 75.6236 11.4971C76.974 9.2227 79.3906 8.07129 82.8733 8.07129C84.7781 8.07129 86.7113 8.31294 88.744 8.82468Z" fill="#54B948"/>
<path d="M106.555 15.8038V19.187C106.555 22.7407 105.276 25.0578 102.76 26.1665C101.509 26.6783 100.031 26.9626 98.2679 26.9626C94.5009 26.9626 92.0133 25.7117 90.8761 23.2667C90.3502 22.2574 90.0801 21.0207 90.0801 19.4997V15.4627C90.0801 11.8663 91.6295 9.54927 94.7426 8.55422C95.8087 8.24149 96.8464 8.04248 98.0547 8.04248H98.6091C102.589 8.04248 105.006 9.56348 106.1 12.4633C106.413 13.3873 106.555 14.4961 106.555 15.8038ZM99.6325 13.0461C99.3198 12.8756 98.936 12.8329 98.5238 12.8329H98.0831C97.0738 12.8329 96.3489 13.2452 95.9366 14.0696C95.8371 14.3823 95.7661 14.7235 95.7661 15.2495V19.8835C95.7661 21.4756 96.5905 22.2716 98.2537 22.2716H98.3958C99.7036 22.2716 100.542 21.6888 100.855 20.5516C100.855 20.2389 100.883 19.8977 100.883 19.3718V15.6048C100.883 14.1549 100.471 13.2878 99.6325 13.0461Z" fill="#54B948"/>
<path d="M135.369 15.9462V26.7211H129.64V14.9085C129.64 13.7713 129.114 13.0747 128.048 12.8331C126.769 12.5914 125.419 13.0747 124.495 13.5865V26.7211H118.752V14.9085C118.752 13.7713 118.226 13.0747 117.16 12.8331C116.818 12.8047 116.435 12.762 116.051 12.8047C115.397 12.9042 114.573 13.0463 113.634 13.6007H113.592V26.7353H107.92V8.25587H111.587H112.597C112.668 8.35537 112.739 8.49752 112.81 8.59703C112.909 8.83868 113.052 9.08034 113.151 9.46414C113.492 9.29356 115.397 8.15636 118.169 8.04264H118.482C120.003 8.01421 121.453 8.21322 122.661 9.22249C122.689 9.22249 122.732 9.22249 122.76 9.25092C124.381 8.65389 126.385 8 128.603 8C131.886 8 133.919 8.86711 134.644 10.5871C135.127 11.3121 135.369 13.1174 135.369 15.9462Z" fill="#54B948"/>
<path d="M144.779 26.9629C142.05 26.9629 139.15 26.6218 137.729 26.3375L137.203 21.3907C138.482 21.6608 145.803 23.1107 146.528 21.3907C147.224 19.5569 141.098 19.9408 138.368 17.3536C136.989 16.1454 136.947 14.5533 137.061 13.345C137.615 8.54036 142.178 8.15656 144.836 8.05705C147.324 7.95755 149.769 8.27028 151.19 8.51193L151.702 13.3877C149.939 13.0039 143.756 12.0372 143.102 13.6009C142.306 15.463 148.802 15.3351 151.261 17.6379C152.569 18.9457 152.612 20.4383 152.512 21.7176C151.972 26.4512 147.48 26.8634 144.779 26.9629Z" fill="#54B948"/>
<path d="M163.064 27H167.36V20.712H169.616C173.432 20.712 176.6 18.96 176.6 14.76C176.6 10.44 173.432 9.12 169.616 9.12H163.064V27ZM167.36 17.328V12.528H169.28C171.32 12.528 172.424 13.08 172.424 14.76C172.424 16.44 171.32 17.328 169.28 17.328H167.36ZM172.712 27H177.512L171.752 16.8L168.848 19.608L172.712 27ZM184.688 27.336C187.736 27.336 190.112 26.088 191.816 24.192C193.808 21.984 195.104 19.536 195.92 16.824H192.032C191.432 19.128 190.28 20.928 188.888 22.296C187.712 23.4 186.44 24.072 185.216 24.072C183.68 24.072 182.696 23.208 182.696 21.936C182.696 18.768 190.28 17.688 190.28 12.912C190.28 10.416 188.504 8.808 185.768 8.808C182.72 8.808 180.8 10.968 180.8 13.512C180.8 17.064 184.76 21.96 189.296 24.936C191.192 26.136 193.16 27 195.008 27.336L196.016 23.88C194.84 23.712 193.376 23.088 191.888 22.224C188.192 20.064 184.304 16.272 184.304 13.512C184.304 12.312 185 11.592 185.864 11.592C186.632 11.592 187.016 12.096 187.016 12.912C187.016 16.344 178.64 16.296 178.64 22.2C178.64 24.912 180.68 27.336 184.688 27.336ZM198.619 27H203.995C209.203 27 212.803 24.192 212.803 17.976C212.803 11.76 209.203 9.12 203.755 9.12H198.619V27ZM202.915 23.544V12.552H203.491C206.371 12.552 208.411 13.728 208.411 17.976C208.411 22.224 206.371 23.544 203.491 23.544H202.915Z" fill="#54B948"/>
</svg>
