<svg width="410" height="89" viewBox="0 0 410 89" fill="none" xmlns="http://www.w3.org/2000/svg">
<rect width="410" height="89" fill="#004097"/>
<g opacity="0.12" clip-path="url(#clip0_308_4696)">
<path d="M28.4102 27.9535L28.4102 56.6807L38.1725 56.6807L38.1725 27.9535L28.4102 27.9535Z" fill="#02983B"/>
<path d="M49.9476 30.9909L63.2638 56.6807L52.902 56.6807L38.1514 27.9535L44.6382 27.9535C46.8433 27.9535 48.8771 28.8733 49.9476 30.9909Z" fill="white"/>
<path d="M10.8123 30.9909L24.1286 56.6807L13.7667 56.6807L-0.983888 27.9535L5.50296 27.9535C7.70806 27.9535 9.74189 28.8946 10.8123 30.9909Z" fill="white"/>
<path d="M67.5449 27.2904L67.5449 56.6807L77.3073 56.6807L77.3073 27.2904L67.5449 27.2904Z" fill="#02983B"/>
<path d="M85.8286 56.6807L90.8383 56.6807C93.4715 56.6807 95.591 54.563 95.591 51.932L95.591 27.3117L85.8286 27.3117L85.8286 56.6807Z" fill="white"/>
<path d="M145.966 27.9549L145.966 56.6821L155.729 56.6821L155.729 27.9549L145.966 27.9549Z" fill="#02983B"/>
<path d="M167.504 30.9924L180.82 56.6821L170.458 56.6821L155.708 27.9549L162.194 27.9549C164.399 27.9549 166.433 28.8747 167.504 30.9924Z" fill="white"/>
<path d="M106.831 27.9549L106.831 56.6821L116.593 56.6821L116.593 27.9549L106.831 27.9549Z" fill="#02983B"/>
<path d="M128.368 30.9924L141.684 56.6821L131.322 56.6821L116.571 27.9549L123.058 27.9549C125.263 27.9549 127.297 28.8961 128.368 30.9924Z" fill="white"/>
<path d="M185.099 27.2918L185.099 56.6821L194.862 56.6821L194.862 27.2918L185.099 27.2918Z" fill="#02983B"/>
<path d="M203.383 56.6821L208.392 56.6821C211.026 56.6821 213.145 54.5645 213.145 51.9335L213.145 27.3132L203.383 27.3132L203.383 56.6821Z" fill="white"/>
<path d="M263.5 27.9549L263.5 56.6821L273.262 56.6821L273.262 27.9549L263.5 27.9549Z" fill="#02983B"/>
<path d="M285.037 30.9924L298.353 56.6821L287.991 56.6821L273.241 27.9549L279.728 27.9549C281.933 27.9549 283.967 28.8747 285.037 30.9924Z" fill="white"/>
<path d="M224.365 27.9549L224.365 56.6821L234.128 56.6821L234.128 27.9549L224.365 27.9549Z" fill="#02983B"/>
<path d="M245.902 30.9924L259.218 56.6821L248.856 56.6821L234.105 27.9549L240.592 27.9549C242.797 27.9549 244.831 28.8961 245.902 30.9924Z" fill="white"/>
<path d="M302.635 27.2918L302.635 56.6821L312.398 56.6821L312.398 27.2918L302.635 27.2918Z" fill="#02983B"/>
<path d="M320.919 56.6821L325.929 56.6821C328.562 56.6821 330.681 54.5645 330.681 51.9335L330.681 27.3132L320.919 27.3132L320.919 56.6821Z" fill="white"/>
<path d="M381.034 27.9549L381.034 56.6821L390.796 56.6821L390.796 27.9549L381.034 27.9549Z" fill="#02983B"/>
<path d="M402.571 30.9924L415.887 56.6821L405.526 56.6821L390.775 27.9549L397.262 27.9549C399.467 27.9549 401.501 28.8747 402.571 30.9924Z" fill="white"/>
<path d="M341.899 27.9549L341.899 56.6821L351.662 56.6821L351.662 27.9549L341.899 27.9549Z" fill="#02983B"/>
<path d="M363.436 30.9924L376.753 56.6821L366.391 56.6821L351.64 27.9549L358.127 27.9549C360.332 27.9549 362.366 28.8961 363.436 30.9924Z" fill="white"/>
<path d="M7.55859 91.123L12.5682 91.123C15.2015 91.123 17.321 89.0054 17.321 86.3744L17.321 61.7541L7.55859 61.7541L7.55859 91.123Z" fill="white"/>
<path d="M67.6958 62.3958L67.6958 91.123L77.4582 91.123L77.4582 62.3958L67.6958 62.3958Z" fill="#02983B"/>
<path d="M89.2332 65.4333L102.549 91.123L92.1876 91.123L77.437 62.3958L83.9239 62.3958C86.129 62.3958 88.1628 63.3156 89.2332 65.4333Z" fill="white"/>
<path d="M28.5596 62.3958L28.5596 91.123L38.3219 91.123L38.3219 62.3958L28.5596 62.3958Z" fill="#02983B"/>
<path d="M50.097 65.4333L63.4132 91.123L53.0514 91.123L38.3008 62.3958L44.7876 62.3958C46.9927 62.3958 49.0266 63.337 50.097 65.4333Z" fill="white"/>
<path d="M106.83 61.7327L106.83 91.123L116.592 91.123L116.592 61.7327L106.83 61.7327Z" fill="#02983B"/>
<path d="M125.113 91.123L130.123 91.123C132.756 91.123 134.876 89.0054 134.876 86.3744L134.876 61.7541L125.113 61.7541L125.113 91.123Z" fill="white"/>
<path d="M185.23 62.3958L185.23 91.123L194.992 91.123L194.992 62.3958L185.23 62.3958Z" fill="#02983B"/>
<path d="M206.767 65.4333L220.084 91.123L209.722 91.123L194.971 62.3958L201.458 62.3958C203.663 62.3958 205.697 63.3156 206.767 65.4333Z" fill="white"/>
<path d="M146.094 62.3958L146.094 91.123L155.856 91.123L155.856 62.3958L146.094 62.3958Z" fill="#02983B"/>
<path d="M167.631 65.4333L180.947 91.123L170.586 91.123L155.835 62.3958L162.322 62.3958C164.527 62.3958 166.561 63.337 167.631 65.4333Z" fill="white"/>
<path d="M224.364 61.7327L224.364 91.123L234.126 91.123L234.126 61.7327L224.364 61.7327Z" fill="#02983B"/>
<path d="M242.647 91.123L247.657 91.123C250.29 91.123 252.41 89.0054 252.41 86.3744L252.41 61.7541L242.647 61.7541L242.647 91.123Z" fill="white"/>
<path d="M302.763 62.3959L302.763 91.123L312.525 91.123L312.525 62.3959L302.763 62.3959Z" fill="#02983B"/>
<path d="M324.3 65.4333L337.616 91.123L327.255 91.123L312.504 62.3959L318.991 62.3959C321.196 62.3959 323.23 63.3156 324.3 65.4333Z" fill="white"/>
<path d="M263.628 62.3958L263.628 91.123L273.391 91.123L273.391 62.3958L263.628 62.3958Z" fill="#02983B"/>
<path d="M285.166 65.4333L298.482 91.123L288.12 91.123L273.37 62.3958L279.856 62.3958C282.062 62.3958 284.095 63.337 285.166 65.4333Z" fill="white"/>
<path d="M341.898 61.7327L341.898 91.123L351.661 91.123L351.661 61.7327L341.898 61.7327Z" fill="#02983B"/>
<path d="M360.182 91.123L365.192 91.123C367.825 91.123 369.945 89.0054 369.945 86.3744L369.945 61.7541L360.182 61.7541L360.182 91.123Z" fill="white"/>
<path d="M381.162 62.3958L381.162 91.123L390.924 91.123L390.924 62.3958L381.162 62.3958Z" fill="#02983B"/>
<path d="M402.699 65.4333L416.015 91.123L405.653 91.123L390.903 62.3958L397.39 62.3958C399.595 62.3958 401.629 63.337 402.699 65.4333Z" fill="white"/>
<path d="M106.768 -6.48159L106.768 22.2456L116.53 22.2456L116.53 -6.48159L106.768 -6.48159Z" fill="#02983B"/>
<path d="M128.305 -3.44417L141.621 22.2456L131.259 22.2456L116.509 -6.48159L122.996 -6.48159C125.201 -6.48159 127.235 -5.56181 128.305 -3.44417Z" fill="white"/>
<path d="M67.6318 -6.48159L67.6318 22.2456L77.3942 22.2456L77.3942 -6.48159L67.6318 -6.48159Z" fill="#02983B"/>
<path d="M89.1693 -3.44417L102.485 22.2456L92.1237 22.2456L77.373 -6.4816L83.8599 -6.4816C86.065 -6.4816 88.0988 -5.54042 89.1693 -3.44417Z" fill="white"/>
<path d="M145.901 -7.14469L145.901 22.2456L155.663 22.2456L155.663 -7.14469L145.901 -7.14469Z" fill="#02983B"/>
<path d="M164.184 22.2456L169.193 22.2456C171.827 22.2456 173.946 20.128 173.946 17.497L173.946 -7.1233L164.184 -7.1233L164.184 22.2456Z" fill="white"/>
<path d="M224.319 -6.48159L224.319 22.2456L234.082 22.2456L234.082 -6.48159L224.319 -6.48159Z" fill="#02983B"/>
<path d="M245.857 -3.44417L259.173 22.2456L248.811 22.2456L234.061 -6.48159L240.547 -6.48159C242.753 -6.48159 244.786 -5.56181 245.857 -3.44417Z" fill="white"/>
<path d="M185.186 -6.48159L185.186 22.2456L194.948 22.2456L194.948 -6.48159L185.186 -6.48159Z" fill="#02983B"/>
<path d="M206.723 -3.44417L220.039 22.2456L209.677 22.2456L194.927 -6.48159L201.414 -6.48159C203.619 -6.48159 205.653 -5.54042 206.723 -3.44417Z" fill="white"/>
<path d="M263.456 -7.14469L263.456 22.2456L273.218 22.2456L273.218 -7.14469L263.456 -7.14469Z" fill="#02983B"/>
<path d="M281.74 22.2456L286.749 22.2456C289.383 22.2456 291.502 20.128 291.502 17.497L291.502 -7.1233L281.74 -7.1233L281.74 22.2456Z" fill="white"/>
<path d="M341.854 -6.48159L341.854 22.2456L351.616 22.2456L351.616 -6.48159L341.854 -6.48159Z" fill="#02983B"/>
<path d="M363.391 -3.44417L376.707 22.2456L366.345 22.2456L351.595 -6.48159L358.082 -6.48159C360.287 -6.48159 362.321 -5.56181 363.391 -3.44417Z" fill="white"/>
<path d="M302.72 -6.48159L302.72 22.2456L312.482 22.2456L312.482 -6.48159L302.72 -6.48159Z" fill="#02983B"/>
<path d="M324.257 -3.44417L337.573 22.2456L327.212 22.2456L312.461 -6.48159L318.948 -6.48159C321.153 -6.48159 323.187 -5.54042 324.257 -3.44417Z" fill="white"/>
<path d="M380.99 -7.14469L380.99 22.2456L390.753 22.2456L390.753 -7.14469L380.99 -7.14469Z" fill="#02983B"/>
<path d="M399.274 22.2456L404.284 22.2456C406.917 22.2456 409.036 20.128 409.036 17.497L409.036 -7.1233L399.274 -7.1233L399.274 22.2456Z" fill="white"/>
<path d="M10.8123 -3.44416L24.1286 22.2456L13.7667 22.2456L-0.983888 -6.48159L5.50296 -6.48159C7.70806 -6.48159 9.74189 -5.56181 10.8123 -3.44416Z" fill="white"/>
<path d="M28.4106 -7.1447L28.4106 22.2456L38.173 22.2456L38.173 -7.1447L28.4106 -7.1447Z" fill="#02983B"/>
<path d="M46.6934 22.2456L51.703 22.2456C54.3363 22.2456 56.4557 20.128 56.4557 17.497L56.4557 -7.12331L46.6934 -7.12331L46.6934 22.2456Z" fill="white"/>
</g>
<defs>
<clipPath id="clip0_308_4696">
<rect width="410" height="89" fill="white"/>
</clipPath>
</defs>
</svg>
