<svg width="112" height="88" viewBox="0 0 112 88" fill="none" xmlns="http://www.w3.org/2000/svg">
<path d="M21.5991 39.7883C21.5422 39.7977 21.4835 39.7957 21.423 39.7824L16.5991 38.9962C15.6436 39.503 14.6145 39.8475 13.546 40.0239C8.0918 40.936 2.94069 37.2479 2.04671 31.833C1.15087 26.4067 4.84505 21.27 10.2898 20.3711C15.7345 19.4722 20.8838 23.1489 21.7796 28.5752C22.1798 30.9995 21.6747 33.4568 20.358 35.5245L22.0079 39.0109C22.0965 39.1941 22.0733 39.4074 21.9499 39.5791C21.853 39.6998 21.7355 39.7658 21.5991 39.7883Z" fill="white"/>
<path d="M32.4962 21.9378C32.5288 21.9073 32.5552 21.8703 32.5756 21.8269L34.3634 18.4938C35.1246 18.1455 35.8206 17.6755 36.4319 17.1023C39.5598 14.1815 39.7193 9.28134 36.8141 6.18315C33.9028 3.07847 29.0087 2.92944 25.8934 5.85062C22.7782 8.7718 22.6125 13.6655 25.5238 16.7701C26.8245 18.1572 28.5716 19.0038 30.4615 19.1683L31.8263 21.823C31.8971 21.9636 32.0391 22.0498 32.2026 22.0548C32.3223 22.0521 32.4182 22.011 32.4962 21.9378Z" fill="#02983B"/>
<g clip-path="url(#clip0_412_9454)">
<path d="M70.6597 77.1276H68.0209C55.8534 77.1276 47.9372 69.7545 47.9372 58.2524C47.9372 49.9946 51.3089 41.5892 57.1728 35.6907C62.7435 30.0871 70.2199 26.843 77.9895 26.843C86.4921 26.843 93.089 29.7922 98.8063 36.1331L99.2461 36.7229L111.853 21.9767C106.576 15.6358 96.9005 9 79.4555 9C65.3822 9 52.3351 14.3086 42.6597 24.1886C33.2775 33.4788 28 46.1605 28 58.6948C28 83.616 48.0838 94.8231 66.8482 94.9706H76.0838L104.084 62.0865H83.5602L70.6597 77.1276Z" fill="white"/>
<path d="M64.2095 62.0861H104.084L108.922 45.1279H68.754L64.2095 62.0861Z" fill="#02983B"/>
</g>
<defs>
<clipPath id="clip0_412_9454">
<rect width="84" height="79" fill="white" transform="translate(28 9)"/>
</clipPath>
</defs>
</svg>
