<svg width="20" height="20" viewBox="0 0 20 20" fill="none" xmlns="http://www.w3.org/2000/svg">
<path d="M16.875 20H3.125C1.40182 20 0 18.5982 0 16.875V3.125C0 1.40182 1.40182 0 3.125 0H16.875C18.5982 0 20 1.40182 20 3.125V12.9688C20 13.4003 19.6503 13.75 19.2188 13.75C18.7872 13.75 18.4375 13.4003 18.4375 12.9688V3.125C18.4375 2.26349 17.7365 1.5625 16.875 1.5625H3.125C2.26349 1.5625 1.5625 2.26349 1.5625 3.125V16.875C1.5625 17.7365 2.26349 18.4375 3.125 18.4375H16.875C17.7365 18.4375 18.4375 17.7365 18.4375 16.875C18.4375 16.4435 18.7872 16.0938 19.2188 16.0938C19.6503 16.0938 20 16.4435 20 16.875C20 18.5982 18.5982 20 16.875 20ZM8.51959 15.584C9.15848 15.5583 9.74503 15.282 10.1715 14.8056C10.1787 14.7977 10.1857 14.7894 10.1926 14.7812L16.4233 7.21542C16.6977 6.88232 16.6501 6.39008 16.317 6.11572C15.9839 5.84137 15.4915 5.88913 15.2173 6.22208L8.99841 13.7733C8.85712 13.9259 8.66531 14.0144 8.45688 14.0228C8.24432 14.0314 8.04169 13.9552 7.88727 13.8084C7.88116 13.8028 7.87506 13.797 7.8688 13.7915L4.93408 11.1748C4.61197 10.8876 4.11819 10.9158 3.83102 11.2379C3.54385 11.5599 3.57208 12.0538 3.8942 12.341L6.82053 14.9503C7.25906 15.3624 7.8241 15.5861 8.4227 15.5861C8.45474 15.5859 8.48724 15.5853 8.51959 15.584Z" fill="#354458"/>
</svg>
